G04*
G04 #@! TF.GenerationSoftware,Altium Limited,Altium Designer,18.0.7 (293)*
G04*
G04 Layer_Color=8388736*
%FSLAX25Y25*%
%MOIN*%
G70*
G01*
G75*
%ADD14C,0.00591*%
%ADD15C,0.00591*%
%ADD16C,0.00800*%
%ADD18C,0.00394*%
%ADD19C,0.00197*%
%ADD20C,0.00600*%
%ADD43R,0.04461X0.04658*%
%ADD44R,0.04658X0.04461*%
%ADD45C,0.06706*%
%ADD46R,0.06312X0.05524*%
%ADD47R,0.06312X0.09461*%
%ADD48R,0.08280X0.03162*%
%ADD49R,0.06706X0.02572*%
%ADD50R,0.08674X0.04304*%
%ADD51R,0.02965X0.05918*%
%ADD52R,0.03556X0.05721*%
%ADD53R,0.07887X0.06115*%
%ADD54R,0.03353X0.03550*%
%ADD55R,0.02684X0.03550*%
%ADD56R,0.06312X0.02572*%
%ADD57R,0.05328X0.06312*%
%ADD58R,0.06115X0.07887*%
%ADD59R,0.07296X0.03359*%
%ADD60R,0.04658X0.06076*%
%ADD61R,0.06706X0.05524*%
%ADD62R,0.05918X0.02965*%
%ADD63R,0.05367X0.06587*%
%ADD64R,0.10642X0.02375*%
%ADD65C,0.00800*%
%ADD66R,0.00800X0.00800*%
%ADD67C,0.02572*%
%ADD68C,0.04737*%
%ADD69C,0.05800*%
D14*
X-312823Y94500D02*
X-312811Y94488D01*
X-312823Y-0D02*
X24185D01*
X-312823Y106299D02*
X23398Y-106299D01*
X-312823D02*
X23398Y106299D01*
X-312823D02*
X24185D01*
Y-106299D02*
Y106299D01*
X-312823Y-106299D02*
Y106299D01*
Y-106299D02*
X24185D01*
X-296937Y-52000D02*
X-289063D01*
X-293000Y-55937D02*
Y-48063D01*
D15*
X-218500Y-45000D02*
Y-27000D01*
X-242500Y-27000D02*
X-218500D01*
X-242500Y-45000D02*
Y-27000D01*
X-242500Y-45000D02*
X-218500D01*
X-233500Y34500D02*
X-233500Y34500D01*
X-209500D01*
X-209500Y34500D02*
X-209500Y34500D01*
X-209500Y16500D02*
Y34500D01*
X-233500Y16500D02*
X-209500D01*
X-233500D02*
X-233500Y16500D01*
Y34500D01*
D16*
X-290264Y-74822D02*
X-292263D01*
X-293263Y-73822D01*
X-292263Y-72823D01*
X-290264D01*
X-291763D01*
Y-74822D01*
X-293263Y-71823D02*
X-290264D01*
Y-69824D01*
Y-68824D02*
X-293263D01*
Y-67325D01*
X-292763Y-66825D01*
X-291763D01*
X-291263Y-67325D01*
Y-68824D01*
X-292763Y-63826D02*
X-293263Y-64325D01*
Y-65325D01*
X-292763Y-65825D01*
X-292263D01*
X-291763Y-65325D01*
Y-64325D01*
X-291263Y-63826D01*
X-290764D01*
X-290264Y-64325D01*
Y-65325D01*
X-290764Y-65825D01*
X-284745Y-74822D02*
X-287744D01*
Y-73322D01*
X-287244Y-72823D01*
X-286244D01*
X-285745Y-73322D01*
Y-74822D01*
Y-73822D02*
X-284745Y-72823D01*
X-287744Y-71823D02*
X-284745D01*
X-285745D01*
X-287744Y-69824D01*
X-286244Y-71323D01*
X-284745Y-69824D01*
Y-68824D02*
Y-67824D01*
Y-68324D01*
X-287744D01*
X-287244Y-68824D01*
Y-66325D02*
X-287744Y-65825D01*
Y-64825D01*
X-287244Y-64325D01*
X-285245D01*
X-284745Y-64825D01*
Y-65825D01*
X-285245Y-66325D01*
X-287244D01*
X-287744Y-61326D02*
Y-62326D01*
Y-61826D01*
X-285245D01*
X-284745Y-62326D01*
Y-62826D01*
X-285245Y-63326D01*
X-284745Y-60327D02*
Y-59327D01*
Y-59827D01*
X-287744D01*
X-287244Y-60327D01*
X-284745Y-55828D02*
Y-57828D01*
X-286744Y-55828D01*
X-287244D01*
X-287744Y-56328D01*
Y-57328D01*
X-287244Y-57828D01*
X-284745Y-54829D02*
X-287744D01*
Y-53329D01*
X-287244Y-52829D01*
X-286244D01*
X-285745Y-53329D01*
Y-54829D01*
Y-53829D02*
X-284745Y-52829D01*
X-118252Y65031D02*
Y68968D01*
X-120220Y67000D02*
X-116284D01*
X-145811Y65031D02*
Y68968D01*
X-99752Y-72969D02*
Y-69032D01*
X-101720Y-71000D02*
X-97783D01*
X-127311Y-72969D02*
Y-69032D01*
X-185968Y-36252D02*
X-182032D01*
X-184000Y-38221D02*
Y-34284D01*
X-185968Y-63811D02*
X-182032D01*
X-162548Y-70868D02*
Y-66931D01*
X-164516Y-68900D02*
X-160580D01*
X-134989Y-70868D02*
Y-66931D01*
X-162552Y-70868D02*
Y-66931D01*
X-164521Y-68900D02*
X-160583D01*
X-190111Y-70868D02*
Y-66931D01*
D18*
X-70866Y-85827D02*
G03*
X-86614Y-85827I-7874J0D01*
G01*
X-307677Y61823D02*
X-304000Y65500D01*
X-313000Y61823D02*
X-307677D01*
X-313000D02*
Y81201D01*
X-304000Y65500D02*
X-264000D01*
Y14000D02*
Y65500D01*
X-312000Y14000D02*
X-264000D01*
X-313000Y13000D02*
X-312000Y14000D01*
X-313000Y-862D02*
Y13000D01*
X-291701Y-81201D02*
X-291500Y-81402D01*
Y-96457D02*
Y-81402D01*
X-310098Y-18972D02*
Y-16610D01*
X-313000D02*
X-310098D01*
Y-18972D02*
X-295532D01*
X-313000Y-862D02*
X-310098D01*
Y1500D01*
X-291701Y81201D02*
X-291500Y81402D01*
X-313000Y-40600D02*
Y-16610D01*
X-295532Y-23106D02*
Y-18972D01*
Y-23106D02*
X-290807D01*
Y-18972D01*
X-267972D01*
Y1500D01*
X-280177D02*
X-267972D01*
X-280177D02*
Y5634D01*
X-284902D02*
X-280177D01*
X-284902Y1500D02*
Y5634D01*
X-310098Y1500D02*
X-284902D01*
X-313000Y-81201D02*
Y-40600D01*
X-232445Y96457D02*
X-59543D01*
X-232445Y93000D02*
X-63000D01*
X-232445Y81201D02*
Y93000D01*
X-291500Y96457D02*
X-232445D01*
X-63000Y86614D02*
Y93000D01*
X-59543Y96457D02*
X-19685D01*
X-63000Y-93000D02*
Y-86614D01*
X-291500Y-96457D02*
X-19685D01*
X-232445Y-93000D02*
Y-81201D01*
Y-93000D02*
X-63000D01*
X-19685Y86614D02*
X-500D01*
X-19685Y-86614D02*
X-500D01*
X-218500Y-45000D02*
Y-27000D01*
X-242500D02*
X-218500D01*
X-242500Y-45000D02*
Y-27000D01*
Y-45000D02*
X-218500D01*
X-233500Y34500D02*
X-233500Y34500D01*
X-209500D01*
Y16500D02*
Y34500D01*
X-209500Y16500D02*
X-209500Y16500D01*
X-233500Y16500D02*
X-209500D01*
X-233500D02*
Y34500D01*
X-63000Y86614D02*
X-63000Y86614D01*
X-70866Y86614D02*
X-63000D01*
X-19685Y86614D02*
Y96457D01*
X-70866Y-86614D02*
X-63000D01*
X-19685Y-96457D02*
Y-86614D01*
X-232445Y81201D02*
X-197244D01*
X-313000D02*
X-291701D01*
X-291500Y81402D02*
Y96457D01*
X-232445Y-81201D02*
X-197244D01*
X-313000D02*
X-291701D01*
X-197244Y81201D02*
Y86614D01*
Y-86614D02*
X-86614D01*
X-70866D02*
Y-85827D01*
X-86614Y-86614D02*
Y-85827D01*
X-197244Y-86614D02*
Y-81201D01*
X-500Y86614D02*
X-500Y-86614D01*
X-197244Y86614D02*
X-86614D01*
X-70866Y83858D02*
Y86614D01*
X-86614Y83858D02*
Y86614D01*
Y83858D02*
X-70866D01*
X-265441Y-52000D02*
G03*
X-265441Y-52000I-27559J0D01*
G01*
X-291032D02*
G03*
X-291032Y-52000I-1969J0D01*
G01*
X-117614Y-26587D02*
G03*
X-117614Y-26587I-1969J0D01*
G01*
X-228472Y59741D02*
G03*
X-228472Y59741I-1969J0D01*
G01*
X-208921Y-10693D02*
G03*
X-208921Y-10693I-1969J0D01*
G01*
X-48847Y-47504D02*
G03*
X-48847Y-47504I-1969J0D01*
G01*
X-105816Y-53496D02*
G03*
X-105816Y-53496I-1969J0D01*
G01*
X-80762Y51799D02*
G03*
X-80762Y51799I-1969J0D01*
G01*
X-165424Y-43710D02*
G03*
X-165424Y-43710I-1969J0D01*
G01*
X-37516Y-24016D02*
G03*
X-37516Y-24016I-1969J0D01*
G01*
X-431500Y0D02*
X40945Y-0D01*
X-313213Y13500D02*
Y65665D01*
X-264000D01*
Y13500D02*
Y65665D01*
X-313213Y13500D02*
X-264000D01*
X-267936Y65664D02*
Y87318D01*
X-287622D02*
X-267936D01*
X-287622Y65787D02*
Y87318D01*
Y65787D02*
X-287500Y65665D01*
X-259535Y-73063D02*
Y-28378D01*
X-275284Y-73063D02*
X-259535D01*
X-278827Y-28378D02*
X-259535D01*
X-145961Y41130D02*
X-116039D01*
X-145961Y-30130D02*
X-116039D01*
X-145961D02*
Y41130D01*
X-116039Y-30130D02*
Y41130D01*
X-226898Y56197D02*
Y68402D01*
X-239102Y56197D02*
Y68402D01*
Y56197D02*
X-226898D01*
X-239102Y68402D02*
X-226898D01*
X-193567Y-14236D02*
Y6236D01*
X-214433Y-14236D02*
Y6236D01*
X-193567D01*
X-214433Y-14236D02*
X-193567D01*
X-254748Y7480D02*
X-243252D01*
X-254748Y2362D02*
X-243252D01*
Y7480D01*
X-254748Y2362D02*
Y7480D01*
X-243252D01*
X-254748Y2362D02*
X-243252D01*
Y7480D01*
X-254748Y2362D02*
Y7480D01*
Y2362D02*
Y7480D01*
X-243252Y2362D02*
Y7480D01*
X-254748Y2362D02*
X-243252D01*
X-254748Y7480D02*
X-243252D01*
X-254748Y-16559D02*
X-243252D01*
X-254748Y-11441D02*
X-243252D01*
X-254748Y-16559D02*
Y-11441D01*
X-243252Y-16559D02*
Y-11441D01*
X-254748Y-16559D02*
X-243252D01*
X-254748Y-11441D02*
X-243252D01*
X-254748Y-16559D02*
Y-11441D01*
X-243252Y-16559D02*
Y-11441D01*
Y-16559D02*
Y-11441D01*
X-254748Y-16559D02*
Y-11441D01*
X-243252D01*
X-254748Y-16559D02*
X-243252D01*
X-54358Y-64039D02*
Y-43961D01*
X-36642Y-64039D02*
Y-43961D01*
X-54358D02*
X-36642D01*
X-54358Y-64039D02*
X-36642D01*
X-104242Y-57039D02*
Y-36961D01*
X-121958Y-57039D02*
Y-36961D01*
Y-57039D02*
X-104242D01*
X-121958Y-36961D02*
X-104242D01*
X-86274Y35658D02*
X-70526D01*
X-86274Y55343D02*
X-70526D01*
Y35658D02*
Y55343D01*
X-86274Y35658D02*
Y55343D01*
X-153034Y-80359D02*
X-144766D01*
X-153034Y-75241D02*
X-144766D01*
Y-80359D02*
Y-75241D01*
X-153034Y-80359D02*
Y-75241D01*
X-310886Y-27634D02*
X-309311Y-26059D01*
X-310886Y8587D02*
X-309311Y10161D01*
X-310098Y1500D02*
Y9374D01*
Y-26847D02*
Y-18972D01*
X-290807D02*
X-267972D01*
X-290807Y-23106D02*
Y-18972D01*
X-295532Y-23106D02*
X-290807D01*
X-295532D02*
Y-18972D01*
X-310098D02*
X-295532D01*
X-310098Y1500D02*
X-284902D01*
Y5634D01*
X-280177D01*
Y1500D02*
Y5634D01*
Y1500D02*
X-267972D01*
Y-18972D02*
Y1500D01*
X-170936Y-61033D02*
X-150464D01*
X-170936Y-40167D02*
X-150464D01*
Y-61033D02*
Y-40167D01*
X-170936Y-61033D02*
Y-40167D01*
X-91059Y-27559D02*
X-35941D01*
X-91059Y27559D02*
X-35941D01*
Y-27559D02*
Y27559D01*
X-91059Y-27559D02*
Y27559D01*
X0Y-85630D02*
X984D01*
X1969Y-84646D01*
Y0D01*
Y84646D01*
X984Y85630D02*
X1969Y84646D01*
X0Y85630D02*
X984D01*
X0Y-91339D02*
X10827D01*
X11024D01*
X11811Y-90551D01*
Y-87402D01*
Y87402D02*
X11811Y87402D01*
X11811Y87402D02*
Y90551D01*
X11024Y91339D02*
X11811Y90551D01*
X10827Y91339D02*
X11024D01*
X0D02*
X10827D01*
X23622Y-87402D02*
Y87402D01*
X0Y-87402D02*
X23622D01*
X0Y87402D02*
X23622D01*
X0Y-91339D02*
Y91339D01*
X21850Y-87402D02*
Y87402D01*
X10827Y-91240D02*
Y-87598D01*
Y-91240D02*
X10925Y-91339D01*
X10827Y87402D02*
Y91339D01*
X-14764Y0D02*
X25591D01*
X-131000Y3531D02*
Y7468D01*
X-132968Y5500D02*
X-129032D01*
X-234968Y62300D02*
X-231031D01*
X-233000Y60331D02*
Y64268D01*
X-205968Y-4000D02*
X-202031D01*
X-204000Y-5968D02*
Y-2032D01*
X-47469Y-54000D02*
X-43532D01*
X-45500Y-55968D02*
Y-52031D01*
X-115068Y-47000D02*
X-111132D01*
X-113100Y-48968D02*
Y-45031D01*
X-78400Y43532D02*
Y47469D01*
X-80369Y45500D02*
X-76432D01*
X-148900Y-79769D02*
Y-75832D01*
X-150868Y-77800D02*
X-146932D01*
X-310098Y-10311D02*
Y-7161D01*
X-311673Y-8736D02*
X-308524D01*
X-160700Y-52569D02*
Y-48632D01*
X-162669Y-50600D02*
X-158731D01*
X-63500Y-1969D02*
Y1969D01*
X-65469Y0D02*
X-61532D01*
D19*
X-68899Y-33350D02*
X-66931Y-33350D01*
X-64962Y-33350D02*
X-63387D01*
X-61813D02*
X-60238D01*
X-58269D02*
X-56300Y-33350D01*
X-58269Y-39650D02*
X-56300Y-39649D01*
X-61813Y-39650D02*
X-60238D01*
X-64962Y-39650D02*
X-63387D01*
X-68899Y-39649D02*
X-66931Y-39650D01*
Y-33350D01*
X-64962Y-39650D02*
Y-33350D01*
X-63387Y-39650D02*
Y-33350D01*
X-61813Y-39650D02*
X-61813Y-33350D01*
X-60238D02*
X-60238Y-39650D01*
X-58269Y-39650D02*
Y-33350D01*
X-68899Y-39649D02*
Y-33350D01*
X-56300Y-39649D02*
Y-33350D01*
X-87799D02*
X-85831Y-33350D01*
X-83862Y-33350D02*
X-82287D01*
X-80713Y-33350D02*
X-79138D01*
X-77169Y-33350D02*
X-75200Y-33350D01*
X-77169Y-39650D02*
X-75200Y-39649D01*
X-80713Y-39650D02*
X-79138D01*
X-83862D02*
X-82287Y-39650D01*
X-87799Y-39649D02*
X-85831Y-39650D01*
Y-33350D01*
X-83862Y-33350D02*
X-83862Y-39650D01*
X-82287Y-39650D02*
Y-33350D01*
X-80713Y-39650D02*
Y-33350D01*
X-79138Y-39650D02*
Y-33350D01*
X-77169Y-39650D02*
Y-33350D01*
X-87799Y-39649D02*
Y-33350D01*
X-75200Y-39649D02*
Y-33350D01*
X-154327Y42114D02*
X-107673D01*
X-154327Y-31114D02*
X-107673D01*
X-154327D02*
Y42114D01*
X-107673Y-31114D02*
Y42114D01*
X-219024Y54229D02*
Y70370D01*
X-246976Y54229D02*
Y70370D01*
Y54229D02*
X-219024D01*
X-246976Y70370D02*
X-219024D01*
X-192583Y-20339D02*
Y12339D01*
X-215417Y-20339D02*
Y12339D01*
X-192583D01*
X-215417Y-20339D02*
X-192583D01*
X-60854Y-65024D02*
Y-42976D01*
X-30146Y-65024D02*
Y-42976D01*
X-60854D02*
X-30146D01*
X-60854Y-65024D02*
X-30146D01*
X-97746Y-58024D02*
Y-35976D01*
X-128454Y-58024D02*
Y-35976D01*
Y-58024D02*
X-97746D01*
X-128454Y-35976D02*
X-97746D01*
X-94739Y33689D02*
X-62061D01*
X-94739Y57311D02*
X-62061D01*
Y33689D02*
Y57311D01*
X-94739Y33689D02*
Y57311D01*
X-155593Y-81540D02*
X-142207D01*
X-155593Y-74060D02*
X-142207D01*
Y-81540D02*
Y-74060D01*
X-155593Y-81540D02*
Y-74060D01*
X-177039Y-62017D02*
X-144361D01*
X-177039Y-39183D02*
X-144361D01*
Y-62017D02*
Y-39183D01*
X-177039Y-62017D02*
Y-39183D01*
X-97654Y-34154D02*
X-29346D01*
X-97654Y34154D02*
X-29346D01*
Y-34154D02*
Y34154D01*
X-97654Y-34154D02*
Y34154D01*
D20*
X18185Y125000D02*
X24185Y127000D01*
X18185Y129000D02*
X24185Y127000D01*
X-312823D02*
X-306823Y129000D01*
X-312823Y127000D02*
X-306823Y125000D01*
X-130823Y127000D02*
X24185D01*
X-312823D02*
X-161014D01*
X24185Y107595D02*
Y128000D01*
X-312823Y107595D02*
Y128000D01*
X-159415Y128399D02*
X-158415Y129399D01*
X-156415D01*
X-155416Y128399D01*
Y127400D01*
X-156415Y126400D01*
X-155416Y125400D01*
Y124401D01*
X-156415Y123401D01*
X-158415D01*
X-159415Y124401D01*
Y125400D01*
X-158415Y126400D01*
X-159415Y127400D01*
Y128399D01*
X-158415Y126400D02*
X-156415D01*
X-149418Y129399D02*
X-153417D01*
Y126400D01*
X-151417Y127400D01*
X-150417D01*
X-149418Y126400D01*
Y124401D01*
X-150417Y123401D01*
X-152417D01*
X-153417Y124401D01*
X-147418Y123401D02*
Y124401D01*
X-146419D01*
Y123401D01*
X-147418D01*
X-138421Y129399D02*
X-140421Y128399D01*
X-142420Y126400D01*
Y124401D01*
X-141420Y123401D01*
X-139421D01*
X-138421Y124401D01*
Y125400D01*
X-139421Y126400D01*
X-142420D01*
X-136422Y128399D02*
X-135422Y129399D01*
X-133423D01*
X-132423Y128399D01*
Y124401D01*
X-133423Y123401D01*
X-135422D01*
X-136422Y124401D01*
Y128399D01*
D43*
X-227031Y42000D02*
D03*
X-220969D02*
D03*
X-220969Y49500D02*
D03*
X-227031D02*
D03*
X-242531Y73575D02*
D03*
X-236468D02*
D03*
X-229031D02*
D03*
X-222968D02*
D03*
X-240531Y49500D02*
D03*
X-234469D02*
D03*
X-234469Y42000D02*
D03*
X-240531D02*
D03*
X-247468Y17000D02*
D03*
X-253532D02*
D03*
X-197468Y17500D02*
D03*
X-203532D02*
D03*
X-203532Y25500D02*
D03*
X-197468D02*
D03*
X-198468Y-26000D02*
D03*
X-204532D02*
D03*
X-204532Y-34000D02*
D03*
X-198468D02*
D03*
X-208469Y-52000D02*
D03*
X-214531D02*
D03*
X-228532D02*
D03*
X-222468D02*
D03*
X-236469D02*
D03*
X-242531D02*
D03*
X-208469Y-61000D02*
D03*
X-214531D02*
D03*
X-222468D02*
D03*
X-228532D02*
D03*
X-236469D02*
D03*
X-242531D02*
D03*
X-63569Y-17800D02*
D03*
X-69631D02*
D03*
X-53469Y-71000D02*
D03*
X-59531D02*
D03*
X-72484Y-69500D02*
D03*
X-66421D02*
D03*
X-95969Y-62000D02*
D03*
X-102032D02*
D03*
X-117032D02*
D03*
X-110968D02*
D03*
X-93968Y-71000D02*
D03*
X-100031D02*
D03*
X-171531Y-80000D02*
D03*
X-165469D02*
D03*
X-179469D02*
D03*
X-185531D02*
D03*
D44*
X-248000Y43532D02*
D03*
Y37468D02*
D03*
Y30531D02*
D03*
Y24468D02*
D03*
X-249500Y65831D02*
D03*
Y59768D02*
D03*
X-213000Y48531D02*
D03*
Y42469D02*
D03*
X-255500Y43532D02*
D03*
Y37468D02*
D03*
Y30531D02*
D03*
Y24468D02*
D03*
X-188000Y6032D02*
D03*
Y-32D02*
D03*
Y20031D02*
D03*
Y13969D02*
D03*
X-221000Y969D02*
D03*
Y7032D02*
D03*
X-229000Y969D02*
D03*
Y7032D02*
D03*
X-237000Y969D02*
D03*
Y7032D02*
D03*
X-221000Y-12468D02*
D03*
Y-18531D02*
D03*
X-229000Y-12468D02*
D03*
Y-18531D02*
D03*
X-237000Y-12468D02*
D03*
Y-18531D02*
D03*
X-190500Y-15032D02*
D03*
Y-8969D02*
D03*
X-183000Y-30531D02*
D03*
Y-24468D02*
D03*
X-191000Y-30563D02*
D03*
Y-24500D02*
D03*
X-249500Y-34532D02*
D03*
Y-28468D02*
D03*
X-164000Y8531D02*
D03*
Y2468D02*
D03*
X-100500Y44969D02*
D03*
Y51032D02*
D03*
X-24500Y35969D02*
D03*
Y42031D02*
D03*
X-65000Y17968D02*
D03*
Y24032D02*
D03*
X-79200Y23132D02*
D03*
Y17068D02*
D03*
X-83600Y2468D02*
D03*
Y8531D02*
D03*
X-41900Y-7332D02*
D03*
Y-1268D02*
D03*
X-131600Y-52232D02*
D03*
Y-46169D02*
D03*
X-84000Y-63032D02*
D03*
X-84000Y-56968D02*
D03*
D45*
X-259500Y74000D02*
D03*
X-258500Y51500D02*
D03*
D46*
X-257567Y-36252D02*
D03*
Y-44126D02*
D03*
Y-52000D02*
D03*
Y-59874D02*
D03*
Y-67748D02*
D03*
D47*
X-302842Y-76016D02*
D03*
Y-27984D02*
D03*
D48*
X-149701Y38000D02*
D03*
Y33000D02*
D03*
Y28000D02*
D03*
Y23000D02*
D03*
Y18000D02*
D03*
Y13000D02*
D03*
Y8000D02*
D03*
Y3000D02*
D03*
Y-2000D02*
D03*
Y-7000D02*
D03*
Y-12000D02*
D03*
Y-17000D02*
D03*
Y-22000D02*
D03*
Y-27000D02*
D03*
X-112299Y38000D02*
D03*
Y33000D02*
D03*
Y28000D02*
D03*
Y23000D02*
D03*
Y18000D02*
D03*
Y13000D02*
D03*
Y8000D02*
D03*
Y3000D02*
D03*
Y-2000D02*
D03*
Y-7000D02*
D03*
Y-12000D02*
D03*
Y-17000D02*
D03*
Y-22000D02*
D03*
Y-27000D02*
D03*
D49*
X-223945Y58461D02*
D03*
Y61020D02*
D03*
Y63579D02*
D03*
Y66138D02*
D03*
X-242055Y58461D02*
D03*
Y61020D02*
D03*
Y63579D02*
D03*
Y66138D02*
D03*
D50*
X-238787Y29500D02*
D03*
Y21500D02*
D03*
X-213213Y-40000D02*
D03*
Y-32000D02*
D03*
D51*
X-196500Y8795D02*
D03*
X-201500D02*
D03*
X-206500D02*
D03*
X-211500D02*
D03*
X-196500Y-16795D02*
D03*
X-201500D02*
D03*
X-206500D02*
D03*
X-211500D02*
D03*
D52*
X-245260Y9843D02*
D03*
X-252740D02*
D03*
X-249000Y0D02*
D03*
X-252740Y-18921D02*
D03*
X-245260D02*
D03*
X-249000Y-9079D02*
D03*
D53*
X-128842Y67000D02*
D03*
X-139157D02*
D03*
X-110343Y-71000D02*
D03*
X-120658D02*
D03*
X-151957Y-68900D02*
D03*
X-141642D02*
D03*
X-173143D02*
D03*
X-183458D02*
D03*
D54*
X-57285Y-33468D02*
D03*
Y-39531D02*
D03*
X-67915Y-33468D02*
D03*
Y-39531D02*
D03*
X-76185Y-33468D02*
D03*
X-76185Y-39531D02*
D03*
X-86815Y-33468D02*
D03*
Y-39531D02*
D03*
D55*
X-61025Y-33468D02*
D03*
X-61025Y-39531D02*
D03*
X-64175Y-33468D02*
D03*
Y-39531D02*
D03*
X-79925Y-33468D02*
D03*
Y-39531D02*
D03*
X-83075Y-33468D02*
D03*
X-83075Y-39531D02*
D03*
D56*
X-57114Y-46323D02*
D03*
Y-48882D02*
D03*
Y-51441D02*
D03*
Y-54000D02*
D03*
Y-56559D02*
D03*
Y-59118D02*
D03*
Y-61677D02*
D03*
X-33886Y-46323D02*
D03*
Y-48882D02*
D03*
Y-51441D02*
D03*
Y-54000D02*
D03*
Y-56559D02*
D03*
Y-59118D02*
D03*
Y-61677D02*
D03*
X-101486Y-54677D02*
D03*
Y-52118D02*
D03*
Y-49559D02*
D03*
Y-47000D02*
D03*
Y-44441D02*
D03*
Y-41882D02*
D03*
Y-39323D02*
D03*
X-124714Y-54677D02*
D03*
Y-52118D02*
D03*
Y-49559D02*
D03*
Y-47000D02*
D03*
Y-44441D02*
D03*
Y-41882D02*
D03*
Y-39323D02*
D03*
D57*
X-76150Y-53269D02*
D03*
X-69850Y-61931D02*
D03*
X-76150D02*
D03*
X-69850Y-53269D02*
D03*
D58*
X-184000Y-46843D02*
D03*
Y-57157D02*
D03*
D59*
X-67278Y38000D02*
D03*
Y43000D02*
D03*
Y48000D02*
D03*
Y53000D02*
D03*
X-89522Y38000D02*
D03*
Y43000D02*
D03*
Y48000D02*
D03*
Y53000D02*
D03*
D60*
X-145199Y-77800D02*
D03*
X-152601D02*
D03*
D61*
X-271122Y4650D02*
D03*
X-291988D02*
D03*
X-302815D02*
D03*
Y-22122D02*
D03*
X-282933D02*
D03*
X-271122D02*
D03*
D62*
X-147905Y-58100D02*
D03*
Y-53100D02*
D03*
Y-48100D02*
D03*
Y-43100D02*
D03*
X-173495Y-58100D02*
D03*
Y-53100D02*
D03*
Y-48100D02*
D03*
Y-43100D02*
D03*
D63*
X-24496Y-78500D02*
D03*
X-31504D02*
D03*
D64*
X-7874Y-83740D02*
D03*
Y83740D02*
D03*
Y81240D02*
D03*
Y78740D02*
D03*
Y76240D02*
D03*
Y73740D02*
D03*
Y71240D02*
D03*
Y68740D02*
D03*
Y66240D02*
D03*
Y63740D02*
D03*
Y61240D02*
D03*
Y58740D02*
D03*
Y56240D02*
D03*
Y53740D02*
D03*
Y51240D02*
D03*
Y48740D02*
D03*
Y46240D02*
D03*
Y43740D02*
D03*
Y41240D02*
D03*
Y38740D02*
D03*
Y36240D02*
D03*
Y33740D02*
D03*
Y31240D02*
D03*
Y28740D02*
D03*
Y26240D02*
D03*
Y23740D02*
D03*
Y21240D02*
D03*
Y18740D02*
D03*
Y16240D02*
D03*
Y13740D02*
D03*
Y11240D02*
D03*
Y8740D02*
D03*
Y6240D02*
D03*
Y-81260D02*
D03*
Y3740D02*
D03*
Y1240D02*
D03*
Y-1260D02*
D03*
Y-3760D02*
D03*
Y-6260D02*
D03*
Y-8760D02*
D03*
Y-11260D02*
D03*
Y-13760D02*
D03*
Y-16260D02*
D03*
Y-18760D02*
D03*
Y-21260D02*
D03*
Y-23760D02*
D03*
Y-26260D02*
D03*
Y-28760D02*
D03*
Y-31260D02*
D03*
Y-33760D02*
D03*
Y-36260D02*
D03*
Y-38760D02*
D03*
Y-41260D02*
D03*
Y-43760D02*
D03*
Y-46260D02*
D03*
Y-48760D02*
D03*
Y-51260D02*
D03*
Y-53760D02*
D03*
Y-56260D02*
D03*
Y-58760D02*
D03*
Y-61260D02*
D03*
Y-63760D02*
D03*
Y-66260D02*
D03*
Y-68760D02*
D03*
Y-71260D02*
D03*
Y-76260D02*
D03*
Y-73760D02*
D03*
Y-78760D02*
D03*
D65*
X-276000Y74500D02*
D03*
X-278433Y-52000D02*
D03*
X-307567D02*
D03*
X-78740Y-85433D02*
D03*
D66*
X-279500Y-85500D02*
D03*
Y-92500D02*
D03*
X-244500Y-85500D02*
D03*
Y-92500D02*
D03*
X-279500Y85500D02*
D03*
Y92500D02*
D03*
X-53260Y90500D02*
D03*
X-29000D02*
D03*
X-41000Y87000D02*
D03*
Y94000D02*
D03*
Y-94000D02*
D03*
Y-87000D02*
D03*
X-29000Y-90500D02*
D03*
X-53260D02*
D03*
X-262000Y-82000D02*
D03*
Y-89000D02*
D03*
X-244500Y92500D02*
D03*
X-262000Y89000D02*
D03*
Y82000D02*
D03*
X-244500Y85500D02*
D03*
D67*
X-28400Y21654D02*
D03*
X-235500Y65500D02*
D03*
X-250500Y33500D02*
D03*
X-258500D02*
D03*
X-113500Y49000D02*
D03*
X-255000Y-31000D02*
D03*
X-253000Y-76500D02*
D03*
X-256000D02*
D03*
X-34500Y-25000D02*
D03*
X-143000Y48000D02*
D03*
X-136000Y1500D02*
D03*
X-146000Y8500D02*
D03*
X-146100Y13200D02*
D03*
Y18300D02*
D03*
X-146400Y23500D02*
D03*
X-146200Y27900D02*
D03*
X-146000Y33000D02*
D03*
X-75500Y-58500D02*
D03*
X-15100Y-25300D02*
D03*
X-13500Y-31260D02*
D03*
X-17000Y-33760D02*
D03*
X-15100Y-28100D02*
D03*
X-17000Y61240D02*
D03*
X-79263Y-25400D02*
D03*
X-17000Y81240D02*
D03*
X-13500Y83740D02*
D03*
Y-81260D02*
D03*
X-17000Y-83740D02*
D03*
Y71240D02*
D03*
X-13500Y78740D02*
D03*
Y73740D02*
D03*
Y68740D02*
D03*
X-17000Y56240D02*
D03*
X-77500Y26500D02*
D03*
X-99000Y13000D02*
D03*
X-99500Y15500D02*
D03*
Y18500D02*
D03*
Y21000D02*
D03*
X-88500Y-21000D02*
D03*
X-88400Y-17600D02*
D03*
X-83200Y-25400D02*
D03*
X-90000Y-23500D02*
D03*
X-61500Y-55000D02*
D03*
X-80900Y-50800D02*
D03*
X-37500Y-59000D02*
D03*
X-42500Y-48000D02*
D03*
X-51400Y-66300D02*
D03*
X-52500Y-62000D02*
D03*
X-67500Y23500D02*
D03*
X-50800Y-47500D02*
D03*
X-260500Y10500D02*
D03*
X-87500Y27000D02*
D03*
X-73300Y25100D02*
D03*
X-47400Y-35200D02*
D03*
X-59589Y-26796D02*
D03*
X-61546Y-25400D02*
D03*
X-70500Y-24300D02*
D03*
X-73357Y-25400D02*
D03*
X-85600Y38000D02*
D03*
Y52800D02*
D03*
Y43100D02*
D03*
Y47900D02*
D03*
X-29000Y0D02*
D03*
X-17000Y-78760D02*
D03*
X-13500Y-76260D02*
D03*
X-17000Y-73760D02*
D03*
X-13500Y-71260D02*
D03*
X-17000Y-68760D02*
D03*
X-13500Y-66260D02*
D03*
X-17000Y-63760D02*
D03*
X-13500Y-61260D02*
D03*
X-17000Y-58760D02*
D03*
X-13500Y-56260D02*
D03*
Y-51260D02*
D03*
X-17000Y-48760D02*
D03*
X-13500Y-46260D02*
D03*
X-17000Y-43760D02*
D03*
X-13500Y-41260D02*
D03*
X-17000Y-38760D02*
D03*
X-13500Y-36260D02*
D03*
Y-21260D02*
D03*
Y8740D02*
D03*
Y13740D02*
D03*
Y28740D02*
D03*
X-17000Y31240D02*
D03*
X-13500Y33740D02*
D03*
X-17000Y36240D02*
D03*
X-13500Y43740D02*
D03*
X-17000Y46240D02*
D03*
X-13500Y48740D02*
D03*
X-17000Y51240D02*
D03*
X-13500Y53740D02*
D03*
Y58740D02*
D03*
Y63740D02*
D03*
X-17000Y66240D02*
D03*
Y76240D02*
D03*
D68*
X-181000Y-67500D02*
D03*
X-249000Y50500D02*
D03*
X-209890Y42000D02*
D03*
X-218000D02*
D03*
X-252000Y24000D02*
D03*
X-252720Y59599D02*
D03*
X-252610Y65821D02*
D03*
X-261000Y-5500D02*
D03*
X-143000Y70000D02*
D03*
Y64500D02*
D03*
X-184890Y-500D02*
D03*
X-207000Y-9000D02*
D03*
X-201500D02*
D03*
X-193610Y-16468D02*
D03*
X-183000Y-33543D02*
D03*
X-261500Y-36500D02*
D03*
X-260500Y3000D02*
D03*
X-161500Y25500D02*
D03*
X-161000Y15500D02*
D03*
X-5000Y-82500D02*
D03*
Y82500D02*
D03*
X-178500Y-53500D02*
D03*
X-125000Y-80500D02*
D03*
Y-74000D02*
D03*
Y-68000D02*
D03*
X-121500Y0D02*
D03*
X-128500Y-9500D02*
D03*
Y-17000D02*
D03*
X-135000Y-12500D02*
D03*
X-142000Y-21000D02*
D03*
X-143000Y1500D02*
D03*
X-160000Y33000D02*
D03*
X-34100Y-29700D02*
D03*
X-48100Y21200D02*
D03*
X-53700Y18100D02*
D03*
X-62500Y-46600D02*
D03*
X-86700Y15400D02*
D03*
Y21500D02*
D03*
X-79200Y13000D02*
D03*
X-81200Y600D02*
D03*
X-219500Y9900D02*
D03*
X-220400Y-21400D02*
D03*
X-37000Y39000D02*
D03*
X-32500Y74000D02*
D03*
X-39000D02*
D03*
X-35500Y78000D02*
D03*
X-29500D02*
D03*
X-39000Y82000D02*
D03*
X-32500D02*
D03*
X-26500D02*
D03*
X-16000Y20500D02*
D03*
X-22500Y2500D02*
D03*
X-18500Y6500D02*
D03*
X-53500Y25000D02*
D03*
X-75500Y44000D02*
D03*
X-72000Y40000D02*
D03*
X-54000Y0D02*
D03*
Y7500D02*
D03*
X-37500Y-74000D02*
D03*
X-95000Y29000D02*
D03*
X-60000Y45000D02*
D03*
X-123000Y-61000D02*
D03*
X-119000Y-58000D02*
D03*
X-78500Y-65500D02*
D03*
X-82500D02*
D03*
X-62000Y-80500D02*
D03*
X-56000D02*
D03*
X-49500D02*
D03*
X-109500Y40500D02*
D03*
X-83500Y-15500D02*
D03*
X-87500Y-4500D02*
D03*
X-107000Y-48000D02*
D03*
X-111000Y-59000D02*
D03*
X-128000Y-35000D02*
D03*
X-63000Y-69000D02*
D03*
X-136000Y-35000D02*
D03*
X-137500Y-61000D02*
D03*
X-188000Y-67000D02*
D03*
X-50000Y-71500D02*
D03*
X-105000Y-62000D02*
D03*
X-41500Y-70000D02*
D03*
X-33000Y30000D02*
D03*
X-61500Y18000D02*
D03*
X-42000Y2000D02*
D03*
Y-10500D02*
D03*
X-60500Y-18000D02*
D03*
X-72500Y-17500D02*
D03*
X-131500Y-55000D02*
D03*
X-137000Y-68500D02*
D03*
X-158500Y-80500D02*
D03*
Y-75500D02*
D03*
X-160500Y-69500D02*
D03*
X-165500D02*
D03*
X-118500Y-49500D02*
D03*
X-252500Y6500D02*
D03*
X-258500Y-25000D02*
D03*
X-205500Y-61000D02*
D03*
Y-52000D02*
D03*
X-245500D02*
D03*
Y-61000D02*
D03*
X-187000Y-54000D02*
D03*
X-85100Y10000D02*
D03*
X-72400Y-10400D02*
D03*
X-63400Y7541D02*
D03*
X-63559Y-10500D02*
D03*
X-72500Y-1400D02*
D03*
D69*
X-101000Y-26000D02*
D03*
X-70000Y-46500D02*
D03*
X-85500Y-53500D02*
D03*
X-72300Y-37400D02*
D03*
M02*
