G04*
G04 #@! TF.GenerationSoftware,Altium Limited,Altium Designer,18.0.7 (293)*
G04*
G04 Layer_Color=32768*
%FSLAX25Y25*%
%MOIN*%
G70*
G01*
G75*
%ADD14C,0.00591*%
%ADD15C,0.00591*%
%ADD16C,0.00800*%
%ADD18C,0.00394*%
%ADD19C,0.00197*%
%ADD20C,0.00600*%
D14*
X-125758Y-52000D02*
X-133632D01*
X-129695Y-55937D02*
Y-48063D01*
X-109872Y94500D02*
X-109883Y94488D01*
X-109872Y-0D02*
X-446880D01*
X-109872Y106299D02*
X-446092Y-106299D01*
X-109872D02*
X-446092Y106299D01*
X-109872D02*
X-446880D01*
Y-106299D02*
Y106299D01*
X-109872Y-106299D02*
Y106299D01*
Y-106299D02*
X-446880D01*
X-125758Y-52000D02*
X-133632D01*
X-129695Y-55937D02*
Y-48063D01*
D15*
X-204194Y-45000D02*
Y-27000D01*
X-180195Y-27000D02*
X-204195D01*
X-180195Y-45000D02*
Y-27000D01*
X-180195Y-45000D02*
X-204194D01*
X-189195Y34500D02*
X-189195Y34500D01*
X-213195D01*
X-213194Y34500D02*
X-213195Y34500D01*
X-213194Y16500D02*
Y34500D01*
X-189195Y16500D02*
X-213194D01*
X-189195D02*
X-189195Y16500D01*
Y34500D01*
D16*
X-304443Y65031D02*
Y68968D01*
X-302474Y67000D02*
X-306411D01*
X-276884Y65031D02*
Y68968D01*
X-322943Y-72969D02*
Y-69032D01*
X-320974Y-71000D02*
X-324911D01*
X-295384Y-72969D02*
Y-69032D01*
X-236726Y-36252D02*
X-240663D01*
X-238695Y-38221D02*
Y-34284D01*
X-236726Y-63811D02*
X-240663D01*
X-260146Y-70868D02*
Y-66931D01*
X-258178Y-68900D02*
X-262115D01*
X-287706Y-70868D02*
Y-66931D01*
X-260143Y-70868D02*
Y-66931D01*
X-258174Y-68900D02*
X-262111D01*
X-232583Y-70868D02*
Y-66931D01*
X-132431Y-74822D02*
X-130431D01*
X-129432Y-73822D01*
X-130431Y-72823D01*
X-132431D01*
X-130931D01*
Y-74822D01*
X-129432Y-71823D02*
X-132431D01*
Y-69824D01*
Y-68824D02*
X-129432D01*
Y-67325D01*
X-129932Y-66825D01*
X-130931D01*
X-131431Y-67325D01*
Y-68824D01*
X-129932Y-63826D02*
X-129432Y-64325D01*
Y-65325D01*
X-129932Y-65825D01*
X-130431D01*
X-130931Y-65325D01*
Y-64325D01*
X-131431Y-63826D01*
X-131931D01*
X-132431Y-64325D01*
Y-65325D01*
X-131931Y-65825D01*
X-137950Y-74822D02*
X-134951D01*
Y-73322D01*
X-135450Y-72823D01*
X-136450D01*
X-136950Y-73322D01*
Y-74822D01*
Y-73822D02*
X-137950Y-72823D01*
X-134951Y-71823D02*
X-137950D01*
X-136950D01*
X-134951Y-69824D01*
X-136450Y-71323D01*
X-137950Y-69824D01*
Y-68824D02*
Y-67824D01*
Y-68324D01*
X-134951D01*
X-135450Y-68824D01*
Y-66325D02*
X-134951Y-65825D01*
Y-64825D01*
X-135450Y-64325D01*
X-137450D01*
X-137950Y-64825D01*
Y-65825D01*
X-137450Y-66325D01*
X-135450D01*
X-134951Y-61326D02*
Y-62326D01*
Y-61826D01*
X-137450D01*
X-137950Y-62326D01*
Y-62826D01*
X-137450Y-63326D01*
X-137950Y-60327D02*
Y-59327D01*
Y-59827D01*
X-134951D01*
X-135450Y-60327D01*
X-137950Y-55828D02*
Y-57828D01*
X-135950Y-55828D01*
X-135450D01*
X-134951Y-56328D01*
Y-57328D01*
X-135450Y-57828D01*
X-137950Y-54829D02*
X-134951D01*
Y-53329D01*
X-135450Y-52829D01*
X-136450D01*
X-136950Y-53329D01*
Y-54829D01*
Y-53829D02*
X-137950Y-52829D01*
X-304443Y65031D02*
Y68968D01*
X-302474Y67000D02*
X-306411D01*
X-276884Y65031D02*
Y68968D01*
X-322943Y-72969D02*
Y-69032D01*
X-320974Y-71000D02*
X-324911D01*
X-295384Y-72969D02*
Y-69032D01*
X-236726Y-36252D02*
X-240663D01*
X-238695Y-38221D02*
Y-34284D01*
X-236726Y-63811D02*
X-240663D01*
X-260146Y-70868D02*
Y-66931D01*
X-258178Y-68900D02*
X-262115D01*
X-287706Y-70868D02*
Y-66931D01*
X-260143Y-70868D02*
Y-66931D01*
X-258174Y-68900D02*
X-262111D01*
X-232583Y-70868D02*
Y-66931D01*
D18*
X-291695Y3531D02*
Y7468D01*
X-289726Y5500D02*
X-293663D01*
X-187726Y62300D02*
X-191663D01*
X-189695Y60331D02*
Y64268D01*
X-216726Y-4000D02*
X-220663D01*
X-218695Y-5968D02*
Y-2032D01*
X-375226Y-54000D02*
X-379163D01*
X-377195Y-55968D02*
Y-52031D01*
X-307626Y-47000D02*
X-311563D01*
X-309595Y-48968D02*
Y-45031D01*
X-344295Y43532D02*
Y47469D01*
X-342326Y45500D02*
X-346263D01*
X-273795Y-79769D02*
Y-75832D01*
X-271826Y-77800D02*
X-275763D01*
X-112596Y-10311D02*
Y-7161D01*
X-111021Y-8736D02*
X-114171D01*
X-261995Y-52569D02*
Y-48632D01*
X-260026Y-50600D02*
X-263963D01*
X-359195Y-1969D02*
Y1969D01*
X-357226Y0D02*
X-361163D01*
X-336080Y-85827D02*
G03*
X-351828Y-85827I-7874J0D01*
G01*
X-115017Y61823D02*
X-118695Y65500D01*
X-109695Y61823D02*
X-115017D01*
X-109695D02*
Y81201D01*
X-118695Y65500D02*
X-158695D01*
Y14000D02*
Y65500D01*
X-110695Y14000D02*
X-158695D01*
X-109695Y13000D02*
X-110695Y14000D01*
X-109695Y-862D02*
Y13000D01*
X-130994Y-81201D02*
X-131195Y-81402D01*
Y-96457D02*
Y-81402D01*
X-112596Y-18972D02*
Y-16610D01*
X-109695D02*
X-112596D01*
Y-18972D02*
X-127163D01*
X-109695Y-862D02*
X-112596D01*
Y1500D01*
X-130994Y81201D02*
X-131195Y81402D01*
X-109695Y-40600D02*
Y-16610D01*
X-127163Y-23106D02*
Y-18972D01*
Y-23106D02*
X-131887D01*
Y-18972D01*
X-154722D01*
Y1500D01*
X-142517D02*
X-154722D01*
X-142517D02*
Y5634D01*
X-137793D02*
X-142517D01*
X-137793Y1500D02*
Y5634D01*
X-112596Y1500D02*
X-137793D01*
X-109695Y-81201D02*
Y-40600D01*
X-190250Y96457D02*
X-363151D01*
X-190250Y93000D02*
X-359695D01*
X-190250Y81201D02*
Y93000D01*
X-131195Y96457D02*
X-190250D01*
X-359695Y86614D02*
Y93000D01*
X-363151Y96457D02*
X-403010D01*
X-359695Y-93000D02*
Y-86614D01*
X-131195Y-96457D02*
X-403010D01*
X-190250Y-93000D02*
Y-81201D01*
Y-93000D02*
X-359695D01*
X-403010Y86614D02*
X-422194D01*
X-403010Y-86614D02*
X-422195D01*
X-204195Y-45000D02*
Y-27000D01*
X-180195D02*
X-204195D01*
X-180195Y-45000D02*
Y-27000D01*
Y-45000D02*
X-204194D01*
X-189195Y34500D02*
X-189195Y34500D01*
X-213195D01*
Y16500D02*
Y34500D01*
X-213194Y16500D02*
X-213195Y16500D01*
X-189195Y16500D02*
X-213194D01*
X-189195D02*
Y34500D01*
X-359695Y86614D02*
X-359695Y86614D01*
X-351828Y86614D02*
X-359695D01*
X-403010Y86614D02*
Y96457D01*
X-351828Y-86614D02*
X-359695D01*
X-403010Y-96457D02*
Y-86614D01*
X-190250Y81201D02*
X-225450D01*
X-109695D02*
X-130994D01*
X-131195Y81402D02*
Y96457D01*
X-190250Y-81201D02*
X-225450D01*
X-109695D02*
X-130994D01*
X-225450Y81201D02*
Y86614D01*
Y-86614D02*
X-336080D01*
X-351828D02*
Y-85827D01*
X-336080Y-86614D02*
Y-85827D01*
X-225450Y-86614D02*
Y-81201D01*
X-422194Y86614D02*
X-422195Y-86614D01*
X-225450Y86614D02*
X-336080D01*
X-351828Y83858D02*
Y86614D01*
X-336080Y83858D02*
Y86614D01*
Y83858D02*
X-351828D01*
X-157254Y-52000D02*
G03*
X-157254Y-52000I27559J0D01*
G01*
X-131663D02*
G03*
X-131663Y-52000I1969J0D01*
G01*
X-305080Y-26587D02*
G03*
X-305080Y-26587I1969J0D01*
G01*
X-194222Y59741D02*
G03*
X-194222Y59741I1969J0D01*
G01*
X-213773Y-10693D02*
G03*
X-213773Y-10693I1969J0D01*
G01*
X-373848Y-47504D02*
G03*
X-373848Y-47504I1969J0D01*
G01*
X-316878Y-53496D02*
G03*
X-316878Y-53496I1969J0D01*
G01*
X-341932Y51799D02*
G03*
X-341932Y51799I1969J0D01*
G01*
X-257270Y-43710D02*
G03*
X-257270Y-43710I1969J0D01*
G01*
X-385179Y-24016D02*
G03*
X-385179Y-24016I1969J0D01*
G01*
X8805Y0D02*
X-463639Y-0D01*
X-109482Y13500D02*
Y65665D01*
X-158695D01*
Y13500D02*
Y65665D01*
X-109482Y13500D02*
X-158695D01*
X-154759Y65664D02*
Y87318D01*
X-135073D02*
X-154759D01*
X-135073Y65787D02*
Y87318D01*
Y65787D02*
X-135195Y65665D01*
X-163159Y-73063D02*
Y-28378D01*
X-147411Y-73063D02*
X-163159D01*
X-143868Y-28378D02*
X-163159D01*
X-276734Y41130D02*
X-306655D01*
X-276734Y-30130D02*
X-306655D01*
X-276734D02*
Y41130D01*
X-306655Y-30130D02*
Y41130D01*
X-195797Y56197D02*
Y68402D01*
X-183592Y56197D02*
Y68402D01*
Y56197D02*
X-195797D01*
X-183592Y68402D02*
X-195797D01*
X-229128Y-14236D02*
Y6236D01*
X-208261Y-14236D02*
Y6236D01*
X-229128D01*
X-208261Y-14236D02*
X-229128D01*
X-167947Y7480D02*
X-179443D01*
X-167947Y2362D02*
X-179443D01*
Y7480D01*
X-167947Y2362D02*
Y7480D01*
X-179443D01*
X-167947Y2362D02*
X-179443D01*
Y7480D01*
X-167947Y2362D02*
Y7480D01*
Y2362D02*
Y7480D01*
X-179443Y2362D02*
Y7480D01*
X-167947Y2362D02*
X-179443D01*
X-167947Y7480D02*
X-179443D01*
X-167947Y-16559D02*
X-179443D01*
X-167947Y-11441D02*
X-179443D01*
X-167947Y-16559D02*
Y-11441D01*
X-179443Y-16559D02*
Y-11441D01*
X-167947Y-16559D02*
X-179443D01*
X-167947Y-11441D02*
X-179443D01*
X-167947Y-16559D02*
Y-11441D01*
X-179443Y-16559D02*
Y-11441D01*
Y-16559D02*
Y-11441D01*
X-167947Y-16559D02*
Y-11441D01*
X-179443D01*
X-167947Y-16559D02*
X-179443D01*
X-368336Y-64039D02*
Y-43961D01*
X-386053Y-64039D02*
Y-43961D01*
X-368336D02*
X-386053D01*
X-368336Y-64039D02*
X-386053D01*
X-318453Y-57039D02*
Y-36961D01*
X-300736Y-57039D02*
Y-36961D01*
Y-57039D02*
X-318453D01*
X-300736Y-36961D02*
X-318453D01*
X-336420Y35658D02*
X-352169D01*
X-336420Y55343D02*
X-352169D01*
Y35658D02*
Y55343D01*
X-336420Y35658D02*
Y55343D01*
X-269661Y-80359D02*
X-277928D01*
X-269661Y-75241D02*
X-277928D01*
Y-80359D02*
Y-75241D01*
X-269661Y-80359D02*
Y-75241D01*
X-111809Y-27634D02*
X-113383Y-26059D01*
X-111809Y8587D02*
X-113383Y10161D01*
X-112596Y1500D02*
Y9374D01*
Y-26847D02*
Y-18972D01*
X-131887D02*
X-154722D01*
X-131887Y-23106D02*
Y-18972D01*
X-127163Y-23106D02*
X-131887D01*
X-127163D02*
Y-18972D01*
X-112596D02*
X-127163D01*
X-112596Y1500D02*
X-137793D01*
Y5634D01*
X-142517D01*
Y1500D02*
Y5634D01*
Y1500D02*
X-154722D01*
Y-18972D02*
Y1500D01*
X-251758Y-61033D02*
X-272231D01*
X-251758Y-40167D02*
X-272231D01*
Y-61033D02*
Y-40167D01*
X-251758Y-61033D02*
Y-40167D01*
X-331635Y-27559D02*
X-386754D01*
X-331635Y27559D02*
X-386754D01*
Y-27559D02*
Y27559D01*
X-331635Y-27559D02*
Y27559D01*
X-422695Y-85630D02*
X-423679D01*
X-424663Y-84646D01*
Y0D01*
Y84646D01*
X-423679Y85630D02*
X-424663Y84646D01*
X-422695Y85630D02*
X-423679D01*
X-422695Y-91339D02*
X-433521D01*
X-433718D01*
X-434506Y-90551D01*
Y-87402D01*
Y87402D02*
X-434506Y87402D01*
X-434506Y87402D02*
Y90551D01*
X-433718Y91339D02*
X-434506Y90551D01*
X-433521Y91339D02*
X-433718D01*
X-422695D02*
X-433521D01*
X-446317Y-87402D02*
Y87402D01*
X-422695Y-87402D02*
X-446317D01*
X-422695Y87402D02*
X-446317D01*
X-422695Y-91339D02*
Y91339D01*
X-444545Y-87402D02*
Y87402D01*
X-433521Y-91240D02*
Y-87598D01*
Y-91240D02*
X-433620Y-91339D01*
X-433521Y87402D02*
Y91339D01*
X-407931Y0D02*
X-448285D01*
X-291695Y3531D02*
Y7468D01*
X-289726Y5500D02*
X-293663D01*
X-187726Y62300D02*
X-191663D01*
X-189695Y60331D02*
Y64268D01*
X-216726Y-4000D02*
X-220663D01*
X-218695Y-5968D02*
Y-2032D01*
X-375226Y-54000D02*
X-379163D01*
X-377195Y-55968D02*
Y-52031D01*
X-307626Y-47000D02*
X-311563D01*
X-309595Y-48968D02*
Y-45031D01*
X-344295Y43532D02*
Y47469D01*
X-342326Y45500D02*
X-346263D01*
X-273795Y-79769D02*
Y-75832D01*
X-271826Y-77800D02*
X-275763D01*
X-112596Y-10311D02*
Y-7161D01*
X-111021Y-8736D02*
X-114171D01*
X-261995Y-52569D02*
Y-48632D01*
X-260026Y-50600D02*
X-263963D01*
X-359195Y-1969D02*
Y1969D01*
X-357226Y0D02*
X-361163D01*
D19*
X-268368Y42114D02*
X-315021D01*
X-268368Y-31114D02*
X-315021D01*
X-268368D02*
Y42114D01*
X-315021Y-31114D02*
Y42114D01*
X-203671Y54229D02*
Y70370D01*
X-175718Y54229D02*
Y70370D01*
Y54229D02*
X-203671D01*
X-175718Y70370D02*
X-203671D01*
X-230112Y-20339D02*
Y12339D01*
X-207277Y-20339D02*
Y12339D01*
X-230112D01*
X-207277Y-20339D02*
X-230112D01*
X-361840Y-65024D02*
Y-42976D01*
X-392549Y-65024D02*
Y-42976D01*
X-361840D02*
X-392549D01*
X-361840Y-65024D02*
X-392549D01*
X-324949Y-58024D02*
Y-35976D01*
X-294240Y-58024D02*
Y-35976D01*
Y-58024D02*
X-324949D01*
X-294240Y-35976D02*
X-324949D01*
X-327956Y33689D02*
X-360633D01*
X-327956Y57311D02*
X-360633D01*
Y33689D02*
Y57311D01*
X-327956Y33689D02*
Y57311D01*
X-267102Y-81540D02*
X-280487D01*
X-267102Y-74060D02*
X-280487D01*
Y-81540D02*
Y-74060D01*
X-267102Y-81540D02*
Y-74060D01*
X-245656Y-62017D02*
X-278333D01*
X-245656Y-39183D02*
X-278333D01*
Y-62017D02*
Y-39183D01*
X-245656Y-62017D02*
Y-39183D01*
X-325041Y-34154D02*
X-393348D01*
X-325041Y34154D02*
X-393348D01*
Y-34154D02*
Y34154D01*
X-325041Y-34154D02*
Y34154D01*
X-353796Y-33350D02*
X-355764Y-33350D01*
X-357732Y-33350D02*
X-359307D01*
X-360882D02*
X-362457D01*
X-364425D02*
X-366394Y-33350D01*
X-364425Y-39650D02*
X-366394Y-39649D01*
X-360882Y-39650D02*
X-362457D01*
X-357732Y-39650D02*
X-359307D01*
X-353796Y-39649D02*
X-355764Y-39650D01*
Y-33350D01*
X-357732Y-39650D02*
Y-33350D01*
X-359307Y-39650D02*
Y-33350D01*
X-360882Y-39650D02*
X-360882Y-33350D01*
X-362457D02*
X-362457Y-39650D01*
X-364425Y-39650D02*
Y-33350D01*
X-353796Y-39649D02*
Y-33350D01*
X-366394Y-39649D02*
Y-33350D01*
X-334896D02*
X-336864Y-33350D01*
X-338832Y-33350D02*
X-340407D01*
X-341982Y-33350D02*
X-343557D01*
X-345525Y-33350D02*
X-347494Y-33350D01*
X-345525Y-39650D02*
X-347494Y-39649D01*
X-341982Y-39650D02*
X-343557D01*
X-338832D02*
X-340407Y-39650D01*
X-334896Y-39649D02*
X-336864Y-39650D01*
Y-33350D01*
X-338832Y-33350D02*
X-338832Y-39650D01*
X-340407Y-39650D02*
Y-33350D01*
X-341982Y-39650D02*
Y-33350D01*
X-343557Y-39650D02*
Y-33350D01*
X-345525Y-39650D02*
Y-33350D01*
X-334896Y-39649D02*
Y-33350D01*
X-347494Y-39649D02*
Y-33350D01*
X-268368Y42114D02*
X-315021D01*
X-268368Y-31114D02*
X-315021D01*
X-268368D02*
Y42114D01*
X-315021Y-31114D02*
Y42114D01*
X-203671Y54229D02*
Y70370D01*
X-175718Y54229D02*
Y70370D01*
Y54229D02*
X-203671D01*
X-175718Y70370D02*
X-203671D01*
X-230112Y-20339D02*
Y12339D01*
X-207277Y-20339D02*
Y12339D01*
X-230112D01*
X-207277Y-20339D02*
X-230112D01*
X-361840Y-65024D02*
Y-42976D01*
X-392549Y-65024D02*
Y-42976D01*
X-361840D02*
X-392549D01*
X-361840Y-65024D02*
X-392549D01*
X-324949Y-58024D02*
Y-35976D01*
X-294240Y-58024D02*
Y-35976D01*
Y-58024D02*
X-324949D01*
X-294240Y-35976D02*
X-324949D01*
X-327956Y33689D02*
X-360633D01*
X-327956Y57311D02*
X-360633D01*
Y33689D02*
Y57311D01*
X-327956Y33689D02*
Y57311D01*
X-267102Y-81540D02*
X-280487D01*
X-267102Y-74060D02*
X-280487D01*
Y-81540D02*
Y-74060D01*
X-267102Y-81540D02*
Y-74060D01*
X-245656Y-62017D02*
X-278333D01*
X-245656Y-39183D02*
X-278333D01*
Y-62017D02*
Y-39183D01*
X-245656Y-62017D02*
Y-39183D01*
X-325041Y-34154D02*
X-393348D01*
X-325041Y34154D02*
X-393348D01*
Y-34154D02*
Y34154D01*
X-325041Y-34154D02*
Y34154D01*
D20*
X-440880Y125000D02*
X-446880Y127000D01*
X-440880Y129000D02*
X-446880Y127000D01*
X-109872D02*
X-115872Y129000D01*
X-109872Y127000D02*
X-115872Y125000D01*
X-291871Y127000D02*
X-446880D01*
X-109872D02*
X-261680D01*
X-446880Y107595D02*
Y128000D01*
X-109872Y107595D02*
Y128000D01*
X-263280Y128399D02*
X-264280Y129399D01*
X-266279D01*
X-267279Y128399D01*
Y127400D01*
X-266279Y126400D01*
X-267279Y125400D01*
Y124401D01*
X-266279Y123401D01*
X-264280D01*
X-263280Y124401D01*
Y125400D01*
X-264280Y126400D01*
X-263280Y127400D01*
Y128399D01*
X-264280Y126400D02*
X-266279D01*
X-273277Y129399D02*
X-269278D01*
Y126400D01*
X-271277Y127400D01*
X-272277D01*
X-273277Y126400D01*
Y124401D01*
X-272277Y123401D01*
X-270278D01*
X-269278Y124401D01*
X-275276Y123401D02*
Y124401D01*
X-276276D01*
Y123401D01*
X-275276D01*
X-284273Y129399D02*
X-282274Y128399D01*
X-280275Y126400D01*
Y124401D01*
X-281274Y123401D01*
X-283274D01*
X-284273Y124401D01*
Y125400D01*
X-283274Y126400D01*
X-280275D01*
X-286273Y128399D02*
X-287272Y129399D01*
X-289272D01*
X-290271Y128399D01*
Y124401D01*
X-289272Y123401D01*
X-287272D01*
X-286273Y124401D01*
Y128399D01*
M02*
