G04*
G04 #@! TF.GenerationSoftware,Altium Limited,Altium Designer,18.0.7 (293)*
G04*
G04 Layer_Color=128*
%FSLAX25Y25*%
%MOIN*%
G70*
G01*
G75*
%ADD14C,0.00591*%
%ADD15C,0.00591*%
%ADD16C,0.00800*%
%ADD18C,0.00394*%
%ADD19C,0.00197*%
%ADD20C,0.00600*%
%ADD80R,0.01181X0.05709*%
%ADD81R,0.05709X0.01181*%
D14*
X-312823Y94500D02*
X-312811Y94488D01*
X-312823Y-0D02*
X24185D01*
X-312823Y106299D02*
X23398Y-106299D01*
X-312823D02*
X23398Y106299D01*
X-312823D02*
X24185D01*
Y-106299D02*
Y106299D01*
X-312823Y-106299D02*
Y106299D01*
Y-106299D02*
X24185D01*
X-296937Y-52000D02*
X-289063D01*
X-293000Y-55937D02*
Y-48063D01*
D15*
X-218500Y-45000D02*
Y-27000D01*
X-242500Y-27000D02*
X-218500D01*
X-242500Y-45000D02*
Y-27000D01*
X-242500Y-45000D02*
X-218500D01*
X-233500Y34500D02*
X-233500Y34500D01*
X-209500D01*
X-209500Y34500D02*
X-209500Y34500D01*
X-209500Y16500D02*
Y34500D01*
X-233500Y16500D02*
X-209500D01*
X-233500D02*
X-233500Y16500D01*
Y34500D01*
D16*
X-290264Y-74822D02*
X-292263D01*
X-293263Y-73822D01*
X-292263Y-72823D01*
X-290264D01*
X-291763D01*
Y-74822D01*
X-293263Y-71823D02*
X-290264D01*
Y-69824D01*
Y-68824D02*
X-293263D01*
Y-67325D01*
X-292763Y-66825D01*
X-291763D01*
X-291263Y-67325D01*
Y-68824D01*
X-292763Y-63826D02*
X-293263Y-64325D01*
Y-65325D01*
X-292763Y-65825D01*
X-292263D01*
X-291763Y-65325D01*
Y-64325D01*
X-291263Y-63826D01*
X-290764D01*
X-290264Y-64325D01*
Y-65325D01*
X-290764Y-65825D01*
X-284745Y-74822D02*
X-287744D01*
Y-73322D01*
X-287244Y-72823D01*
X-286244D01*
X-285745Y-73322D01*
Y-74822D01*
Y-73822D02*
X-284745Y-72823D01*
X-287744Y-71823D02*
X-284745D01*
X-285745D01*
X-287744Y-69824D01*
X-286244Y-71323D01*
X-284745Y-69824D01*
Y-68824D02*
Y-67824D01*
Y-68324D01*
X-287744D01*
X-287244Y-68824D01*
Y-66325D02*
X-287744Y-65825D01*
Y-64825D01*
X-287244Y-64325D01*
X-285245D01*
X-284745Y-64825D01*
Y-65825D01*
X-285245Y-66325D01*
X-287244D01*
X-287744Y-61326D02*
Y-62326D01*
Y-61826D01*
X-285245D01*
X-284745Y-62326D01*
Y-62826D01*
X-285245Y-63326D01*
X-284745Y-60327D02*
Y-59327D01*
Y-59827D01*
X-287744D01*
X-287244Y-60327D01*
X-284745Y-55828D02*
Y-57828D01*
X-286744Y-55828D01*
X-287244D01*
X-287744Y-56328D01*
Y-57328D01*
X-287244Y-57828D01*
X-284745Y-54829D02*
X-287744D01*
Y-53329D01*
X-287244Y-52829D01*
X-286244D01*
X-285745Y-53329D01*
Y-54829D01*
Y-53829D02*
X-284745Y-52829D01*
X-118252Y65031D02*
Y68968D01*
X-120220Y67000D02*
X-116284D01*
X-145811Y65031D02*
Y68968D01*
X-99752Y-72969D02*
Y-69032D01*
X-101720Y-71000D02*
X-97783D01*
X-127311Y-72969D02*
Y-69032D01*
X-185968Y-36252D02*
X-182032D01*
X-184000Y-38221D02*
Y-34284D01*
X-185968Y-63811D02*
X-182032D01*
X-162548Y-70868D02*
Y-66931D01*
X-164516Y-68900D02*
X-160580D01*
X-134989Y-70868D02*
Y-66931D01*
X-162552Y-70868D02*
Y-66931D01*
X-164521Y-68900D02*
X-160583D01*
X-190111Y-70868D02*
Y-66931D01*
D18*
X-70866Y-85827D02*
G03*
X-86614Y-85827I-7874J0D01*
G01*
X-307677Y61823D02*
X-304000Y65500D01*
X-313000Y61823D02*
X-307677D01*
X-313000D02*
Y81201D01*
X-304000Y65500D02*
X-264000D01*
Y14000D02*
Y65500D01*
X-312000Y14000D02*
X-264000D01*
X-313000Y13000D02*
X-312000Y14000D01*
X-313000Y-862D02*
Y13000D01*
X-291701Y-81201D02*
X-291500Y-81402D01*
Y-96457D02*
Y-81402D01*
X-310098Y-18972D02*
Y-16610D01*
X-313000D02*
X-310098D01*
Y-18972D02*
X-295532D01*
X-313000Y-862D02*
X-310098D01*
Y1500D01*
X-291701Y81201D02*
X-291500Y81402D01*
X-313000Y-40600D02*
Y-16610D01*
X-295532Y-23106D02*
Y-18972D01*
Y-23106D02*
X-290807D01*
Y-18972D01*
X-267972D01*
Y1500D01*
X-280177D02*
X-267972D01*
X-280177D02*
Y5634D01*
X-284902D02*
X-280177D01*
X-284902Y1500D02*
Y5634D01*
X-310098Y1500D02*
X-284902D01*
X-313000Y-81201D02*
Y-40600D01*
X-232445Y96457D02*
X-59543D01*
X-232445Y93000D02*
X-63000D01*
X-232445Y81201D02*
Y93000D01*
X-291500Y96457D02*
X-232445D01*
X-63000Y86614D02*
Y93000D01*
X-59543Y96457D02*
X-19685D01*
X-63000Y-93000D02*
Y-86614D01*
X-291500Y-96457D02*
X-19685D01*
X-232445Y-93000D02*
Y-81201D01*
Y-93000D02*
X-63000D01*
X-19685Y86614D02*
X-500D01*
X-19685Y-86614D02*
X-500D01*
X-218500Y-45000D02*
Y-27000D01*
X-242500D02*
X-218500D01*
X-242500Y-45000D02*
Y-27000D01*
Y-45000D02*
X-218500D01*
X-233500Y34500D02*
X-233500Y34500D01*
X-209500D01*
Y16500D02*
Y34500D01*
X-209500Y16500D02*
X-209500Y16500D01*
X-233500Y16500D02*
X-209500D01*
X-233500D02*
Y34500D01*
X-63000Y86614D02*
X-63000Y86614D01*
X-70866Y86614D02*
X-63000D01*
X-19685Y86614D02*
Y96457D01*
X-70866Y-86614D02*
X-63000D01*
X-19685Y-96457D02*
Y-86614D01*
X-232445Y81201D02*
X-197244D01*
X-313000D02*
X-291701D01*
X-291500Y81402D02*
Y96457D01*
X-232445Y-81201D02*
X-197244D01*
X-313000D02*
X-291701D01*
X-197244Y81201D02*
Y86614D01*
Y-86614D02*
X-86614D01*
X-70866D02*
Y-85827D01*
X-86614Y-86614D02*
Y-85827D01*
X-197244Y-86614D02*
Y-81201D01*
X-500Y86614D02*
X-500Y-86614D01*
X-197244Y86614D02*
X-86614D01*
X-70866Y83858D02*
Y86614D01*
X-86614Y83858D02*
Y86614D01*
Y83858D02*
X-70866D01*
X-265441Y-52000D02*
G03*
X-265441Y-52000I-27559J0D01*
G01*
X-291032D02*
G03*
X-291032Y-52000I-1969J0D01*
G01*
X-117614Y-26587D02*
G03*
X-117614Y-26587I-1969J0D01*
G01*
X-228472Y59741D02*
G03*
X-228472Y59741I-1969J0D01*
G01*
X-208921Y-10693D02*
G03*
X-208921Y-10693I-1969J0D01*
G01*
X-48847Y-47504D02*
G03*
X-48847Y-47504I-1969J0D01*
G01*
X-105816Y-53496D02*
G03*
X-105816Y-53496I-1969J0D01*
G01*
X-80762Y51799D02*
G03*
X-80762Y51799I-1969J0D01*
G01*
X-165424Y-43710D02*
G03*
X-165424Y-43710I-1969J0D01*
G01*
X-37516Y-24016D02*
G03*
X-37516Y-24016I-1969J0D01*
G01*
X-431500Y0D02*
X40945Y-0D01*
X-313213Y13500D02*
Y65665D01*
X-264000D01*
Y13500D02*
Y65665D01*
X-313213Y13500D02*
X-264000D01*
X-267936Y65664D02*
Y87318D01*
X-287622D02*
X-267936D01*
X-287622Y65787D02*
Y87318D01*
Y65787D02*
X-287500Y65665D01*
X-259535Y-73063D02*
Y-28378D01*
X-275284Y-73063D02*
X-259535D01*
X-278827Y-28378D02*
X-259535D01*
X-145961Y41130D02*
X-116039D01*
X-145961Y-30130D02*
X-116039D01*
X-145961D02*
Y41130D01*
X-116039Y-30130D02*
Y41130D01*
X-226898Y56197D02*
Y68402D01*
X-239102Y56197D02*
Y68402D01*
Y56197D02*
X-226898D01*
X-239102Y68402D02*
X-226898D01*
X-193567Y-14236D02*
Y6236D01*
X-214433Y-14236D02*
Y6236D01*
X-193567D01*
X-214433Y-14236D02*
X-193567D01*
X-254748Y7480D02*
X-243252D01*
X-254748Y2362D02*
X-243252D01*
Y7480D01*
X-254748Y2362D02*
Y7480D01*
X-243252D01*
X-254748Y2362D02*
X-243252D01*
Y7480D01*
X-254748Y2362D02*
Y7480D01*
Y2362D02*
Y7480D01*
X-243252Y2362D02*
Y7480D01*
X-254748Y2362D02*
X-243252D01*
X-254748Y7480D02*
X-243252D01*
X-254748Y-16559D02*
X-243252D01*
X-254748Y-11441D02*
X-243252D01*
X-254748Y-16559D02*
Y-11441D01*
X-243252Y-16559D02*
Y-11441D01*
X-254748Y-16559D02*
X-243252D01*
X-254748Y-11441D02*
X-243252D01*
X-254748Y-16559D02*
Y-11441D01*
X-243252Y-16559D02*
Y-11441D01*
Y-16559D02*
Y-11441D01*
X-254748Y-16559D02*
Y-11441D01*
X-243252D01*
X-254748Y-16559D02*
X-243252D01*
X-54358Y-64039D02*
Y-43961D01*
X-36642Y-64039D02*
Y-43961D01*
X-54358D02*
X-36642D01*
X-54358Y-64039D02*
X-36642D01*
X-104242Y-57039D02*
Y-36961D01*
X-121958Y-57039D02*
Y-36961D01*
Y-57039D02*
X-104242D01*
X-121958Y-36961D02*
X-104242D01*
X-86274Y35658D02*
X-70526D01*
X-86274Y55343D02*
X-70526D01*
Y35658D02*
Y55343D01*
X-86274Y35658D02*
Y55343D01*
X-153034Y-80359D02*
X-144766D01*
X-153034Y-75241D02*
X-144766D01*
Y-80359D02*
Y-75241D01*
X-153034Y-80359D02*
Y-75241D01*
X-310886Y-27634D02*
X-309311Y-26059D01*
X-310886Y8587D02*
X-309311Y10161D01*
X-310098Y1500D02*
Y9374D01*
Y-26847D02*
Y-18972D01*
X-290807D02*
X-267972D01*
X-290807Y-23106D02*
Y-18972D01*
X-295532Y-23106D02*
X-290807D01*
X-295532D02*
Y-18972D01*
X-310098D02*
X-295532D01*
X-310098Y1500D02*
X-284902D01*
Y5634D01*
X-280177D01*
Y1500D02*
Y5634D01*
Y1500D02*
X-267972D01*
Y-18972D02*
Y1500D01*
X-170936Y-61033D02*
X-150464D01*
X-170936Y-40167D02*
X-150464D01*
Y-61033D02*
Y-40167D01*
X-170936Y-61033D02*
Y-40167D01*
X-91059Y-27559D02*
X-35941D01*
X-91059Y27559D02*
X-35941D01*
Y-27559D02*
Y27559D01*
X-91059Y-27559D02*
Y27559D01*
X0Y-85630D02*
X984D01*
X1969Y-84646D01*
Y0D01*
Y84646D01*
X984Y85630D02*
X1969Y84646D01*
X0Y85630D02*
X984D01*
X0Y-91339D02*
X10827D01*
X11024D01*
X11811Y-90551D01*
Y-87402D01*
Y87402D02*
X11811Y87402D01*
X11811Y87402D02*
Y90551D01*
X11024Y91339D02*
X11811Y90551D01*
X10827Y91339D02*
X11024D01*
X0D02*
X10827D01*
X23622Y-87402D02*
Y87402D01*
X0Y-87402D02*
X23622D01*
X0Y87402D02*
X23622D01*
X0Y-91339D02*
Y91339D01*
X21850Y-87402D02*
Y87402D01*
X10827Y-91240D02*
Y-87598D01*
Y-91240D02*
X10925Y-91339D01*
X10827Y87402D02*
Y91339D01*
X-14764Y0D02*
X25591D01*
X-131000Y3531D02*
Y7468D01*
X-132968Y5500D02*
X-129032D01*
X-234968Y62300D02*
X-231031D01*
X-233000Y60331D02*
Y64268D01*
X-205968Y-4000D02*
X-202031D01*
X-204000Y-5968D02*
Y-2032D01*
X-47469Y-54000D02*
X-43532D01*
X-45500Y-55968D02*
Y-52031D01*
X-115068Y-47000D02*
X-111132D01*
X-113100Y-48968D02*
Y-45031D01*
X-78400Y43532D02*
Y47469D01*
X-80369Y45500D02*
X-76432D01*
X-148900Y-79769D02*
Y-75832D01*
X-150868Y-77800D02*
X-146932D01*
X-310098Y-10311D02*
Y-7161D01*
X-311673Y-8736D02*
X-308524D01*
X-160700Y-52569D02*
Y-48632D01*
X-162669Y-50600D02*
X-158731D01*
X-63500Y-1969D02*
Y1969D01*
X-65469Y0D02*
X-61532D01*
D19*
X-68899Y-33350D02*
X-66931Y-33350D01*
X-64962Y-33350D02*
X-63387D01*
X-61813D02*
X-60238D01*
X-58269D02*
X-56300Y-33350D01*
X-58269Y-39650D02*
X-56300Y-39649D01*
X-61813Y-39650D02*
X-60238D01*
X-64962Y-39650D02*
X-63387D01*
X-68899Y-39649D02*
X-66931Y-39650D01*
Y-33350D01*
X-64962Y-39650D02*
Y-33350D01*
X-63387Y-39650D02*
Y-33350D01*
X-61813Y-39650D02*
X-61813Y-33350D01*
X-60238D02*
X-60238Y-39650D01*
X-58269Y-39650D02*
Y-33350D01*
X-68899Y-39649D02*
Y-33350D01*
X-56300Y-39649D02*
Y-33350D01*
X-87799D02*
X-85831Y-33350D01*
X-83862Y-33350D02*
X-82287D01*
X-80713Y-33350D02*
X-79138D01*
X-77169Y-33350D02*
X-75200Y-33350D01*
X-77169Y-39650D02*
X-75200Y-39649D01*
X-80713Y-39650D02*
X-79138D01*
X-83862D02*
X-82287Y-39650D01*
X-87799Y-39649D02*
X-85831Y-39650D01*
Y-33350D01*
X-83862Y-33350D02*
X-83862Y-39650D01*
X-82287Y-39650D02*
Y-33350D01*
X-80713Y-39650D02*
Y-33350D01*
X-79138Y-39650D02*
Y-33350D01*
X-77169Y-39650D02*
Y-33350D01*
X-87799Y-39649D02*
Y-33350D01*
X-75200Y-39649D02*
Y-33350D01*
X-154327Y42114D02*
X-107673D01*
X-154327Y-31114D02*
X-107673D01*
X-154327D02*
Y42114D01*
X-107673Y-31114D02*
Y42114D01*
X-219024Y54229D02*
Y70370D01*
X-246976Y54229D02*
Y70370D01*
Y54229D02*
X-219024D01*
X-246976Y70370D02*
X-219024D01*
X-192583Y-20339D02*
Y12339D01*
X-215417Y-20339D02*
Y12339D01*
X-192583D01*
X-215417Y-20339D02*
X-192583D01*
X-60854Y-65024D02*
Y-42976D01*
X-30146Y-65024D02*
Y-42976D01*
X-60854D02*
X-30146D01*
X-60854Y-65024D02*
X-30146D01*
X-97746Y-58024D02*
Y-35976D01*
X-128454Y-58024D02*
Y-35976D01*
Y-58024D02*
X-97746D01*
X-128454Y-35976D02*
X-97746D01*
X-94739Y33689D02*
X-62061D01*
X-94739Y57311D02*
X-62061D01*
Y33689D02*
Y57311D01*
X-94739Y33689D02*
Y57311D01*
X-155593Y-81540D02*
X-142207D01*
X-155593Y-74060D02*
X-142207D01*
Y-81540D02*
Y-74060D01*
X-155593Y-81540D02*
Y-74060D01*
X-177039Y-62017D02*
X-144361D01*
X-177039Y-39183D02*
X-144361D01*
Y-62017D02*
Y-39183D01*
X-177039Y-62017D02*
Y-39183D01*
X-97654Y-34154D02*
X-29346D01*
X-97654Y34154D02*
X-29346D01*
Y-34154D02*
Y34154D01*
X-97654Y-34154D02*
Y34154D01*
D20*
X18185Y125000D02*
X24185Y127000D01*
X18185Y129000D02*
X24185Y127000D01*
X-312823D02*
X-306823Y129000D01*
X-312823Y127000D02*
X-306823Y125000D01*
X-130823Y127000D02*
X24185D01*
X-312823D02*
X-161014D01*
X24185Y107595D02*
Y128000D01*
X-312823Y107595D02*
Y128000D01*
X-159415Y128399D02*
X-158415Y129399D01*
X-156415D01*
X-155416Y128399D01*
Y127400D01*
X-156415Y126400D01*
X-155416Y125400D01*
Y124401D01*
X-156415Y123401D01*
X-158415D01*
X-159415Y124401D01*
Y125400D01*
X-158415Y126400D01*
X-159415Y127400D01*
Y128399D01*
X-158415Y126400D02*
X-156415D01*
X-149418Y129399D02*
X-153417D01*
Y126400D01*
X-151417Y127400D01*
X-150417D01*
X-149418Y126400D01*
Y124401D01*
X-150417Y123401D01*
X-152417D01*
X-153417Y124401D01*
X-147418Y123401D02*
Y124401D01*
X-146419D01*
Y123401D01*
X-147418D01*
X-138421Y129399D02*
X-140421Y128399D01*
X-142420Y126400D01*
Y124401D01*
X-141420Y123401D01*
X-139421D01*
X-138421Y124401D01*
Y125400D01*
X-139421Y126400D01*
X-142420D01*
X-136422Y128399D02*
X-135422Y129399D01*
X-133423D01*
X-132423Y128399D01*
Y124401D01*
X-133423Y123401D01*
X-135422D01*
X-136422Y124401D01*
Y128399D01*
D80*
X-39878Y-30413D02*
D03*
X-41846D02*
D03*
X-43815D02*
D03*
X-45783D02*
D03*
X-47752D02*
D03*
X-49720D02*
D03*
X-51689Y-30413D02*
D03*
X-53658Y-30413D02*
D03*
X-55626D02*
D03*
X-57595D02*
D03*
X-59563D02*
D03*
X-61532D02*
D03*
X-63500Y-30413D02*
D03*
X-65469D02*
D03*
X-67437D02*
D03*
X-69406Y-30413D02*
D03*
X-71374D02*
D03*
X-73343D02*
D03*
X-75311D02*
D03*
X-77280D02*
D03*
X-79248D02*
D03*
X-81217D02*
D03*
X-83185D02*
D03*
X-85154D02*
D03*
X-87122D02*
D03*
Y30413D02*
D03*
X-85154D02*
D03*
X-83185D02*
D03*
X-81217D02*
D03*
X-79248D02*
D03*
X-77280D02*
D03*
X-75311D02*
D03*
X-73343D02*
D03*
X-71374D02*
D03*
X-69406D02*
D03*
X-67437D02*
D03*
X-65469D02*
D03*
X-63500D02*
D03*
X-61532D02*
D03*
X-59563D02*
D03*
X-57595D02*
D03*
X-55626D02*
D03*
X-53658D02*
D03*
X-51689D02*
D03*
X-49720D02*
D03*
X-47752D02*
D03*
X-45783D02*
D03*
X-43815D02*
D03*
X-41846D02*
D03*
X-39878D02*
D03*
D81*
X-93913Y-23622D02*
D03*
Y-21654D02*
D03*
Y-19685D02*
D03*
Y-17717D02*
D03*
Y-15748D02*
D03*
Y-13780D02*
D03*
Y-11811D02*
D03*
Y-9843D02*
D03*
Y-7874D02*
D03*
Y-5906D02*
D03*
Y-3937D02*
D03*
Y-1969D02*
D03*
Y0D02*
D03*
Y1969D02*
D03*
Y3937D02*
D03*
Y5906D02*
D03*
Y7874D02*
D03*
Y9843D02*
D03*
Y11811D02*
D03*
Y13780D02*
D03*
Y15748D02*
D03*
Y17717D02*
D03*
Y19685D02*
D03*
Y21654D02*
D03*
Y23622D02*
D03*
X-33087D02*
D03*
Y21654D02*
D03*
Y19685D02*
D03*
Y17717D02*
D03*
Y15748D02*
D03*
Y13780D02*
D03*
Y11811D02*
D03*
Y9843D02*
D03*
Y7874D02*
D03*
Y5906D02*
D03*
X-33087Y3937D02*
D03*
Y1969D02*
D03*
Y0D02*
D03*
X-33087Y-1969D02*
D03*
Y-3937D02*
D03*
Y-5906D02*
D03*
Y-7874D02*
D03*
Y-9843D02*
D03*
X-33087Y-11811D02*
D03*
X-33087Y-13780D02*
D03*
Y-15748D02*
D03*
Y-17717D02*
D03*
Y-19685D02*
D03*
Y-21654D02*
D03*
Y-23622D02*
D03*
M02*
