G04*
G04 #@! TF.GenerationSoftware,Altium Limited,Altium Designer,18.0.7 (293)*
G04*
G04 Layer_Physical_Order=1*
G04 Layer_Color=255*
%FSLAX25Y25*%
%MOIN*%
G70*
G01*
G75*
%ADD14C,0.00591*%
%ADD15C,0.00591*%
%ADD16C,0.00800*%
%ADD17C,0.01000*%
%ADD18C,0.00394*%
%ADD19C,0.00197*%
%ADD20C,0.00600*%
%ADD21R,0.03661X0.03858*%
%ADD22R,0.03858X0.03661*%
%ADD23C,0.05906*%
%ADD24R,0.05512X0.04724*%
%ADD25R,0.05512X0.08661*%
%ADD26R,0.07480X0.02362*%
%ADD27R,0.05906X0.01772*%
%ADD28R,0.07874X0.03504*%
%ADD29R,0.02165X0.05118*%
%ADD30R,0.02756X0.04921*%
%ADD31R,0.07087X0.05315*%
%ADD32R,0.02953X0.03150*%
%ADD33R,0.02284X0.03150*%
%ADD34R,0.05512X0.01772*%
%ADD35R,0.04528X0.05512*%
%ADD36R,0.05315X0.07087*%
%ADD37R,0.06496X0.02559*%
%ADD38R,0.03858X0.05276*%
%ADD39R,0.05906X0.04724*%
%ADD40R,0.05118X0.02165*%
%ADD41R,0.04567X0.05787*%
%ADD42R,0.09843X0.01575*%
%ADD70C,0.00799*%
%ADD71C,0.01500*%
%ADD72C,0.02000*%
%ADD73C,0.05000*%
%ADD74C,0.04500*%
%ADD75C,0.03000*%
%ADD76R,0.06366X0.02500*%
%ADD77C,0.01772*%
%ADD78C,0.03937*%
%ADD79C,0.05000*%
G36*
X-409972Y85500D02*
X-409115Y81640D01*
X-409264Y81643D01*
X-409400Y81655D01*
X-409520Y81674D01*
X-409624Y81700D01*
X-409712Y81734D01*
X-409783Y81775D01*
X-409839Y81824D01*
X-409879Y81880D01*
X-409903Y81944D01*
X-409911Y82016D01*
Y80465D01*
X-409903Y80536D01*
X-409879Y80600D01*
X-409839Y80656D01*
X-409783Y80705D01*
X-409712Y80747D01*
X-409624Y80780D01*
X-409520Y80807D01*
X-409400Y80826D01*
X-409264Y80837D01*
X-409112Y80841D01*
Y81629D01*
X-408972Y81000D01*
X-407017D01*
Y80841D01*
X-406924Y80838D01*
X-406756Y80821D01*
X-406679Y80805D01*
X-406608Y80785D01*
X-406541Y80761D01*
X-406480Y80733D01*
X-406424Y80699D01*
X-406373Y80662D01*
X-406327Y80620D01*
Y81000D01*
X-404195D01*
X-403195Y80000D01*
Y55000D01*
X-396195Y48000D01*
X-394195D01*
Y65000D01*
X-387195Y72000D01*
X-376695D01*
Y84500D01*
X-398695D01*
X-399695Y85500D01*
X-409972Y85500D01*
D02*
G37*
G36*
X-406373Y76818D02*
X-406424Y76781D01*
X-406480Y76748D01*
X-406541Y76719D01*
X-406608Y76695D01*
X-406679Y76675D01*
X-406756Y76660D01*
X-406838Y76649D01*
X-406924Y76642D01*
X-407017Y76640D01*
Y75841D01*
X-406924Y75838D01*
X-406756Y75821D01*
X-406679Y75805D01*
X-406608Y75785D01*
X-406541Y75761D01*
X-406480Y75732D01*
X-406424Y75700D01*
X-406373Y75662D01*
X-406327Y75620D01*
Y76860D01*
X-406373Y76818D01*
D02*
G37*
G36*
X-409911Y75465D02*
X-409903Y75536D01*
X-409879Y75600D01*
X-409839Y75656D01*
X-409783Y75705D01*
X-409712Y75747D01*
X-409624Y75780D01*
X-409520Y75807D01*
X-409400Y75826D01*
X-409264Y75837D01*
X-409112Y75841D01*
Y76640D01*
X-409264Y76644D01*
X-409400Y76655D01*
X-409520Y76674D01*
X-409624Y76700D01*
X-409712Y76734D01*
X-409783Y76775D01*
X-409839Y76824D01*
X-409879Y76880D01*
X-409903Y76944D01*
X-409911Y77016D01*
Y75465D01*
D02*
G37*
G36*
X-191857Y72575D02*
X-191847Y72670D01*
X-191816Y72755D01*
X-191766Y72830D01*
X-191695Y72895D01*
X-191604Y72950D01*
X-191492Y72995D01*
X-191361Y73030D01*
X-191209Y73055D01*
X-191037Y73070D01*
X-190845Y73075D01*
Y74075D01*
X-191037Y74080D01*
X-191209Y74095D01*
X-191361Y74120D01*
X-191492Y74155D01*
X-191604Y74200D01*
X-191695Y74255D01*
X-191766Y74320D01*
X-191816Y74395D01*
X-191847Y74480D01*
X-191857Y74575D01*
Y72575D01*
D02*
G37*
G36*
X-188043Y74480D02*
X-188074Y74395D01*
X-188124Y74320D01*
X-188195Y74255D01*
X-188286Y74200D01*
X-188397Y74155D01*
X-188529Y74120D01*
X-188681Y74095D01*
X-188853Y74080D01*
X-189045Y74075D01*
Y73075D01*
X-188853Y73070D01*
X-188681Y73055D01*
X-188529Y73030D01*
X-188397Y72995D01*
X-188286Y72950D01*
X-188195Y72895D01*
X-188124Y72830D01*
X-188074Y72755D01*
X-188043Y72670D01*
X-188033Y72575D01*
Y74575D01*
X-188043Y74480D01*
D02*
G37*
G36*
X-165836Y75358D02*
X-165952Y75230D01*
X-166087Y75117D01*
X-166240Y75020D01*
X-166412Y74937D01*
X-166603Y74870D01*
X-166812Y74818D01*
X-167040Y74780D01*
X-167286Y74757D01*
X-167551Y74750D01*
Y73250D01*
X-167286Y73242D01*
X-167040Y73220D01*
X-166812Y73182D01*
X-166603Y73130D01*
X-166412Y73062D01*
X-166240Y72980D01*
X-166087Y72882D01*
X-165952Y72770D01*
X-165836Y72642D01*
X-165738Y72500D01*
Y75500D01*
X-165836Y75358D01*
D02*
G37*
G36*
X-181068Y71660D02*
X-180983Y71629D01*
X-180908Y71579D01*
X-180843Y71508D01*
X-180788Y71417D01*
X-180743Y71306D01*
X-180708Y71174D01*
X-180683Y71022D01*
X-180668Y70850D01*
X-180663Y70658D01*
X-179663D01*
X-179658Y70850D01*
X-179643Y71022D01*
X-179618Y71174D01*
X-179583Y71306D01*
X-179538Y71417D01*
X-179483Y71508D01*
X-179418Y71579D01*
X-179343Y71629D01*
X-179258Y71660D01*
X-179163Y71670D01*
X-181163D01*
X-181068Y71660D01*
D02*
G37*
G36*
X-406373Y71818D02*
X-406424Y71781D01*
X-406480Y71748D01*
X-406541Y71719D01*
X-406608Y71695D01*
X-406679Y71675D01*
X-406756Y71660D01*
X-406838Y71649D01*
X-406924Y71642D01*
X-407017Y71640D01*
Y70841D01*
X-406924Y70838D01*
X-406756Y70821D01*
X-406679Y70805D01*
X-406608Y70785D01*
X-406541Y70761D01*
X-406480Y70732D01*
X-406424Y70700D01*
X-406373Y70662D01*
X-406327Y70620D01*
Y71860D01*
X-406373Y71818D01*
D02*
G37*
G36*
X-409911Y70465D02*
X-409903Y70536D01*
X-409879Y70600D01*
X-409839Y70656D01*
X-409783Y70705D01*
X-409712Y70747D01*
X-409624Y70780D01*
X-409520Y70807D01*
X-409400Y70825D01*
X-409264Y70837D01*
X-409112Y70841D01*
Y71640D01*
X-409264Y71644D01*
X-409400Y71655D01*
X-409520Y71674D01*
X-409624Y71700D01*
X-409712Y71734D01*
X-409783Y71775D01*
X-409839Y71824D01*
X-409879Y71880D01*
X-409903Y71944D01*
X-409911Y72016D01*
Y70465D01*
D02*
G37*
G36*
X-201084Y71655D02*
X-200956Y71609D01*
X-200844Y71534D01*
X-200746Y71428D01*
X-200664Y71292D01*
X-200596Y71126D01*
X-200544Y70929D01*
X-200506Y70702D01*
X-200484Y70445D01*
X-200476Y70158D01*
X-198976D01*
X-198969Y70445D01*
X-198946Y70702D01*
X-198909Y70929D01*
X-198856Y71126D01*
X-198789Y71292D01*
X-198706Y71428D01*
X-198609Y71534D01*
X-198496Y71609D01*
X-198369Y71655D01*
X-198226Y71670D01*
X-201226D01*
X-201084Y71655D01*
D02*
G37*
G36*
X-179979Y67869D02*
X-180193Y67687D01*
X-180406Y67527D01*
X-180619Y67387D01*
X-180831Y67270D01*
X-181043Y67173D01*
X-181254Y67098D01*
X-181466Y67044D01*
X-181676Y67011D01*
X-181887Y67000D01*
X-177699Y67012D01*
X-177644Y68073D01*
X-179766D01*
X-179979Y67869D01*
D02*
G37*
G36*
X-406373Y66818D02*
X-406424Y66781D01*
X-406480Y66748D01*
X-406541Y66719D01*
X-406608Y66695D01*
X-406679Y66675D01*
X-406756Y66660D01*
X-406838Y66649D01*
X-406924Y66642D01*
X-407017Y66640D01*
Y65841D01*
X-406924Y65838D01*
X-406756Y65821D01*
X-406679Y65805D01*
X-406608Y65785D01*
X-406541Y65761D01*
X-406480Y65733D01*
X-406424Y65699D01*
X-406373Y65662D01*
X-406327Y65620D01*
Y66860D01*
X-406373Y66818D01*
D02*
G37*
G36*
X-409911Y65465D02*
X-409903Y65536D01*
X-409879Y65600D01*
X-409839Y65656D01*
X-409783Y65705D01*
X-409712Y65747D01*
X-409624Y65780D01*
X-409520Y65807D01*
X-409400Y65825D01*
X-409264Y65837D01*
X-409112Y65841D01*
Y66640D01*
X-409264Y66644D01*
X-409400Y66655D01*
X-409520Y66674D01*
X-409624Y66700D01*
X-409712Y66734D01*
X-409783Y66775D01*
X-409839Y66824D01*
X-409879Y66880D01*
X-409903Y66944D01*
X-409911Y67016D01*
Y65465D01*
D02*
G37*
G36*
X-195809Y62705D02*
X-195799Y62776D01*
X-195769Y62840D01*
X-195719Y62896D01*
X-195649Y62945D01*
X-195559Y62986D01*
X-195449Y63019D01*
X-195319Y63045D01*
X-195169Y63064D01*
X-194999Y63075D01*
X-194809Y63079D01*
Y64079D01*
X-194999Y64083D01*
X-195319Y64113D01*
X-195449Y64139D01*
X-195559Y64173D01*
X-195649Y64214D01*
X-195719Y64262D01*
X-195769Y64318D01*
X-195799Y64382D01*
X-195809Y64453D01*
Y62705D01*
D02*
G37*
G36*
X-177699D02*
X-177684Y62729D01*
X-177639Y62750D01*
X-177564Y62768D01*
X-177459Y62784D01*
X-177159Y62809D01*
X-176484Y62828D01*
X-176199Y62829D01*
Y64329D01*
X-176484Y64330D01*
X-177639Y64408D01*
X-177684Y64429D01*
X-177699Y64453D01*
Y62705D01*
D02*
G37*
G36*
X-406373Y61818D02*
X-406424Y61781D01*
X-406480Y61748D01*
X-406541Y61719D01*
X-406608Y61695D01*
X-406679Y61675D01*
X-406756Y61660D01*
X-406838Y61649D01*
X-406924Y61642D01*
X-407017Y61640D01*
Y60841D01*
X-406924Y60838D01*
X-406756Y60821D01*
X-406679Y60805D01*
X-406608Y60785D01*
X-406541Y60761D01*
X-406480Y60733D01*
X-406424Y60699D01*
X-406373Y60662D01*
X-406327Y60620D01*
Y61860D01*
X-406373Y61818D01*
D02*
G37*
G36*
X-181190Y61545D02*
X-181240Y61540D01*
X-181429Y61531D01*
X-182699Y61520D01*
Y60520D01*
X-181169Y60489D01*
Y61551D01*
X-181190Y61545D01*
D02*
G37*
G36*
X-409911Y60465D02*
X-409903Y60536D01*
X-409879Y60600D01*
X-409839Y60656D01*
X-409783Y60705D01*
X-409712Y60747D01*
X-409624Y60780D01*
X-409520Y60807D01*
X-409400Y60826D01*
X-409264Y60837D01*
X-409112Y60841D01*
Y61640D01*
X-409264Y61643D01*
X-409400Y61655D01*
X-409520Y61674D01*
X-409624Y61700D01*
X-409712Y61734D01*
X-409783Y61775D01*
X-409839Y61824D01*
X-409879Y61880D01*
X-409903Y61944D01*
X-409911Y62016D01*
Y60465D01*
D02*
G37*
G36*
X-177699Y60146D02*
X-177684Y60170D01*
X-177639Y60191D01*
X-177564Y60209D01*
X-177459Y60225D01*
X-177159Y60250D01*
X-176523Y60268D01*
X-176327Y60263D01*
X-176072Y60240D01*
X-175847Y60202D01*
X-175652Y60150D01*
X-175487Y60083D01*
X-175352Y60000D01*
X-175247Y59903D01*
X-175172Y59790D01*
X-175127Y59662D01*
X-175112Y59520D01*
Y61587D01*
X-175127Y61622D01*
X-175172Y61653D01*
X-175247Y61680D01*
X-175352Y61704D01*
X-175487Y61724D01*
X-175847Y61753D01*
X-176199Y61761D01*
Y61770D01*
X-176484Y61771D01*
X-177639Y61849D01*
X-177684Y61870D01*
X-177699Y61894D01*
Y60146D01*
D02*
G37*
G36*
X-201687Y59185D02*
X-201711Y59117D01*
X-201751Y59057D01*
X-201808Y59005D01*
X-201881Y58961D01*
X-201971Y58925D01*
X-202076Y58897D01*
X-202198Y58877D01*
X-202336Y58865D01*
X-202490Y58861D01*
Y58061D01*
X-202336Y58057D01*
X-202198Y58045D01*
X-202076Y58025D01*
X-201971Y57997D01*
X-201881Y57961D01*
X-201808Y57917D01*
X-201751Y57865D01*
X-201711Y57805D01*
X-201687Y57737D01*
X-201678Y57661D01*
Y59261D01*
X-201687Y59185D01*
D02*
G37*
G36*
X-180987Y57588D02*
X-180776Y57555D01*
X-180565Y57501D01*
X-180353Y57426D01*
X-180141Y57329D01*
X-179929Y57211D01*
X-179717Y57072D01*
X-179504Y56911D01*
X-179290Y56730D01*
X-179077Y56526D01*
X-176955D01*
X-177097Y56671D01*
X-177431Y57053D01*
X-177513Y57163D01*
X-177580Y57265D01*
X-177632Y57358D01*
X-177669Y57443D01*
X-177691Y57519D01*
X-177699Y57587D01*
X-181198Y57599D01*
X-180987Y57588D01*
D02*
G37*
G36*
X-406373Y56818D02*
X-406424Y56781D01*
X-406480Y56748D01*
X-406541Y56719D01*
X-406608Y56695D01*
X-406679Y56675D01*
X-406756Y56660D01*
X-406838Y56649D01*
X-406924Y56642D01*
X-407017Y56640D01*
Y55841D01*
X-406924Y55838D01*
X-406756Y55821D01*
X-406679Y55805D01*
X-406608Y55785D01*
X-406541Y55761D01*
X-406480Y55733D01*
X-406424Y55699D01*
X-406373Y55662D01*
X-406327Y55620D01*
Y56860D01*
X-406373Y56818D01*
D02*
G37*
G36*
X-409911Y55465D02*
X-409903Y55536D01*
X-409879Y55600D01*
X-409839Y55656D01*
X-409783Y55705D01*
X-409712Y55747D01*
X-409624Y55780D01*
X-409520Y55807D01*
X-409400Y55826D01*
X-409264Y55837D01*
X-409112Y55841D01*
Y56640D01*
X-409264Y56643D01*
X-409400Y56655D01*
X-409520Y56674D01*
X-409624Y56700D01*
X-409712Y56734D01*
X-409783Y56775D01*
X-409839Y56824D01*
X-409879Y56880D01*
X-409903Y56944D01*
X-409911Y57016D01*
Y55465D01*
D02*
G37*
G36*
X-167805Y54050D02*
X-167623Y53857D01*
X-167465Y53667D01*
X-167330Y53480D01*
X-167220Y53295D01*
X-167133Y53112D01*
X-167069Y52932D01*
X-167030Y52755D01*
X-167014Y52580D01*
X-167022Y52408D01*
X-167054Y52238D01*
X-164932Y54359D01*
X-165102Y54327D01*
X-165275Y54320D01*
X-165450Y54335D01*
X-165627Y54375D01*
X-165807Y54438D01*
X-165989Y54525D01*
X-166174Y54636D01*
X-166362Y54770D01*
X-166552Y54928D01*
X-166744Y55110D01*
X-167805Y54050D01*
D02*
G37*
G36*
X-182668Y52227D02*
X-182683Y52057D01*
X-182708Y51907D01*
X-182743Y51777D01*
X-182788Y51667D01*
X-182843Y51577D01*
X-182908Y51507D01*
X-182983Y51457D01*
X-183068Y51427D01*
X-183163Y51417D01*
X-181163D01*
X-181258Y51427D01*
X-181343Y51457D01*
X-181418Y51507D01*
X-181483Y51577D01*
X-181538Y51667D01*
X-181583Y51777D01*
X-181618Y51907D01*
X-181643Y52057D01*
X-181658Y52227D01*
X-181663Y52417D01*
X-182663D01*
X-182668Y52227D01*
D02*
G37*
G36*
X-202227Y51862D02*
X-202251Y51456D01*
X-202259Y51428D01*
X-202268Y51411D01*
X-202277Y51405D01*
X-201175D01*
X-201185Y51411D01*
X-201193Y51428D01*
X-201201Y51456D01*
X-201208Y51495D01*
X-201213Y51546D01*
X-201224Y51766D01*
X-201226Y51968D01*
X-202226D01*
X-202227Y51862D01*
D02*
G37*
G36*
X-406373Y51818D02*
X-406424Y51781D01*
X-406480Y51748D01*
X-406541Y51719D01*
X-406608Y51695D01*
X-406679Y51675D01*
X-406756Y51660D01*
X-406838Y51649D01*
X-406924Y51642D01*
X-407017Y51640D01*
Y50841D01*
X-406924Y50838D01*
X-406756Y50821D01*
X-406679Y50805D01*
X-406608Y50785D01*
X-406541Y50761D01*
X-406480Y50732D01*
X-406424Y50700D01*
X-406373Y50662D01*
X-406327Y50620D01*
Y51860D01*
X-406373Y51818D01*
D02*
G37*
G36*
X-409911Y50465D02*
X-409903Y50536D01*
X-409879Y50600D01*
X-409839Y50656D01*
X-409783Y50705D01*
X-409712Y50747D01*
X-409624Y50780D01*
X-409520Y50807D01*
X-409400Y50826D01*
X-409264Y50837D01*
X-409112Y50841D01*
Y51640D01*
X-409264Y51644D01*
X-409400Y51655D01*
X-409520Y51674D01*
X-409624Y51700D01*
X-409712Y51734D01*
X-409783Y51775D01*
X-409839Y51824D01*
X-409879Y51880D01*
X-409903Y51944D01*
X-409911Y52016D01*
Y50465D01*
D02*
G37*
G36*
X-310412Y49652D02*
X-310349Y49585D01*
X-310242Y49453D01*
X-310198Y49388D01*
X-310162Y49324D01*
X-310132Y49260D01*
X-310109Y49196D01*
X-310093Y49133D01*
X-310083Y49071D01*
X-310080Y49009D01*
X-309203Y49886D01*
X-309265Y49889D01*
X-309328Y49898D01*
X-309391Y49914D01*
X-309454Y49937D01*
X-309518Y49967D01*
X-309583Y50004D01*
X-309648Y50047D01*
X-309714Y50097D01*
X-309780Y50154D01*
X-309846Y50217D01*
X-310412Y49652D01*
D02*
G37*
G36*
X-324050Y50159D02*
X-324024Y50091D01*
X-324022Y50010D01*
X-324044Y49916D01*
X-324090Y49809D01*
X-324159Y49689D01*
X-324253Y49557D01*
X-324371Y49412D01*
X-324677Y49083D01*
X-323982Y48647D01*
X-323822Y48801D01*
X-323534Y49044D01*
X-323406Y49134D01*
X-323288Y49203D01*
X-323180Y49250D01*
X-323082Y49276D01*
X-322994Y49280D01*
X-322917Y49263D01*
X-322850Y49225D01*
X-324100Y50214D01*
X-324050Y50159D01*
D02*
G37*
G36*
X-279062Y47380D02*
X-279016Y47422D01*
X-278965Y47459D01*
X-278909Y47492D01*
X-278848Y47521D01*
X-278782Y47545D01*
X-278710Y47565D01*
X-278634Y47580D01*
X-278552Y47591D01*
X-278465Y47598D01*
X-278373Y47600D01*
Y48400D01*
X-278465Y48402D01*
X-278634Y48420D01*
X-278710Y48435D01*
X-278782Y48455D01*
X-278848Y48479D01*
X-278909Y48508D01*
X-278965Y48541D01*
X-279016Y48578D01*
X-279062Y48620D01*
Y47380D01*
D02*
G37*
G36*
X-196568Y47573D02*
X-196483Y47543D01*
X-196408Y47493D01*
X-196343Y47423D01*
X-196288Y47333D01*
X-196243Y47223D01*
X-196208Y47093D01*
X-196183Y46943D01*
X-196168Y46773D01*
X-196163Y46583D01*
X-195163D01*
X-195158Y46773D01*
X-195143Y46943D01*
X-195118Y47093D01*
X-195083Y47223D01*
X-195038Y47333D01*
X-194983Y47423D01*
X-194918Y47493D01*
X-194843Y47543D01*
X-194758Y47573D01*
X-194663Y47583D01*
X-196663D01*
X-196568Y47573D01*
D02*
G37*
G36*
X-189131Y47585D02*
X-189046Y47554D01*
X-188971Y47504D01*
X-188906Y47433D01*
X-188851Y47342D01*
X-188806Y47230D01*
X-188771Y47099D01*
X-188746Y46947D01*
X-188731Y46775D01*
X-188726Y46583D01*
X-187726D01*
X-187721Y46775D01*
X-187706Y46947D01*
X-187681Y47099D01*
X-187646Y47230D01*
X-187601Y47342D01*
X-187546Y47433D01*
X-187481Y47504D01*
X-187406Y47554D01*
X-187321Y47585D01*
X-187226Y47595D01*
X-189226D01*
X-189131Y47585D01*
D02*
G37*
G36*
X-406373Y46818D02*
X-406424Y46781D01*
X-406480Y46748D01*
X-406541Y46719D01*
X-406608Y46695D01*
X-406679Y46675D01*
X-406756Y46660D01*
X-406838Y46649D01*
X-406924Y46642D01*
X-407017Y46640D01*
Y45841D01*
X-406924Y45838D01*
X-406756Y45821D01*
X-406679Y45805D01*
X-406608Y45785D01*
X-406541Y45761D01*
X-406480Y45733D01*
X-406424Y45700D01*
X-406373Y45662D01*
X-406327Y45620D01*
Y46860D01*
X-406373Y46818D01*
D02*
G37*
G36*
X-409911Y45465D02*
X-409903Y45536D01*
X-409879Y45600D01*
X-409839Y45656D01*
X-409783Y45705D01*
X-409712Y45747D01*
X-409624Y45780D01*
X-409520Y45807D01*
X-409400Y45825D01*
X-409264Y45837D01*
X-409112Y45841D01*
Y46640D01*
X-409264Y46643D01*
X-409400Y46655D01*
X-409520Y46674D01*
X-409624Y46700D01*
X-409712Y46734D01*
X-409783Y46775D01*
X-409839Y46824D01*
X-409879Y46880D01*
X-409903Y46944D01*
X-409911Y47016D01*
Y45465D01*
D02*
G37*
G36*
Y44290D02*
X-409924Y44281D01*
X-409980Y44248D01*
X-410041Y44219D01*
X-410107Y44195D01*
X-410179Y44175D01*
X-410255Y44160D01*
X-410337Y44149D01*
X-410424Y44142D01*
X-410516Y44140D01*
Y43340D01*
X-410424Y43338D01*
X-410255Y43320D01*
X-410179Y43305D01*
X-410107Y43285D01*
X-410041Y43261D01*
X-409980Y43232D01*
X-409924Y43199D01*
X-409911Y43190D01*
Y43023D01*
X-409904Y43084D01*
X-409883Y43137D01*
X-409868Y43157D01*
X-409827Y43120D01*
Y43201D01*
X-409797Y43226D01*
X-409732Y43261D01*
X-409653Y43290D01*
X-409560Y43312D01*
X-409453Y43328D01*
X-409331Y43337D01*
X-409195Y43340D01*
Y44140D01*
X-409331Y44143D01*
X-409453Y44153D01*
X-409560Y44169D01*
X-409653Y44191D01*
X-409732Y44219D01*
X-409797Y44254D01*
X-409827Y44279D01*
Y44360D01*
X-409868Y44323D01*
X-409883Y44343D01*
X-409904Y44397D01*
X-409911Y44457D01*
Y44290D01*
D02*
G37*
G36*
X-196168Y44727D02*
X-196183Y44557D01*
X-196208Y44407D01*
X-196243Y44277D01*
X-196288Y44167D01*
X-196343Y44077D01*
X-196408Y44007D01*
X-196483Y43957D01*
X-196568Y43927D01*
X-196663Y43917D01*
X-194663D01*
X-194758Y43927D01*
X-194843Y43957D01*
X-194918Y44007D01*
X-194983Y44077D01*
X-195038Y44167D01*
X-195083Y44277D01*
X-195118Y44407D01*
X-195143Y44557D01*
X-195158Y44727D01*
X-195163Y44917D01*
X-196163D01*
X-196168Y44727D01*
D02*
G37*
G36*
X-188731Y44725D02*
X-188746Y44553D01*
X-188771Y44401D01*
X-188806Y44269D01*
X-188851Y44158D01*
X-188906Y44067D01*
X-188971Y43996D01*
X-189046Y43946D01*
X-189131Y43915D01*
X-189226Y43905D01*
X-187226D01*
X-187321Y43915D01*
X-187406Y43946D01*
X-187481Y43996D01*
X-187546Y44067D01*
X-187601Y44158D01*
X-187646Y44269D01*
X-187681Y44401D01*
X-187706Y44553D01*
X-187721Y44725D01*
X-187726Y44917D01*
X-188726D01*
X-188731Y44725D01*
D02*
G37*
G36*
X-408562Y43120D02*
X-408516Y43162D01*
X-408465Y43199D01*
X-408409Y43232D01*
X-408348Y43261D01*
X-408282Y43285D01*
X-408210Y43305D01*
X-408134Y43320D01*
X-408052Y43331D01*
X-407965Y43338D01*
X-407873Y43340D01*
Y44140D01*
X-407965Y44142D01*
X-408134Y44160D01*
X-408210Y44175D01*
X-408282Y44195D01*
X-408348Y44219D01*
X-408409Y44248D01*
X-408465Y44281D01*
X-408516Y44318D01*
X-408562Y44360D01*
Y43120D01*
D02*
G37*
G36*
X-180344Y43917D02*
X-180356Y42531D01*
X-180345Y42627D01*
X-180315Y42711D01*
X-180263Y42786D01*
X-180192Y42851D01*
X-180101Y42906D01*
X-179990Y42952D01*
X-179859Y42987D01*
X-179707Y43012D01*
X-179536Y43027D01*
X-179344Y43031D01*
Y44032D01*
X-180344Y43917D01*
D02*
G37*
G36*
X-176622Y44436D02*
X-176652Y44352D01*
X-176702Y44276D01*
X-176772Y44212D01*
X-176862Y44157D01*
X-176972Y44111D01*
X-177102Y44076D01*
X-177252Y44052D01*
X-177422Y44036D01*
X-177612Y44032D01*
Y43031D01*
X-177422Y43027D01*
X-177252Y43012D01*
X-177102Y42987D01*
X-176972Y42952D01*
X-176862Y42906D01*
X-176772Y42851D01*
X-176702Y42786D01*
X-176652Y42711D01*
X-176622Y42627D01*
X-176612Y42531D01*
Y44532D01*
X-176622Y44436D01*
D02*
G37*
G36*
X-172789Y42531D02*
X-172779Y42627D01*
X-172749Y42711D01*
X-172698Y42786D01*
X-172627Y42851D01*
X-172536Y42906D01*
X-172425Y42952D01*
X-172294Y42987D01*
X-172142Y43012D01*
X-171970Y43027D01*
X-171777Y43031D01*
Y44032D01*
X-171970Y44036D01*
X-172142Y44052D01*
X-172294Y44076D01*
X-172425Y44111D01*
X-172536Y44157D01*
X-172627Y44212D01*
X-172698Y44276D01*
X-172749Y44352D01*
X-172779Y44436D01*
X-172789Y44532D01*
Y42531D01*
D02*
G37*
G36*
X-169122Y44436D02*
X-169152Y44352D01*
X-169202Y44276D01*
X-169272Y44212D01*
X-169362Y44157D01*
X-169472Y44111D01*
X-169602Y44076D01*
X-169752Y44052D01*
X-169922Y44036D01*
X-170112Y44032D01*
Y43031D01*
X-169922Y43027D01*
X-169752Y43012D01*
X-169602Y42987D01*
X-169472Y42952D01*
X-169362Y42906D01*
X-169272Y42851D01*
X-169202Y42786D01*
X-169152Y42711D01*
X-169122Y42627D01*
X-169112Y42531D01*
Y44532D01*
X-169122Y44436D01*
D02*
G37*
G36*
X-400108Y43724D02*
X-400132Y43656D01*
X-400173Y43596D01*
X-400230Y43544D01*
X-400303Y43500D01*
X-400392Y43464D01*
X-400498Y43436D01*
X-400619Y43416D01*
X-400757Y43404D01*
X-400912Y43400D01*
Y42600D01*
X-400757Y42596D01*
X-400619Y42584D01*
X-400498Y42564D01*
X-400392Y42536D01*
X-400303Y42500D01*
X-400230Y42456D01*
X-400173Y42404D01*
X-400132Y42344D01*
X-400108Y42276D01*
X-400100Y42200D01*
Y43800D01*
X-400108Y43724D01*
D02*
G37*
G36*
X-193856Y41000D02*
X-193846Y41095D01*
X-193816Y41180D01*
X-193765Y41255D01*
X-193694Y41320D01*
X-193603Y41375D01*
X-193492Y41420D01*
X-193360Y41455D01*
X-193209Y41480D01*
X-193037Y41495D01*
X-192844Y41500D01*
Y42500D01*
X-193037Y42505D01*
X-193209Y42520D01*
X-193360Y42545D01*
X-193492Y42580D01*
X-193603Y42625D01*
X-193694Y42680D01*
X-193765Y42745D01*
X-193816Y42820D01*
X-193846Y42905D01*
X-193856Y43000D01*
Y41000D01*
D02*
G37*
G36*
X-190043Y42905D02*
X-190073Y42820D01*
X-190124Y42745D01*
X-190195Y42680D01*
X-190286Y42625D01*
X-190397Y42580D01*
X-190529Y42545D01*
X-190680Y42520D01*
X-190852Y42505D01*
X-191045Y42500D01*
Y41500D01*
X-190852Y41495D01*
X-190680Y41480D01*
X-190529Y41455D01*
X-190397Y41420D01*
X-190286Y41375D01*
X-190195Y41320D01*
X-190124Y41255D01*
X-190073Y41180D01*
X-190043Y41095D01*
X-190033Y41000D01*
Y43000D01*
X-190043Y42905D01*
D02*
G37*
G36*
X-276718Y38990D02*
X-276744Y38870D01*
X-276787Y38744D01*
X-276848Y38612D01*
X-276925Y38474D01*
X-277020Y38329D01*
X-277132Y38179D01*
X-277407Y37859D01*
X-277571Y37690D01*
X-277288Y36841D01*
X-277178Y36945D01*
X-277080Y37026D01*
X-276993Y37084D01*
X-276918Y37119D01*
X-276854Y37130D01*
X-276802Y37119D01*
X-276762Y37084D01*
X-276733Y37026D01*
X-276716Y36945D01*
X-276710Y36841D01*
Y39104D01*
X-276718Y38990D01*
D02*
G37*
G36*
X-406373Y36818D02*
X-406424Y36781D01*
X-406480Y36748D01*
X-406541Y36719D01*
X-406608Y36695D01*
X-406679Y36675D01*
X-406756Y36660D01*
X-406838Y36649D01*
X-406924Y36642D01*
X-407017Y36640D01*
Y35841D01*
X-406924Y35838D01*
X-406756Y35821D01*
X-406679Y35805D01*
X-406608Y35785D01*
X-406541Y35761D01*
X-406480Y35732D01*
X-406424Y35699D01*
X-406373Y35662D01*
X-406327Y35620D01*
Y36860D01*
X-406373Y36818D01*
D02*
G37*
G36*
X-409911Y35465D02*
X-409903Y35536D01*
X-409879Y35600D01*
X-409839Y35656D01*
X-409783Y35705D01*
X-409712Y35747D01*
X-409624Y35780D01*
X-409520Y35807D01*
X-409400Y35825D01*
X-409264Y35837D01*
X-409112Y35841D01*
Y36640D01*
X-409264Y36643D01*
X-409400Y36655D01*
X-409520Y36674D01*
X-409624Y36700D01*
X-409712Y36734D01*
X-409783Y36775D01*
X-409839Y36824D01*
X-409879Y36880D01*
X-409903Y36944D01*
X-409911Y37016D01*
Y35465D01*
D02*
G37*
G36*
X-393195Y64000D02*
Y42500D01*
X-391945Y41250D01*
X-396195Y37000D01*
X-396695D01*
Y35500D01*
X-395695Y34500D01*
X-382695D01*
X-379195Y38000D01*
X-367195D01*
X-361695Y43500D01*
X-361695Y49000D01*
X-357695Y53000D01*
X-353195Y53000D01*
X-349195Y57000D01*
X-313695D01*
X-309194Y52500D01*
X-309194D01*
X-305695Y49000D01*
Y29046D01*
X-306587Y29108D01*
X-306647Y29137D01*
X-306667Y29169D01*
Y26831D01*
X-306647Y26863D01*
X-306587Y26892D01*
X-306487Y26917D01*
X-306347Y26939D01*
X-306167Y26958D01*
X-305695Y26979D01*
Y22500D01*
X-303695Y20500D01*
X-303695Y-7500D01*
X-301195Y-10000D01*
Y-24000D01*
X-281195D01*
X-280061Y-22866D01*
X-280000Y-22851D01*
X-279878Y-22829D01*
X-279543Y-22795D01*
X-278816Y-22761D01*
X-278047Y-22753D01*
X-277937Y-22754D01*
X-277457Y-22788D01*
X-277262Y-22817D01*
X-277097Y-22855D01*
X-276962Y-22901D01*
X-276857Y-22955D01*
X-276782Y-23018D01*
X-276737Y-23089D01*
X-276722Y-23169D01*
Y-20831D01*
X-276737Y-20910D01*
X-276782Y-20982D01*
X-276857Y-21045D01*
X-276962Y-21099D01*
X-277097Y-21145D01*
X-277262Y-21183D01*
X-277457Y-21212D01*
X-277682Y-21233D01*
X-277808Y-21237D01*
X-277944Y-21221D01*
X-278109Y-21185D01*
X-278258Y-21134D01*
X-278389Y-21069D01*
X-278502Y-20990D01*
X-278598Y-20896D01*
X-278678Y-20787D01*
X-278739Y-20665D01*
X-278784Y-20527D01*
X-279195Y-21264D01*
X-279194Y-10500D01*
X-288695Y-1000D01*
Y3000D01*
X-281194Y10500D01*
X-281195Y50500D01*
X-283195Y52500D01*
X-283195Y55543D01*
X-298651Y71000D01*
X-386195Y71000D01*
X-393195Y64000D01*
D02*
G37*
G36*
X-175600Y35652D02*
X-175515Y35621D01*
X-175440Y35571D01*
X-175375Y35500D01*
X-175320Y35409D01*
X-175275Y35298D01*
X-175240Y35166D01*
X-175215Y35014D01*
X-175200Y34842D01*
X-175195Y34650D01*
X-174457D01*
X-175195Y33543D01*
X-175066Y33350D01*
X-175195D01*
X-175200Y33158D01*
X-175215Y32986D01*
X-175240Y32834D01*
X-175275Y32702D01*
X-175320Y32591D01*
X-175375Y32500D01*
X-175440Y32429D01*
X-175515Y32379D01*
X-175600Y32348D01*
X-175695Y32338D01*
X-174391D01*
X-174195Y32043D01*
X-174185Y32233D01*
X-174166Y32338D01*
X-173695D01*
X-173790Y32348D01*
X-173875Y32379D01*
X-173950Y32429D01*
X-174015Y32500D01*
X-174070Y32591D01*
X-174076Y32607D01*
X-174035Y32683D01*
X-173945Y32793D01*
X-173835Y32883D01*
X-173705Y32953D01*
X-173555Y33003D01*
X-173385Y33033D01*
X-173320Y33037D01*
X-173139Y33022D01*
X-173072Y33010D01*
X-173013Y32996D01*
X-172962Y32979D01*
X-172919Y32959D01*
X-172884Y32937D01*
X-172857Y32912D01*
X-172796Y34150D01*
X-172823Y34130D01*
X-172858Y34112D01*
X-172901Y34096D01*
X-172952Y34082D01*
X-173011Y34070D01*
X-173078Y34060D01*
X-173236Y34048D01*
X-173264Y34047D01*
X-173385Y34053D01*
X-173555Y34083D01*
X-173705Y34133D01*
X-173835Y34203D01*
X-173945Y34293D01*
X-174035Y34403D01*
X-174105Y34533D01*
X-174155Y34683D01*
X-174185Y34853D01*
X-174186Y34882D01*
X-174175Y35014D01*
X-174150Y35166D01*
X-174115Y35298D01*
X-174070Y35409D01*
X-174015Y35500D01*
X-173950Y35571D01*
X-173875Y35621D01*
X-173790Y35652D01*
X-173695Y35662D01*
X-175695D01*
X-175600Y35652D01*
D02*
G37*
G36*
X-165612Y33500D02*
X-165513Y33498D01*
X-165345Y33486D01*
X-165276Y33475D01*
X-165217Y33461D01*
X-165167Y33444D01*
X-165127Y33424D01*
X-165097Y33401D01*
X-165077Y33375D01*
X-165067Y33345D01*
X-164430Y34354D01*
X-165457Y34500D01*
X-165612Y33500D01*
D02*
G37*
G36*
X-168100Y35652D02*
X-168015Y35621D01*
X-167940Y35571D01*
X-167875Y35500D01*
X-167820Y35409D01*
X-167775Y35298D01*
X-167740Y35166D01*
X-167715Y35014D01*
X-167700Y34842D01*
X-167695Y34650D01*
X-167261D01*
X-167695Y34000D01*
X-167261Y33350D01*
X-167695D01*
X-167700Y33158D01*
X-167715Y32986D01*
X-167740Y32834D01*
X-167775Y32702D01*
X-167820Y32591D01*
X-167875Y32500D01*
X-167940Y32429D01*
X-168015Y32379D01*
X-168100Y32348D01*
X-168195Y32338D01*
X-166195D01*
X-166290Y32348D01*
X-166375Y32379D01*
X-166450Y32429D01*
X-166515Y32500D01*
X-166570Y32591D01*
X-166615Y32702D01*
X-166650Y32834D01*
X-166654Y32862D01*
X-166605Y33010D01*
X-166535Y33140D01*
X-166445Y33250D01*
X-166335Y33340D01*
X-166205Y33410D01*
X-166055Y33460D01*
X-165885Y33490D01*
X-165695Y33500D01*
Y34500D01*
X-165885Y34510D01*
X-166055Y34540D01*
X-166205Y34590D01*
X-166335Y34660D01*
X-166445Y34750D01*
X-166535Y34860D01*
X-166605Y34990D01*
X-166654Y35138D01*
X-166650Y35166D01*
X-166615Y35298D01*
X-166570Y35409D01*
X-166515Y35500D01*
X-166450Y35571D01*
X-166375Y35621D01*
X-166290Y35652D01*
X-166195Y35662D01*
X-168195D01*
X-168100Y35652D01*
D02*
G37*
G36*
X-184700Y32048D02*
X-184715Y31876D01*
X-184740Y31724D01*
X-184775Y31592D01*
X-184820Y31481D01*
X-184875Y31390D01*
X-184940Y31319D01*
X-185015Y31269D01*
X-185100Y31238D01*
X-185195Y31228D01*
X-183195D01*
X-183290Y31238D01*
X-183375Y31269D01*
X-183450Y31319D01*
X-183515Y31390D01*
X-183570Y31481D01*
X-183615Y31592D01*
X-183650Y31724D01*
X-183675Y31876D01*
X-183690Y32048D01*
X-183695Y32240D01*
X-184695D01*
X-184700Y32048D01*
D02*
G37*
G36*
X-406373Y31818D02*
X-406424Y31781D01*
X-406480Y31748D01*
X-406541Y31719D01*
X-406608Y31695D01*
X-406679Y31675D01*
X-406756Y31660D01*
X-406838Y31649D01*
X-406924Y31642D01*
X-407017Y31640D01*
Y30841D01*
X-406924Y30838D01*
X-406756Y30821D01*
X-406679Y30805D01*
X-406608Y30785D01*
X-406541Y30761D01*
X-406480Y30733D01*
X-406424Y30700D01*
X-406373Y30662D01*
X-406327Y30620D01*
Y31860D01*
X-406373Y31818D01*
D02*
G37*
G36*
X-328202Y31824D02*
X-328223Y31655D01*
X-328258Y31493D01*
X-328307Y31338D01*
X-328370Y31190D01*
X-328448Y31049D01*
X-328539Y30916D01*
X-328645Y30789D01*
X-328764Y30670D01*
X-328898Y30558D01*
X-326491D01*
X-326625Y30670D01*
X-326744Y30789D01*
X-326850Y30916D01*
X-326941Y31049D01*
X-327019Y31190D01*
X-327082Y31338D01*
X-327131Y31493D01*
X-327166Y31655D01*
X-327187Y31824D01*
X-327195Y32000D01*
X-328195D01*
X-328202Y31824D01*
D02*
G37*
G36*
X-409911Y30465D02*
X-409903Y30536D01*
X-409879Y30600D01*
X-409839Y30656D01*
X-409783Y30705D01*
X-409712Y30747D01*
X-409624Y30780D01*
X-409520Y30807D01*
X-409400Y30825D01*
X-409264Y30837D01*
X-409112Y30841D01*
Y31640D01*
X-409264Y31644D01*
X-409400Y31655D01*
X-409520Y31674D01*
X-409624Y31700D01*
X-409712Y31734D01*
X-409783Y31775D01*
X-409839Y31824D01*
X-409879Y31880D01*
X-409903Y31944D01*
X-409911Y32016D01*
Y30465D01*
D02*
G37*
G36*
X-335597Y28230D02*
X-335614Y28061D01*
X-335630Y27984D01*
X-335650Y27913D01*
X-335674Y27846D01*
X-335702Y27785D01*
X-335735Y27729D01*
X-335773Y27678D01*
X-335815Y27633D01*
X-334575D01*
X-334616Y27678D01*
X-334654Y27729D01*
X-334687Y27785D01*
X-334715Y27846D01*
X-334739Y27913D01*
X-334759Y27984D01*
X-334775Y28061D01*
X-334786Y28143D01*
X-334792Y28230D01*
X-334795Y28322D01*
X-335595D01*
X-335597Y28230D01*
D02*
G37*
G36*
X-219668Y28227D02*
X-219683Y28057D01*
X-219708Y27907D01*
X-219743Y27777D01*
X-219788Y27667D01*
X-219843Y27577D01*
X-219908Y27507D01*
X-219983Y27457D01*
X-220068Y27427D01*
X-220163Y27417D01*
X-218163D01*
X-218258Y27427D01*
X-218343Y27457D01*
X-218418Y27507D01*
X-218483Y27577D01*
X-218538Y27667D01*
X-218583Y27777D01*
X-218618Y27907D01*
X-218643Y28057D01*
X-218658Y28227D01*
X-218663Y28417D01*
X-219663D01*
X-219668Y28227D01*
D02*
G37*
G36*
X-311161Y28668D02*
X-311255Y28633D01*
X-311384Y28602D01*
X-311547Y28575D01*
X-311979Y28533D01*
X-312889Y28502D01*
X-313261Y28500D01*
Y27500D01*
X-312889Y27498D01*
X-311384Y27398D01*
X-311255Y27367D01*
X-311161Y27332D01*
X-311102Y27292D01*
Y28708D01*
X-311161Y28668D01*
D02*
G37*
G36*
X-327092Y27126D02*
X-326864Y27197D01*
X-325866Y27440D01*
X-325695Y27466D01*
X-325381Y27496D01*
X-325239Y27500D01*
X-324609Y28500D01*
X-324789Y28510D01*
X-324955Y28539D01*
X-325107Y28587D01*
X-325245Y28656D01*
X-325370Y28743D01*
X-325480Y28850D01*
X-325577Y28977D01*
X-325660Y29123D01*
X-325729Y29288D01*
X-325784Y29473D01*
X-327092Y27126D01*
D02*
G37*
G36*
X-314122Y28905D02*
X-314152Y28820D01*
X-314203Y28745D01*
X-314273Y28680D01*
X-314365Y28625D01*
X-314476Y28580D01*
X-314607Y28545D01*
X-314759Y28520D01*
X-314931Y28505D01*
X-315124Y28500D01*
Y27500D01*
X-314931Y27495D01*
X-314759Y27480D01*
X-314607Y27455D01*
X-314476Y27420D01*
X-314365Y27375D01*
X-314273Y27320D01*
X-314203Y27255D01*
X-314152Y27180D01*
X-314122Y27095D01*
X-314111Y27000D01*
Y29000D01*
X-314122Y28905D01*
D02*
G37*
G36*
X-172789Y25274D02*
X-172868Y25259D01*
X-173048Y25237D01*
X-173422Y25218D01*
X-173824Y23719D01*
X-173628Y23711D01*
X-173444Y23690D01*
X-173271Y23653D01*
X-173110Y23603D01*
X-172961Y23538D01*
X-172823Y23459D01*
X-172789Y23433D01*
Y22968D01*
X-172774Y23111D01*
X-172729Y23238D01*
X-172665Y23334D01*
X-172582Y23256D01*
X-172479Y23133D01*
X-172388Y22996D01*
X-171668Y23702D01*
X-171565Y23711D01*
X-171277Y23719D01*
Y24085D01*
X-170695Y24656D01*
X-170612Y24575D01*
Y23719D01*
X-170327Y23711D01*
X-170072Y23688D01*
X-169847Y23651D01*
X-169652Y23598D01*
X-169590Y23573D01*
X-169131Y23124D01*
X-169127Y23111D01*
X-169112Y22968D01*
Y23104D01*
X-169001Y22996D01*
X-168910Y23133D01*
X-168807Y23256D01*
X-168692Y23365D01*
X-168566Y23459D01*
X-168428Y23538D01*
X-168279Y23603D01*
X-168118Y23653D01*
X-167945Y23690D01*
X-167761Y23711D01*
X-167565Y23719D01*
X-167967Y25218D01*
X-168341Y25237D01*
X-168521Y25259D01*
X-168697Y25291D01*
X-168868Y25332D01*
X-169035Y25382D01*
X-169112Y25410D01*
Y25969D01*
X-169127Y25826D01*
X-169172Y25699D01*
X-169247Y25586D01*
X-169337Y25502D01*
X-169355Y25509D01*
X-169508Y25587D01*
X-169657Y25673D01*
X-170092Y25247D01*
X-170327Y25226D01*
X-170612Y25218D01*
Y24737D01*
X-170695Y24656D01*
X-171732Y25673D01*
X-171881Y25587D01*
X-172034Y25509D01*
X-172192Y25441D01*
X-172353Y25382D01*
X-172411Y25406D01*
X-172547Y25488D01*
X-172653Y25586D01*
X-172729Y25699D01*
X-172774Y25826D01*
X-172789Y25969D01*
Y25274D01*
D02*
G37*
G36*
X-345186Y25614D02*
X-345124Y25611D01*
X-345061Y25602D01*
X-344998Y25586D01*
X-344935Y25563D01*
X-344870Y25533D01*
X-344806Y25496D01*
X-344741Y25453D01*
X-344675Y25403D01*
X-344609Y25346D01*
X-344542Y25283D01*
X-343977Y25848D01*
X-344041Y25914D01*
X-344148Y26046D01*
X-344191Y26111D01*
X-344227Y26176D01*
X-344257Y26240D01*
X-344280Y26304D01*
X-344297Y26367D01*
X-344306Y26429D01*
X-344309Y26491D01*
X-345186Y25614D01*
D02*
G37*
G36*
X-349973Y24422D02*
X-349935Y24371D01*
X-349902Y24315D01*
X-349873Y24253D01*
X-349849Y24187D01*
X-349829Y24115D01*
X-349814Y24039D01*
X-349803Y23957D01*
X-349796Y23870D01*
X-349794Y23778D01*
X-348995D01*
X-348993Y23870D01*
X-348975Y24039D01*
X-348960Y24115D01*
X-348940Y24187D01*
X-348916Y24253D01*
X-348887Y24315D01*
X-348854Y24371D01*
X-348816Y24422D01*
X-348775Y24467D01*
X-350015D01*
X-349973Y24422D01*
D02*
G37*
G36*
X-226131Y23585D02*
X-226046Y23554D01*
X-225971Y23504D01*
X-225906Y23433D01*
X-225851Y23342D01*
X-225806Y23231D01*
X-225771Y23099D01*
X-225746Y22947D01*
X-225731Y22775D01*
X-225726Y22583D01*
X-224726D01*
X-224721Y22775D01*
X-224706Y22947D01*
X-224681Y23099D01*
X-224646Y23231D01*
X-224601Y23342D01*
X-224546Y23433D01*
X-224481Y23504D01*
X-224406Y23554D01*
X-224321Y23585D01*
X-224226Y23595D01*
X-226226D01*
X-226131Y23585D01*
D02*
G37*
G36*
X-220068D02*
X-219983Y23554D01*
X-219908Y23504D01*
X-219843Y23433D01*
X-219788Y23342D01*
X-219743Y23231D01*
X-219708Y23099D01*
X-219683Y22947D01*
X-219668Y22775D01*
X-219663Y22583D01*
X-218663D01*
X-218658Y22775D01*
X-218643Y22947D01*
X-218618Y23099D01*
X-218583Y23231D01*
X-218538Y23342D01*
X-218483Y23433D01*
X-218418Y23504D01*
X-218343Y23554D01*
X-218258Y23585D01*
X-218163Y23595D01*
X-220163D01*
X-220068Y23585D01*
D02*
G37*
G36*
X-308157Y21843D02*
X-308080Y21871D01*
X-307995Y21880D01*
X-307902Y21870D01*
X-307800Y21841D01*
X-307691Y21793D01*
X-307574Y21725D01*
X-307449Y21639D01*
X-307316Y21533D01*
X-307175Y21409D01*
X-307026Y21265D01*
X-306101Y21473D01*
X-306277Y21654D01*
X-306550Y21971D01*
X-306647Y22106D01*
X-306717Y22227D01*
X-306762Y22333D01*
X-306781Y22423D01*
X-306773Y22499D01*
X-306739Y22559D01*
X-306679Y22604D01*
X-308157Y21843D01*
D02*
G37*
G36*
X-225731Y20225D02*
X-225746Y20053D01*
X-225771Y19901D01*
X-225806Y19770D01*
X-225851Y19658D01*
X-225906Y19567D01*
X-225971Y19496D01*
X-226046Y19446D01*
X-226131Y19415D01*
X-226226Y19405D01*
X-224226D01*
X-224321Y19415D01*
X-224406Y19446D01*
X-224481Y19496D01*
X-224546Y19567D01*
X-224601Y19658D01*
X-224646Y19770D01*
X-224681Y19901D01*
X-224706Y20053D01*
X-224721Y20225D01*
X-224726Y20417D01*
X-225726D01*
X-225731Y20225D01*
D02*
G37*
G36*
X-219668D02*
X-219683Y20053D01*
X-219708Y19901D01*
X-219743Y19770D01*
X-219788Y19658D01*
X-219843Y19567D01*
X-219908Y19496D01*
X-219983Y19446D01*
X-220068Y19415D01*
X-220163Y19405D01*
X-218163D01*
X-218258Y19415D01*
X-218343Y19446D01*
X-218418Y19496D01*
X-218483Y19567D01*
X-218538Y19658D01*
X-218583Y19770D01*
X-218618Y19901D01*
X-218643Y20053D01*
X-218658Y20225D01*
X-218663Y20417D01*
X-219663D01*
X-219668Y20225D01*
D02*
G37*
G36*
X-185100Y19750D02*
X-185015Y19720D01*
X-184940Y19670D01*
X-184875Y19600D01*
X-184820Y19510D01*
X-184775Y19400D01*
X-184740Y19270D01*
X-184715Y19120D01*
X-184700Y18950D01*
X-184695Y18760D01*
X-183695D01*
X-183690Y18950D01*
X-183675Y19120D01*
X-183650Y19270D01*
X-183615Y19400D01*
X-183570Y19510D01*
X-183515Y19600D01*
X-183450Y19670D01*
X-183375Y19720D01*
X-183290Y19750D01*
X-183195Y19760D01*
X-185195D01*
X-185100Y19750D01*
D02*
G37*
G36*
X-234290Y18225D02*
X-234209Y18276D01*
X-234115Y18299D01*
X-234007Y18296D01*
X-233885Y18265D01*
X-233751Y18207D01*
X-233602Y18121D01*
X-233441Y18008D01*
X-233266Y17868D01*
X-232876Y17506D01*
X-232070Y18114D01*
X-232274Y18325D01*
X-232593Y18700D01*
X-232709Y18864D01*
X-232796Y19014D01*
X-232853Y19147D01*
X-232881Y19266D01*
X-232880Y19369D01*
X-232849Y19456D01*
X-232789Y19529D01*
X-234290Y18225D01*
D02*
G37*
G36*
X-227043Y18405D02*
X-227073Y18320D01*
X-227124Y18245D01*
X-227195Y18180D01*
X-227286Y18125D01*
X-227397Y18080D01*
X-227529Y18045D01*
X-227680Y18020D01*
X-227853Y18005D01*
X-228045Y18000D01*
Y17000D01*
X-227853Y16995D01*
X-227680Y16980D01*
X-227529Y16955D01*
X-227397Y16920D01*
X-227286Y16875D01*
X-227195Y16820D01*
X-227124Y16755D01*
X-227073Y16680D01*
X-227043Y16595D01*
X-227033Y16500D01*
Y18500D01*
X-227043Y18405D01*
D02*
G37*
G36*
X-177039Y16917D02*
X-177056Y16865D01*
X-177085Y16806D01*
X-177125Y16739D01*
X-177177Y16665D01*
X-177316Y16494D01*
X-177500Y16293D01*
X-177610Y16181D01*
X-177152Y15509D01*
X-177129Y15529D01*
X-177109Y15543D01*
X-177091Y15549D01*
X-177076Y15549D01*
X-177063Y15542D01*
X-177052Y15527D01*
X-177043Y15506D01*
X-177038Y15478D01*
X-177034Y15443D01*
X-177033Y15401D01*
Y16961D01*
X-177039Y16917D01*
D02*
G37*
G36*
X-167344Y15083D02*
X-167339Y15179D01*
X-167322Y15252D01*
X-167294Y15304D01*
X-167254Y15334D01*
X-167203Y15342D01*
X-167141Y15327D01*
X-167067Y15291D01*
X-166983Y15233D01*
X-166887Y15153D01*
X-166779Y15051D01*
Y16181D01*
X-166888Y16296D01*
X-166986Y16410D01*
X-167072Y16524D01*
X-167147Y16638D01*
X-167211Y16751D01*
X-167263Y16864D01*
X-167303Y16976D01*
X-167332Y17088D01*
X-167350Y17200D01*
X-167356Y17312D01*
X-167344Y15083D01*
D02*
G37*
G36*
X-226131Y15573D02*
X-226046Y15543D01*
X-225971Y15493D01*
X-225906Y15423D01*
X-225851Y15333D01*
X-225806Y15223D01*
X-225771Y15093D01*
X-225746Y14943D01*
X-225731Y14773D01*
X-225726Y14583D01*
X-224726D01*
X-224721Y14773D01*
X-224706Y14943D01*
X-224681Y15093D01*
X-224646Y15223D01*
X-224601Y15333D01*
X-224546Y15423D01*
X-224481Y15493D01*
X-224406Y15543D01*
X-224321Y15573D01*
X-224226Y15583D01*
X-226226D01*
X-226131Y15573D01*
D02*
G37*
G36*
X-220068D02*
X-219983Y15543D01*
X-219908Y15493D01*
X-219843Y15423D01*
X-219788Y15333D01*
X-219743Y15223D01*
X-219708Y15093D01*
X-219683Y14943D01*
X-219668Y14773D01*
X-219663Y14583D01*
X-218663D01*
X-218658Y14773D01*
X-218643Y14943D01*
X-218618Y15093D01*
X-218583Y15223D01*
X-218538Y15333D01*
X-218483Y15423D01*
X-218418Y15493D01*
X-218343Y15543D01*
X-218258Y15573D01*
X-218163Y15583D01*
X-220163D01*
X-220068Y15573D01*
D02*
G37*
G36*
X-262383Y13656D02*
X-262339Y13634D01*
X-262282Y13598D01*
X-262213Y13546D01*
X-262036Y13398D01*
X-261531Y12921D01*
X-261373Y12765D01*
X-259276Y13496D01*
X-259423Y13649D01*
X-259658Y13940D01*
X-259747Y14077D01*
X-259815Y14208D01*
X-259864Y14333D01*
X-259894Y14452D01*
X-259904Y14565D01*
X-259894Y14673D01*
X-259865Y14775D01*
X-262383Y13656D01*
D02*
G37*
G36*
X-177838Y12936D02*
X-177850Y12798D01*
X-177870Y12677D01*
X-177898Y12571D01*
X-177934Y12482D01*
X-177978Y12409D01*
X-178030Y12352D01*
X-178090Y12312D01*
X-178158Y12287D01*
X-178234Y12279D01*
X-176636D01*
X-176711Y12287D01*
X-176779Y12312D01*
X-176839Y12352D01*
X-176891Y12409D01*
X-176935Y12482D01*
X-176971Y12571D01*
X-176999Y12677D01*
X-177019Y12798D01*
X-177031Y12936D01*
X-177035Y13090D01*
X-177834D01*
X-177838Y12936D01*
D02*
G37*
G36*
X-217951Y12049D02*
X-217265Y11342D01*
X-215124D01*
X-215269Y11353D01*
X-215420Y11385D01*
X-215579Y11438D01*
X-215745Y11512D01*
X-215918Y11608D01*
X-216099Y11724D01*
X-216286Y11862D01*
X-216682Y12201D01*
X-216890Y12403D01*
X-217951Y12049D01*
D02*
G37*
G36*
X-222972Y11571D02*
X-222764Y11355D01*
X-222439Y10974D01*
X-222323Y10808D01*
X-222237Y10658D01*
X-222181Y10525D01*
X-222156Y10408D01*
X-222162Y10308D01*
X-222198Y10224D01*
X-222265Y10157D01*
X-220623Y11342D01*
X-220711Y11296D01*
X-220811Y11276D01*
X-220922Y11281D01*
X-221046Y11313D01*
X-221182Y11371D01*
X-221329Y11455D01*
X-221488Y11564D01*
X-221659Y11700D01*
X-221842Y11862D01*
X-222037Y12049D01*
X-222972Y11571D01*
D02*
G37*
G36*
X-314078Y13129D02*
X-314065Y13049D01*
X-314072Y12958D01*
X-314100Y12859D01*
X-314147Y12751D01*
X-314215Y12633D01*
X-314303Y12506D01*
X-314411Y12370D01*
X-314689Y12071D01*
X-314364Y11266D01*
X-314188Y11436D01*
X-313878Y11701D01*
X-313744Y11796D01*
X-313625Y11867D01*
X-313519Y11912D01*
X-313426Y11932D01*
X-313348Y11927D01*
X-313284Y11898D01*
X-313233Y11843D01*
X-314111Y13201D01*
X-314078Y13129D01*
D02*
G37*
G36*
X-235600Y12152D02*
X-235515Y12121D01*
X-235440Y12071D01*
X-235375Y12000D01*
X-235320Y11909D01*
X-235275Y11797D01*
X-235240Y11666D01*
X-235215Y11514D01*
X-235200Y11342D01*
X-235195Y11150D01*
X-234195D01*
X-234190Y11342D01*
X-234175Y11514D01*
X-234150Y11666D01*
X-234115Y11797D01*
X-234070Y11909D01*
X-234015Y12000D01*
X-233950Y12071D01*
X-233875Y12121D01*
X-233790Y12152D01*
X-233695Y12162D01*
X-235695D01*
X-235600Y12152D01*
D02*
G37*
G36*
X-163213Y11485D02*
X-163149Y11417D01*
X-163094Y11351D01*
X-163049Y11287D01*
X-163013Y11224D01*
X-162986Y11163D01*
X-162969Y11103D01*
X-162961Y11046D01*
X-162962Y10990D01*
X-162973Y10936D01*
X-162993Y10884D01*
X-161837Y11311D01*
X-161865Y11325D01*
X-161898Y11345D01*
X-161935Y11372D01*
X-162023Y11443D01*
X-162190Y11595D01*
X-162325Y11727D01*
X-163213Y11485D01*
D02*
G37*
G36*
X-259696Y11279D02*
X-259749Y10524D01*
X-259768Y10443D01*
X-259790Y10385D01*
X-259816Y10350D01*
X-259844Y10338D01*
X-257545D01*
X-257573Y10350D01*
X-257599Y10385D01*
X-257621Y10443D01*
X-257641Y10524D01*
X-257657Y10629D01*
X-257681Y10908D01*
X-257693Y11279D01*
X-257695Y11500D01*
X-259695D01*
X-259696Y11279D01*
D02*
G37*
G36*
X-201488Y10881D02*
X-201713Y9229D01*
X-203016Y7940D01*
X-202907Y7940D01*
X-202810Y7920D01*
X-202724Y7880D01*
X-202650Y7819D01*
X-202587Y7739D01*
X-202536Y7638D01*
X-202496Y7517D01*
X-202467Y7375D01*
X-202450Y7213D01*
X-202445Y7032D01*
X-200945Y7444D01*
X-201137Y8932D01*
X-199924Y9710D01*
X-200469Y11286D01*
X-201488Y10881D01*
D02*
G37*
G36*
X-235200Y8658D02*
X-235215Y8486D01*
X-235240Y8334D01*
X-235275Y8202D01*
X-235320Y8091D01*
X-235375Y8000D01*
X-235440Y7929D01*
X-235515Y7879D01*
X-235600Y7848D01*
X-235695Y7838D01*
X-233695D01*
X-233790Y7848D01*
X-233875Y7879D01*
X-233950Y7929D01*
X-234015Y8000D01*
X-234070Y8091D01*
X-234115Y8202D01*
X-234150Y8334D01*
X-234175Y8486D01*
X-234190Y8658D01*
X-234195Y8850D01*
X-235195D01*
X-235200Y8658D01*
D02*
G37*
G36*
X-170711Y9388D02*
X-170732Y9204D01*
X-170766Y9028D01*
X-170814Y8862D01*
X-170876Y8706D01*
X-170951Y8558D01*
X-171041Y8421D01*
X-171144Y8292D01*
X-171260Y8173D01*
X-171391Y8063D01*
X-168655Y7727D01*
X-168760Y7868D01*
X-168853Y8014D01*
X-168935Y8165D01*
X-169007Y8322D01*
X-169067Y8485D01*
X-169117Y8654D01*
X-169155Y8828D01*
X-169182Y9007D01*
X-169199Y9192D01*
X-169204Y9382D01*
X-170704Y9582D01*
X-170711Y9388D01*
D02*
G37*
G36*
X-314119Y8666D02*
X-314141Y8610D01*
X-314178Y8561D01*
X-314230Y8518D01*
X-314297Y8482D01*
X-314378Y8452D01*
X-314474Y8429D01*
X-314585Y8413D01*
X-314711Y8403D01*
X-314852Y8400D01*
Y7600D01*
X-314711Y7597D01*
X-314585Y7587D01*
X-314474Y7571D01*
X-314378Y7548D01*
X-314297Y7518D01*
X-314230Y7482D01*
X-314178Y7439D01*
X-314141Y7390D01*
X-314119Y7334D01*
X-314111Y7271D01*
Y8729D01*
X-314119Y8666D01*
D02*
G37*
G36*
X-168588Y7394D02*
X-168580Y7390D01*
X-168564Y7377D01*
X-168539Y7356D01*
X-168223Y7050D01*
X-168142Y6970D01*
X-167528Y8477D01*
X-167731Y8688D01*
X-168073Y9101D01*
X-168213Y9302D01*
X-168331Y9499D01*
X-168427Y9693D01*
X-168502Y9883D01*
X-168556Y10069D01*
X-168589Y10251D01*
X-168600Y10430D01*
X-168588Y7394D01*
D02*
G37*
G36*
X-134354Y7197D02*
X-134146Y6982D01*
X-133821Y6601D01*
X-133704Y6435D01*
X-133617Y6285D01*
X-133560Y6152D01*
X-133533Y6035D01*
X-133537Y5935D01*
X-133571Y5850D01*
X-133635Y5782D01*
X-132036Y6988D01*
X-132122Y6941D01*
X-132220Y6921D01*
X-132330Y6927D01*
X-132453Y6960D01*
X-132588Y7018D01*
X-132735Y7103D01*
X-132896Y7215D01*
X-133068Y7352D01*
X-133450Y7707D01*
X-134354Y7197D01*
D02*
G37*
G36*
X-123881D02*
X-123574Y6879D01*
X-123093Y6314D01*
X-122919Y6067D01*
X-122790Y5843D01*
X-122705Y5643D01*
X-122664Y5466D01*
X-122668Y5312D01*
X-122716Y5182D01*
X-122808Y5075D01*
X-120502Y6988D01*
X-120627Y6913D01*
X-120771Y6879D01*
X-120934Y6885D01*
X-121117Y6931D01*
X-121319Y7018D01*
X-121541Y7146D01*
X-121782Y7314D01*
X-122043Y7522D01*
X-122624Y8061D01*
X-123881Y7197D01*
D02*
G37*
G36*
X-191777Y5750D02*
X-191767Y5845D01*
X-191737Y5930D01*
X-191687Y6005D01*
X-191617Y6070D01*
X-191527Y6125D01*
X-191417Y6170D01*
X-191287Y6205D01*
X-191137Y6230D01*
X-190967Y6245D01*
X-190777Y6250D01*
Y7250D01*
X-190967Y7255D01*
X-191137Y7270D01*
X-191287Y7295D01*
X-191417Y7330D01*
X-191527Y7375D01*
X-191617Y7430D01*
X-191687Y7495D01*
X-191737Y7570D01*
X-191767Y7655D01*
X-191777Y7750D01*
Y5750D01*
D02*
G37*
G36*
X-187610Y7655D02*
X-187640Y7570D01*
X-187691Y7495D01*
X-187762Y7430D01*
X-187853Y7375D01*
X-187964Y7330D01*
X-188096Y7295D01*
X-188247Y7270D01*
X-188419Y7255D01*
X-188612Y7250D01*
Y6250D01*
X-188419Y6245D01*
X-188247Y6230D01*
X-188096Y6205D01*
X-187964Y6170D01*
X-187853Y6125D01*
X-187762Y6070D01*
X-187691Y6005D01*
X-187640Y5930D01*
X-187610Y5845D01*
X-187600Y5750D01*
Y7750D01*
X-187610Y7655D01*
D02*
G37*
G36*
X-227206Y7759D02*
X-227185Y7661D01*
X-227191Y7551D01*
X-227223Y7429D01*
X-227282Y7294D01*
X-227367Y7146D01*
X-227479Y6986D01*
X-227617Y6813D01*
X-227972Y6429D01*
X-227446Y5541D01*
X-227232Y5748D01*
X-226852Y6073D01*
X-226687Y6190D01*
X-226537Y6277D01*
X-226404Y6334D01*
X-226287Y6360D01*
X-226186Y6357D01*
X-226101Y6324D01*
X-226032Y6260D01*
X-227253Y7843D01*
X-227206Y7759D01*
D02*
G37*
G36*
X-185290Y5225D02*
X-185209Y5276D01*
X-185115Y5299D01*
X-185007Y5296D01*
X-184885Y5265D01*
X-184750Y5207D01*
X-184602Y5121D01*
X-184441Y5008D01*
X-184266Y4868D01*
X-183876Y4506D01*
X-183070Y5114D01*
X-183274Y5325D01*
X-183593Y5700D01*
X-183709Y5864D01*
X-183796Y6013D01*
X-183853Y6147D01*
X-183881Y6266D01*
X-183880Y6369D01*
X-183849Y6456D01*
X-183789Y6529D01*
X-185290Y5225D01*
D02*
G37*
G36*
X-161460Y5711D02*
X-161574Y5617D01*
X-161846Y5421D01*
X-162005Y5320D01*
X-162572Y5005D01*
X-163025Y4785D01*
X-160449Y3910D01*
X-160533Y4091D01*
X-160595Y4265D01*
X-160634Y4435D01*
X-160650Y4600D01*
X-160644Y4759D01*
X-160615Y4913D01*
X-160563Y5062D01*
X-160489Y5205D01*
X-160392Y5344D01*
X-160273Y5477D01*
X-161361Y5804D01*
X-161460Y5711D01*
D02*
G37*
G36*
X-154511Y5161D02*
X-154542Y5076D01*
X-154592Y5001D01*
X-154663Y4936D01*
X-154754Y4881D01*
X-154866Y4836D01*
X-154997Y4801D01*
X-155149Y4776D01*
X-155321Y4761D01*
X-155513Y4756D01*
Y3756D01*
X-155321Y3751D01*
X-155149Y3736D01*
X-154997Y3711D01*
X-154866Y3676D01*
X-154754Y3631D01*
X-154663Y3576D01*
X-154592Y3511D01*
X-154542Y3436D01*
X-154511Y3351D01*
X-154501Y3256D01*
Y5256D01*
X-154511Y5161D01*
D02*
G37*
G36*
X-314120Y3723D02*
X-314144Y3655D01*
X-314184Y3595D01*
X-314241Y3543D01*
X-314314Y3500D01*
X-314404Y3463D01*
X-314509Y3436D01*
X-314631Y3416D01*
X-314769Y3404D01*
X-314923Y3400D01*
Y2600D01*
X-314769Y2596D01*
X-314631Y2584D01*
X-314509Y2564D01*
X-314404Y2537D01*
X-314314Y2500D01*
X-314241Y2457D01*
X-314184Y2405D01*
X-314144Y2345D01*
X-314120Y2277D01*
X-314111Y2201D01*
Y3799D01*
X-314120Y3723D01*
D02*
G37*
G36*
X-269266Y1831D02*
X-269246Y1863D01*
X-269186Y1892D01*
X-269086Y1917D01*
X-268946Y1939D01*
X-268766Y1958D01*
X-267986Y1993D01*
X-267266Y2000D01*
Y4000D01*
X-267646Y4002D01*
X-269186Y4108D01*
X-269246Y4137D01*
X-269266Y4169D01*
Y1831D01*
D02*
G37*
G36*
X-200078Y3300D02*
X-200441Y2992D01*
X-200602Y2879D01*
X-200750Y2793D01*
X-200885Y2735D01*
X-201007Y2704D01*
X-201115Y2701D01*
X-201209Y2724D01*
X-201290Y2775D01*
X-199789Y1471D01*
X-199849Y1544D01*
X-199880Y1631D01*
X-199881Y1734D01*
X-199853Y1853D01*
X-199796Y1987D01*
X-199709Y2136D01*
X-199593Y2300D01*
X-199448Y2480D01*
X-199070Y2886D01*
X-199876Y3494D01*
X-200078Y3300D01*
D02*
G37*
G36*
X-260632Y4233D02*
X-260692Y4184D01*
X-260792Y4141D01*
X-260932Y4103D01*
X-261112Y4072D01*
X-261332Y4046D01*
X-261892Y4011D01*
X-262612Y4000D01*
Y2000D01*
X-262232Y1990D01*
X-261892Y1960D01*
X-261592Y1910D01*
X-261332Y1840D01*
X-261112Y1750D01*
X-260932Y1640D01*
X-260792Y1510D01*
X-260692Y1360D01*
X-260632Y1190D01*
X-260612Y1000D01*
Y4287D01*
X-260632Y4233D01*
D02*
G37*
G36*
X-276739Y4099D02*
X-276789Y4000D01*
X-276873Y3874D01*
X-276991Y3720D01*
X-277327Y3327D01*
X-278402Y2207D01*
X-276987Y793D01*
X-276723Y1052D01*
X-276073Y1625D01*
X-275904Y1747D01*
X-275759Y1835D01*
X-275638Y1888D01*
X-275541Y1907D01*
X-275468Y1892D01*
X-275418Y1843D01*
X-276722Y4169D01*
X-276739Y4099D01*
D02*
G37*
G36*
X-286686Y614D02*
X-286624Y612D01*
X-286561Y602D01*
X-286498Y586D01*
X-286435Y563D01*
X-286370Y533D01*
X-286306Y496D01*
X-286241Y453D01*
X-286175Y403D01*
X-286109Y346D01*
X-286042Y283D01*
X-285477Y848D01*
X-285541Y914D01*
X-285648Y1046D01*
X-285691Y1111D01*
X-285727Y1176D01*
X-285757Y1240D01*
X-285780Y1304D01*
X-285796Y1367D01*
X-285806Y1429D01*
X-285809Y1491D01*
X-286686Y614D01*
D02*
G37*
G36*
X-191777Y-32D02*
X-191767Y64D01*
X-191737Y149D01*
X-191687Y224D01*
X-191617Y289D01*
X-191527Y344D01*
X-191417Y389D01*
X-191287Y423D01*
X-191137Y448D01*
X-190967Y464D01*
X-190777Y469D01*
Y1469D01*
X-190967Y1474D01*
X-191137Y1488D01*
X-191287Y1514D01*
X-191417Y1548D01*
X-191527Y1594D01*
X-191617Y1649D01*
X-191687Y1713D01*
X-191737Y1788D01*
X-191767Y1874D01*
X-191777Y1969D01*
Y-32D01*
D02*
G37*
G36*
X-187610Y1874D02*
X-187640Y1788D01*
X-187691Y1713D01*
X-187762Y1649D01*
X-187853Y1594D01*
X-187964Y1548D01*
X-188096Y1514D01*
X-188247Y1488D01*
X-188419Y1474D01*
X-188612Y1469D01*
Y469D01*
X-188419Y464D01*
X-188247Y448D01*
X-188096Y423D01*
X-187964Y389D01*
X-187853Y344D01*
X-187762Y289D01*
X-187691Y224D01*
X-187640Y149D01*
X-187610Y64D01*
X-187600Y-32D01*
Y1969D01*
X-187610Y1874D01*
D02*
G37*
G36*
X-175059Y905D02*
X-175089Y820D01*
X-175140Y745D01*
X-175210Y680D01*
X-175302Y625D01*
X-175413Y580D01*
X-175544Y545D01*
X-175696Y520D01*
X-175868Y505D01*
X-176060Y500D01*
Y-500D01*
X-175868Y-505D01*
X-175696Y-520D01*
X-175544Y-545D01*
X-175413Y-580D01*
X-175302Y-625D01*
X-175210Y-680D01*
X-175140Y-745D01*
X-175089Y-820D01*
X-175059Y-905D01*
X-175048Y-1000D01*
Y1000D01*
X-175059Y905D01*
D02*
G37*
G36*
X-195607Y1357D02*
X-195630Y1217D01*
X-195666Y1076D01*
X-195717Y935D01*
X-195781Y794D01*
X-195860Y653D01*
X-195954Y511D01*
X-196061Y368D01*
X-196183Y226D01*
X-196319Y83D01*
Y-1331D01*
X-196225Y-1240D01*
X-195975Y-1023D01*
X-195902Y-970D01*
X-195833Y-927D01*
X-195770Y-893D01*
X-195712Y-869D01*
X-195659Y-855D01*
X-195612Y-850D01*
X-195600Y1497D01*
X-195607Y1357D01*
D02*
G37*
G36*
X-269266Y-2799D02*
X-269258Y-2723D01*
X-269234Y-2655D01*
X-269194Y-2595D01*
X-269138Y-2544D01*
X-269066Y-2499D01*
X-268978Y-2464D01*
X-268874Y-2436D01*
X-268754Y-2416D01*
X-268618Y-2404D01*
X-268466Y-2400D01*
Y-1600D01*
X-268618Y-1596D01*
X-268754Y-1584D01*
X-268874Y-1564D01*
X-268978Y-1536D01*
X-269066Y-1500D01*
X-269138Y-1457D01*
X-269194Y-1405D01*
X-269234Y-1345D01*
X-269258Y-1277D01*
X-269266Y-1201D01*
Y-2799D01*
D02*
G37*
G36*
X-314120Y-1277D02*
X-314144Y-1345D01*
X-314184Y-1405D01*
X-314241Y-1457D01*
X-314314Y-1500D01*
X-314404Y-1536D01*
X-314509Y-1564D01*
X-314631Y-1584D01*
X-314769Y-1596D01*
X-314923Y-1600D01*
Y-2400D01*
X-314769Y-2404D01*
X-314631Y-2416D01*
X-314509Y-2436D01*
X-314404Y-2464D01*
X-314314Y-2499D01*
X-314241Y-2544D01*
X-314184Y-2595D01*
X-314144Y-2655D01*
X-314120Y-2723D01*
X-314111Y-2799D01*
Y-1201D01*
X-314120Y-1277D01*
D02*
G37*
G36*
Y-6277D02*
X-314144Y-6345D01*
X-314184Y-6405D01*
X-314241Y-6457D01*
X-314314Y-6500D01*
X-314404Y-6537D01*
X-314509Y-6564D01*
X-314631Y-6584D01*
X-314769Y-6596D01*
X-314923Y-6600D01*
Y-7400D01*
X-314769Y-7404D01*
X-314631Y-7416D01*
X-314509Y-7436D01*
X-314404Y-7463D01*
X-314314Y-7500D01*
X-314241Y-7543D01*
X-314184Y-7595D01*
X-314144Y-7655D01*
X-314120Y-7723D01*
X-314111Y-7799D01*
Y-6201D01*
X-314120Y-6277D01*
D02*
G37*
G36*
X-269266Y-7799D02*
X-269258Y-7723D01*
X-269234Y-7655D01*
X-269194Y-7595D01*
X-269138Y-7543D01*
X-269066Y-7500D01*
X-268978Y-7463D01*
X-268874Y-7436D01*
X-268754Y-7416D01*
X-268618Y-7404D01*
X-268466Y-7400D01*
Y-6600D01*
X-268618Y-6596D01*
X-268754Y-6584D01*
X-268874Y-6564D01*
X-268978Y-6537D01*
X-269066Y-6500D01*
X-269138Y-6457D01*
X-269194Y-6405D01*
X-269234Y-6345D01*
X-269258Y-6277D01*
X-269266Y-6201D01*
Y-7799D01*
D02*
G37*
G36*
X-161675Y-7468D02*
X-161435Y-7472D01*
X-161209Y-7487D01*
X-160996Y-7514D01*
X-160795Y-7553D01*
X-160608Y-7604D01*
X-160434Y-7666D01*
X-160273Y-7741D01*
X-160124Y-7827D01*
X-159989Y-7925D01*
X-159867Y-8035D01*
X-159160Y-7328D01*
X-159269Y-7206D01*
X-159368Y-7070D01*
X-159454Y-6922D01*
X-159528Y-6761D01*
X-159591Y-6586D01*
X-159641Y-6399D01*
X-159680Y-6199D01*
X-159707Y-5985D01*
X-159723Y-5759D01*
X-159726Y-5520D01*
X-161675Y-7468D01*
D02*
G37*
G36*
X-172341Y-10079D02*
X-172330Y-9984D01*
X-172300Y-9899D01*
X-172249Y-9824D01*
X-172179Y-9759D01*
X-172088Y-9704D01*
X-171976Y-9659D01*
X-171845Y-9624D01*
X-171693Y-9599D01*
X-171521Y-9584D01*
X-171329Y-9579D01*
Y-8579D01*
X-171521Y-8574D01*
X-171693Y-8559D01*
X-171845Y-8534D01*
X-171976Y-8499D01*
X-172088Y-8454D01*
X-172179Y-8399D01*
X-172249Y-8334D01*
X-172300Y-8259D01*
X-172330Y-8174D01*
X-172341Y-8079D01*
Y-10079D01*
D02*
G37*
G36*
X-196319Y-10551D02*
X-196115Y-10762D01*
X-195796Y-11137D01*
X-195680Y-11301D01*
X-195594Y-11450D01*
X-195536Y-11584D01*
X-195508Y-11703D01*
X-195509Y-11806D01*
X-195540Y-11893D01*
X-195600Y-11966D01*
X-194099Y-10662D01*
X-194180Y-10713D01*
X-194275Y-10736D01*
X-194383Y-10733D01*
X-194504Y-10702D01*
X-194639Y-10644D01*
X-194787Y-10558D01*
X-194948Y-10445D01*
X-195123Y-10305D01*
X-195513Y-9943D01*
X-196319Y-10551D01*
D02*
G37*
G36*
X-175056Y-8825D02*
X-175077Y-8964D01*
X-175113Y-9105D01*
X-175164Y-9245D01*
X-175228Y-9387D01*
X-175307Y-9528D01*
X-175401Y-9670D01*
X-175509Y-9813D01*
X-175631Y-9956D01*
X-175768Y-10100D01*
Y-11514D01*
X-175631Y-11384D01*
X-175509Y-11284D01*
X-175401Y-11212D01*
X-175307Y-11169D01*
X-175228Y-11154D01*
X-175164Y-11169D01*
X-175113Y-11212D01*
X-175077Y-11284D01*
X-175056Y-11384D01*
X-175048Y-11514D01*
Y-8686D01*
X-175056Y-8825D01*
D02*
G37*
G36*
X-211958Y6236D02*
X-213194Y5000D01*
X-225695Y5000D01*
X-228195Y2500D01*
Y-5000D01*
X-230659Y-7465D01*
Y-10465D01*
X-230695Y-10500D01*
X-228695Y-12500D01*
X-211195D01*
X-209194Y-10500D01*
X-209195Y4736D01*
X-210695Y6236D01*
X-211958Y6236D01*
D02*
G37*
G36*
X-306667Y-13158D02*
X-306662Y-13056D01*
X-306645Y-12977D01*
X-306616Y-12920D01*
X-306577Y-12886D01*
X-306526Y-12875D01*
X-306464Y-12886D01*
X-306390Y-12920D01*
X-306306Y-12977D01*
X-306209Y-13056D01*
X-306102Y-13158D01*
X-305820Y-12310D01*
X-305981Y-12143D01*
X-306252Y-11827D01*
X-306362Y-11677D01*
X-306455Y-11533D01*
X-306532Y-11394D01*
X-306591Y-11262D01*
X-306633Y-11135D01*
X-306659Y-11013D01*
X-306667Y-10897D01*
Y-13158D01*
D02*
G37*
G36*
X-276718Y-11011D02*
X-276744Y-11131D01*
X-276787Y-11257D01*
X-276848Y-11389D01*
X-276925Y-11527D01*
X-277019Y-11671D01*
X-277131Y-11822D01*
X-277406Y-12141D01*
X-277570Y-12310D01*
X-277287Y-13158D01*
X-277177Y-13054D01*
X-277079Y-12973D01*
X-276993Y-12915D01*
X-276918Y-12881D01*
X-276854Y-12869D01*
X-276802Y-12881D01*
X-276762Y-12915D01*
X-276733Y-12973D01*
X-276716Y-13054D01*
X-276710Y-13158D01*
Y-10897D01*
X-276718Y-11011D01*
D02*
G37*
G36*
X-191789Y-13468D02*
X-191779Y-13374D01*
X-191749Y-13288D01*
X-191698Y-13214D01*
X-191628Y-13149D01*
X-191536Y-13093D01*
X-191425Y-13048D01*
X-191294Y-13013D01*
X-191142Y-12989D01*
X-190970Y-12973D01*
X-190777Y-12968D01*
Y-11969D01*
X-190970Y-11964D01*
X-191142Y-11948D01*
X-191294Y-11924D01*
X-191425Y-11889D01*
X-191536Y-11844D01*
X-191628Y-11789D01*
X-191698Y-11723D01*
X-191749Y-11648D01*
X-191779Y-11564D01*
X-191789Y-11468D01*
Y-13468D01*
D02*
G37*
G36*
X-187622Y-11564D02*
X-187652Y-11648D01*
X-187702Y-11723D01*
X-187772Y-11789D01*
X-187862Y-11844D01*
X-187972Y-11889D01*
X-188102Y-11924D01*
X-188252Y-11948D01*
X-188422Y-11964D01*
X-188612Y-11969D01*
Y-12968D01*
X-188422Y-12973D01*
X-188252Y-12989D01*
X-188102Y-13013D01*
X-187972Y-13048D01*
X-187862Y-13093D01*
X-187772Y-13149D01*
X-187702Y-13214D01*
X-187652Y-13288D01*
X-187622Y-13374D01*
X-187612Y-13468D01*
Y-11468D01*
X-187622Y-11564D01*
D02*
G37*
G36*
X-201290Y-14275D02*
X-201209Y-14224D01*
X-201115Y-14201D01*
X-201007Y-14204D01*
X-200885Y-14235D01*
X-200750Y-14293D01*
X-200602Y-14379D01*
X-200441Y-14492D01*
X-200266Y-14632D01*
X-199876Y-14994D01*
X-199070Y-14386D01*
X-199274Y-14175D01*
X-199593Y-13800D01*
X-199709Y-13636D01*
X-199796Y-13487D01*
X-199853Y-13353D01*
X-199881Y-13234D01*
X-199880Y-13131D01*
X-199849Y-13044D01*
X-199789Y-12971D01*
X-201290Y-14275D01*
D02*
G37*
G36*
X-176945Y-15184D02*
X-177973Y-16075D01*
X-178180Y-16218D01*
X-178365Y-16329D01*
X-178531Y-16409D01*
X-178676Y-16457D01*
X-178801Y-16473D01*
X-176069D01*
X-176065Y-16462D01*
X-176040Y-16430D01*
X-175993Y-16377D01*
X-175046Y-15412D01*
X-176637Y-14882D01*
X-176945Y-15184D01*
D02*
G37*
G36*
X-314120Y-16277D02*
X-314144Y-16345D01*
X-314184Y-16405D01*
X-314241Y-16456D01*
X-314314Y-16500D01*
X-314404Y-16536D01*
X-314509Y-16564D01*
X-314631Y-16584D01*
X-314769Y-16596D01*
X-314923Y-16600D01*
Y-17400D01*
X-314769Y-17404D01*
X-314631Y-17416D01*
X-314509Y-17436D01*
X-314404Y-17463D01*
X-314314Y-17500D01*
X-314241Y-17544D01*
X-314184Y-17595D01*
X-314144Y-17655D01*
X-314120Y-17723D01*
X-314111Y-17799D01*
Y-16201D01*
X-314120Y-16277D01*
D02*
G37*
G36*
X-269266Y-17799D02*
X-269258Y-17723D01*
X-269234Y-17655D01*
X-269194Y-17595D01*
X-269138Y-17544D01*
X-269066Y-17500D01*
X-268978Y-17463D01*
X-268874Y-17436D01*
X-268754Y-17416D01*
X-268618Y-17404D01*
X-268466Y-17400D01*
Y-16600D01*
X-268618Y-16596D01*
X-268754Y-16584D01*
X-268874Y-16564D01*
X-268978Y-16536D01*
X-269066Y-16500D01*
X-269138Y-16456D01*
X-269194Y-16405D01*
X-269234Y-16345D01*
X-269258Y-16277D01*
X-269266Y-16201D01*
Y-17799D01*
D02*
G37*
G36*
X-227268Y-15444D02*
X-227313Y-15570D01*
X-227389Y-15682D01*
X-227494Y-15778D01*
X-227629Y-15860D01*
X-227795Y-15926D01*
X-227990Y-15979D01*
X-228216Y-16016D01*
X-228472Y-16038D01*
X-228758Y-16045D01*
Y-17545D01*
X-228472Y-17553D01*
X-228216Y-17575D01*
X-227990Y-17612D01*
X-227795Y-17664D01*
X-227645Y-17725D01*
X-227663Y-17830D01*
X-227599Y-17776D01*
X-227577Y-17762D01*
X-227494Y-17812D01*
X-227389Y-17909D01*
X-227313Y-18020D01*
X-227268Y-18147D01*
X-227253Y-18288D01*
Y-17635D01*
X-227174Y-17616D01*
X-227025Y-17591D01*
X-226675Y-17557D01*
X-226474Y-17548D01*
X-226255Y-17545D01*
X-226195Y-16045D01*
X-226371Y-16041D01*
X-226679Y-16010D01*
X-226811Y-15982D01*
X-226929Y-15946D01*
X-227031Y-15902D01*
X-227119Y-15850D01*
X-227193Y-15791D01*
X-227251Y-15723D01*
X-227253Y-15720D01*
Y-15303D01*
X-227268Y-15444D01*
D02*
G37*
G36*
X-333909Y-18398D02*
X-333866Y-18379D01*
X-333817Y-18362D01*
X-333762Y-18348D01*
X-333701Y-18335D01*
X-333564Y-18315D01*
X-333486Y-18308D01*
X-333220Y-18300D01*
X-332883Y-17500D01*
X-332976Y-17498D01*
X-333062Y-17490D01*
X-333140Y-17476D01*
X-333212Y-17457D01*
X-333276Y-17433D01*
X-333333Y-17403D01*
X-333383Y-17368D01*
X-333425Y-17328D01*
X-333461Y-17282D01*
X-333489Y-17231D01*
X-333909Y-18398D01*
D02*
G37*
G36*
X-335183Y-17671D02*
X-335193Y-17733D01*
X-335209Y-17796D01*
X-335232Y-17860D01*
X-335262Y-17924D01*
X-335298Y-17989D01*
X-335342Y-18054D01*
X-335392Y-18119D01*
X-335448Y-18186D01*
X-335512Y-18252D01*
X-334947Y-18817D01*
X-334880Y-18754D01*
X-334748Y-18647D01*
X-334683Y-18604D01*
X-334619Y-18567D01*
X-334555Y-18537D01*
X-334491Y-18514D01*
X-334428Y-18498D01*
X-334365Y-18488D01*
X-334303Y-18486D01*
X-335180Y-17609D01*
X-335183Y-17671D01*
D02*
G37*
G36*
X-222260Y-16591D02*
X-222282Y-16731D01*
X-222318Y-16871D01*
X-222368Y-17012D01*
X-222433Y-17153D01*
X-222512Y-17294D01*
X-222606Y-17437D01*
X-222713Y-17579D01*
X-222836Y-17722D01*
X-222972Y-17866D01*
X-222841Y-19149D01*
X-222729Y-19044D01*
X-222629Y-18966D01*
X-222541Y-18914D01*
X-222465Y-18888D01*
X-222400Y-18888D01*
X-222347Y-18914D01*
X-222306Y-18966D01*
X-222277Y-19045D01*
X-222259Y-19149D01*
X-222253Y-19280D01*
Y-16452D01*
X-222260Y-16591D01*
D02*
G37*
G36*
X-191789Y-19532D02*
X-191779Y-19436D01*
X-191749Y-19352D01*
X-191698Y-19276D01*
X-191628Y-19211D01*
X-191536Y-19157D01*
X-191425Y-19112D01*
X-191294Y-19076D01*
X-191142Y-19051D01*
X-190970Y-19037D01*
X-190777Y-19031D01*
Y-18032D01*
X-190970Y-18026D01*
X-191142Y-18011D01*
X-191294Y-17987D01*
X-191425Y-17952D01*
X-191536Y-17907D01*
X-191628Y-17852D01*
X-191698Y-17786D01*
X-191749Y-17711D01*
X-191779Y-17627D01*
X-191789Y-17531D01*
Y-19532D01*
D02*
G37*
G36*
X-187622Y-17627D02*
X-187652Y-17711D01*
X-187702Y-17786D01*
X-187772Y-17852D01*
X-187862Y-17907D01*
X-187972Y-17952D01*
X-188102Y-17987D01*
X-188252Y-18011D01*
X-188422Y-18026D01*
X-188612Y-18032D01*
Y-19031D01*
X-188422Y-19037D01*
X-188252Y-19051D01*
X-188102Y-19076D01*
X-187972Y-19112D01*
X-187862Y-19157D01*
X-187772Y-19211D01*
X-187702Y-19276D01*
X-187652Y-19352D01*
X-187622Y-19436D01*
X-187612Y-19532D01*
Y-17531D01*
X-187622Y-17627D01*
D02*
G37*
G36*
X-216822Y-19337D02*
X-216795Y-19357D01*
X-216772Y-19391D01*
X-216751Y-19437D01*
X-216734Y-19498D01*
X-216720Y-19571D01*
X-216709Y-19658D01*
X-216696Y-19873D01*
X-216695Y-20000D01*
X-215695D01*
X-215693Y-19873D01*
X-215669Y-19571D01*
X-215655Y-19498D01*
X-215638Y-19437D01*
X-215617Y-19391D01*
X-215594Y-19357D01*
X-215567Y-19337D01*
X-215537Y-19330D01*
X-216852D01*
X-216822Y-19337D01*
D02*
G37*
G36*
X-212100Y-19341D02*
X-212015Y-19371D01*
X-211940Y-19421D01*
X-211875Y-19492D01*
X-211820Y-19583D01*
X-211775Y-19695D01*
X-211740Y-19826D01*
X-211715Y-19978D01*
X-211700Y-20150D01*
X-211695Y-20342D01*
X-210695D01*
X-210690Y-20150D01*
X-210675Y-19978D01*
X-210650Y-19826D01*
X-210615Y-19695D01*
X-210570Y-19583D01*
X-210515Y-19492D01*
X-210450Y-19421D01*
X-210375Y-19371D01*
X-210290Y-19341D01*
X-210195Y-19330D01*
X-212195D01*
X-212100Y-19341D01*
D02*
G37*
G36*
X-336295Y24500D02*
X-342195Y18600D01*
Y13300D01*
X-345095D01*
X-346695Y11700D01*
Y8000D01*
X-367195Y-12500D01*
X-364995Y-14700D01*
X-352195D01*
X-351295Y-15600D01*
Y-18600D01*
X-352395Y-19700D01*
X-351695Y-20400D01*
X-349095D01*
X-347395Y-18700D01*
Y-10600D01*
X-343195Y-6400D01*
X-333595D01*
X-332695Y-5500D01*
X-332695D01*
X-327195Y0D01*
X-327194Y8500D01*
X-321695Y14000D01*
Y23000D01*
X-323195Y24500D01*
X-336295Y24500D01*
D02*
G37*
G36*
X-333609Y-19846D02*
X-333741Y-19953D01*
X-333806Y-19996D01*
X-333871Y-20033D01*
X-333935Y-20063D01*
X-333998Y-20086D01*
X-334061Y-20102D01*
X-334124Y-20111D01*
X-334186Y-20114D01*
X-333309Y-20991D01*
X-333306Y-20929D01*
X-333296Y-20867D01*
X-333280Y-20804D01*
X-333257Y-20740D01*
X-333227Y-20676D01*
X-333191Y-20611D01*
X-333148Y-20546D01*
X-333098Y-20481D01*
X-333041Y-20414D01*
X-332977Y-20348D01*
X-333542Y-19783D01*
X-333609Y-19846D01*
D02*
G37*
G36*
X-306667Y-23103D02*
X-306659Y-22987D01*
X-306633Y-22865D01*
X-306591Y-22738D01*
X-306532Y-22606D01*
X-306455Y-22467D01*
X-306362Y-22323D01*
X-306252Y-22173D01*
X-305981Y-21857D01*
X-305820Y-21690D01*
X-306102Y-20842D01*
X-306209Y-20944D01*
X-306306Y-21023D01*
X-306390Y-21080D01*
X-306464Y-21114D01*
X-306526Y-21125D01*
X-306577Y-21114D01*
X-306616Y-21080D01*
X-306645Y-21023D01*
X-306662Y-20944D01*
X-306667Y-20842D01*
Y-23103D01*
D02*
G37*
G36*
X-335028Y-20691D02*
X-335050Y-20730D01*
X-335078Y-20772D01*
X-335151Y-20867D01*
X-335246Y-20978D01*
X-335433Y-21173D01*
X-335163Y-22034D01*
X-335096Y-21970D01*
X-335029Y-21915D01*
X-334964Y-21869D01*
X-334901Y-21833D01*
X-334840Y-21806D01*
X-334780Y-21788D01*
X-334722Y-21779D01*
X-334665Y-21780D01*
X-334610Y-21790D01*
X-334556Y-21809D01*
X-335011Y-20657D01*
X-335028Y-20691D01*
D02*
G37*
G36*
X-170678Y-21366D02*
X-170610Y-21390D01*
X-170550Y-21431D01*
X-170498Y-21488D01*
X-170454Y-21561D01*
X-170418Y-21650D01*
X-170390Y-21755D01*
X-170370Y-21877D01*
X-170358Y-22015D01*
X-170354Y-22169D01*
X-169555D01*
X-169551Y-22015D01*
X-169539Y-21877D01*
X-169519Y-21755D01*
X-169491Y-21650D01*
X-169455Y-21561D01*
X-169411Y-21488D01*
X-169359Y-21431D01*
X-169299Y-21390D01*
X-169231Y-21366D01*
X-169155Y-21358D01*
X-170754D01*
X-170678Y-21366D01*
D02*
G37*
G36*
X-178739Y-18635D02*
X-178725Y-18798D01*
X-178745Y-18976D01*
X-178800Y-19167D01*
X-178890Y-19372D01*
X-179014Y-19591D01*
X-179174Y-19824D01*
X-179368Y-20071D01*
X-179597Y-20332D01*
X-179861Y-20606D01*
X-179564Y-22431D01*
X-179222Y-22098D01*
X-178623Y-21584D01*
X-178367Y-21401D01*
X-178141Y-21269D01*
X-177943Y-21187D01*
X-177775Y-21155D01*
X-177635Y-21172D01*
X-177524Y-21240D01*
X-177443Y-21358D01*
X-178789Y-18485D01*
X-178739Y-18635D01*
D02*
G37*
G36*
X-154511Y-20862D02*
X-154540Y-20938D01*
X-154588Y-21006D01*
X-154656Y-21065D01*
X-154743Y-21115D01*
X-154849Y-21156D01*
X-154974Y-21188D01*
X-155119Y-21210D01*
X-155283Y-21224D01*
X-155466Y-21228D01*
Y-22228D01*
X-155283Y-22233D01*
X-155119Y-22246D01*
X-154974Y-22269D01*
X-154849Y-22301D01*
X-154743Y-22342D01*
X-154656Y-22391D01*
X-154588Y-22450D01*
X-154540Y-22518D01*
X-154511Y-22595D01*
X-154501Y-22681D01*
Y-20775D01*
X-154511Y-20862D01*
D02*
G37*
G36*
X-202449Y-18693D02*
X-202463Y-18842D01*
X-202487Y-18976D01*
X-202520Y-19097D01*
X-202562Y-19204D01*
X-202613Y-19297D01*
X-202675Y-19376D01*
X-202745Y-19442D01*
X-202825Y-19493D01*
X-202914Y-19531D01*
X-200720Y-20234D01*
X-200727Y-20347D01*
X-203466Y-20338D01*
X-203250Y-20355D01*
X-203023Y-20403D01*
X-202785Y-20484D01*
X-202536Y-20596D01*
X-202277Y-20741D01*
X-202006Y-20917D01*
X-201725Y-21125D01*
X-201129Y-21637D01*
X-200819Y-21936D01*
X-200867Y-22755D01*
X-200779Y-22678D01*
X-200684Y-22626D01*
X-200583Y-22597D01*
X-200474Y-22593D01*
X-200359Y-22613D01*
X-200237Y-22657D01*
X-200108Y-22726D01*
X-199972Y-22818D01*
X-199829Y-22935D01*
X-199679Y-23076D01*
X-198961Y-21673D01*
X-199262Y-21424D01*
X-199223Y-21411D01*
X-199328Y-21301D01*
X-199506Y-21083D01*
X-199578Y-20975D01*
X-199639Y-20868D01*
X-199689Y-20763D01*
X-199727Y-20658D01*
X-199755Y-20555D01*
X-199772Y-20452D01*
X-199777Y-20350D01*
X-200564Y-20348D01*
X-200715Y-20223D01*
X-200751Y-20165D01*
X-200792Y-20075D01*
X-200827Y-19970D01*
X-200858Y-19849D01*
X-200885Y-19712D01*
X-200923Y-19389D01*
X-200935Y-19204D01*
X-200945Y-18786D01*
X-202445Y-18531D01*
X-202449Y-18693D01*
D02*
G37*
G36*
X-333275Y-22831D02*
X-332161Y-22793D01*
X-332185Y-22768D01*
X-332199Y-22739D01*
X-332203Y-22704D01*
X-332196Y-22665D01*
X-332179Y-22620D01*
X-332153Y-22571D01*
X-332116Y-22516D01*
X-332068Y-22456D01*
X-332011Y-22391D01*
X-331944Y-22322D01*
X-332716Y-21963D01*
X-333275Y-22831D01*
D02*
G37*
G36*
X-142697Y-20532D02*
X-142719Y-20672D01*
X-142755Y-20812D01*
X-142805Y-20953D01*
X-142870Y-21094D01*
X-142949Y-21235D01*
X-143043Y-21378D01*
X-143150Y-21520D01*
X-143273Y-21663D01*
X-143409Y-21807D01*
Y-23221D01*
X-143273Y-23092D01*
X-143150Y-22991D01*
X-143043Y-22919D01*
X-142949Y-22876D01*
X-142870Y-22862D01*
X-142805Y-22876D01*
X-142755Y-22919D01*
X-142719Y-22991D01*
X-142697Y-23092D01*
X-142690Y-23221D01*
Y-20393D01*
X-142697Y-20532D01*
D02*
G37*
G36*
X-120862Y-22806D02*
X-121272Y-23146D01*
X-121472Y-23284D01*
X-121668Y-23400D01*
X-121861Y-23496D01*
X-122050Y-23570D01*
X-122235Y-23623D01*
X-122417Y-23655D01*
X-122596Y-23665D01*
X-118530Y-23677D01*
X-118725Y-23669D01*
X-118882Y-23643D01*
X-119001Y-23601D01*
X-119081Y-23542D01*
X-119124Y-23467D01*
X-119129Y-23375D01*
X-119095Y-23267D01*
X-119024Y-23141D01*
X-118914Y-23000D01*
X-118767Y-22841D01*
X-120651Y-22605D01*
X-120862Y-22806D01*
D02*
G37*
G36*
X-351634Y-23194D02*
X-351897Y-23425D01*
X-351922Y-23440D01*
X-351940Y-23447D01*
X-351954Y-23448D01*
X-351335Y-24087D01*
X-351334Y-24074D01*
X-351325Y-24056D01*
X-351310Y-24031D01*
X-351288Y-24001D01*
X-351222Y-23923D01*
X-351070Y-23762D01*
X-351006Y-23697D01*
X-351571Y-23132D01*
X-351634Y-23194D01*
D02*
G37*
G36*
X-224727Y-23639D02*
X-224751Y-24044D01*
X-224759Y-24072D01*
X-224768Y-24089D01*
X-224777Y-24095D01*
X-223675D01*
X-223685Y-24089D01*
X-223693Y-24072D01*
X-223701Y-24044D01*
X-223708Y-24005D01*
X-223713Y-23954D01*
X-223724Y-23734D01*
X-223726Y-23531D01*
X-224726D01*
X-224727Y-23639D01*
D02*
G37*
G36*
X-333528Y-23191D02*
X-333550Y-23230D01*
X-333578Y-23272D01*
X-333651Y-23368D01*
X-333747Y-23478D01*
X-333933Y-23673D01*
X-333663Y-24534D01*
X-333595Y-24470D01*
X-333529Y-24415D01*
X-333465Y-24370D01*
X-333401Y-24333D01*
X-333340Y-24306D01*
X-333280Y-24288D01*
X-333222Y-24279D01*
X-333165Y-24280D01*
X-333110Y-24290D01*
X-333056Y-24309D01*
X-333511Y-23157D01*
X-333528Y-23191D01*
D02*
G37*
G36*
X-339896Y-24170D02*
X-339914Y-24339D01*
X-339929Y-24416D01*
X-339949Y-24487D01*
X-339973Y-24553D01*
X-340002Y-24615D01*
X-340035Y-24671D01*
X-340073Y-24722D01*
X-340115Y-24767D01*
X-338875D01*
X-338916Y-24722D01*
X-338954Y-24671D01*
X-338987Y-24615D01*
X-339016Y-24553D01*
X-339040Y-24487D01*
X-339060Y-24416D01*
X-339075Y-24339D01*
X-339086Y-24257D01*
X-339093Y-24170D01*
X-339095Y-24078D01*
X-339894D01*
X-339896Y-24170D01*
D02*
G37*
G36*
X-164945Y-23000D02*
X-163445Y-25000D01*
X-163434Y-24975D01*
X-163402Y-24974D01*
X-163349Y-24999D01*
X-162720Y-25553D01*
X-162767Y-26355D01*
X-162679Y-26278D01*
X-162584Y-26226D01*
X-162483Y-26197D01*
X-162374Y-26193D01*
X-162259Y-26213D01*
X-162137Y-26257D01*
X-162008Y-26326D01*
X-161872Y-26418D01*
X-161729Y-26535D01*
X-161579Y-26676D01*
X-160861Y-25273D01*
X-162384Y-24014D01*
Y-23750D01*
X-162585Y-23534D01*
X-162766Y-23308D01*
X-162925Y-23074D01*
X-163063Y-22831D01*
X-163179Y-22580D01*
X-163275Y-22319D01*
X-163349Y-22050D01*
X-163402Y-21772D01*
X-163434Y-21485D01*
X-163445Y-21189D01*
X-164945Y-23000D01*
D02*
G37*
G36*
X-342846Y-24246D02*
X-342978Y-24353D01*
X-343043Y-24396D01*
X-343108Y-24433D01*
X-343172Y-24463D01*
X-343235Y-24486D01*
X-343298Y-24502D01*
X-343361Y-24511D01*
X-343423Y-24514D01*
X-342546Y-25391D01*
X-342543Y-25329D01*
X-342533Y-25267D01*
X-342517Y-25204D01*
X-342494Y-25140D01*
X-342464Y-25076D01*
X-342428Y-25011D01*
X-342385Y-24946D01*
X-342335Y-24881D01*
X-342278Y-24814D01*
X-342214Y-24748D01*
X-342779Y-24183D01*
X-342846Y-24246D01*
D02*
G37*
G36*
X-237777Y-25500D02*
X-237767Y-25405D01*
X-237737Y-25320D01*
X-237687Y-25245D01*
X-237617Y-25180D01*
X-237527Y-25125D01*
X-237417Y-25080D01*
X-237287Y-25045D01*
X-237137Y-25020D01*
X-236967Y-25005D01*
X-236777Y-25000D01*
Y-24000D01*
X-236967Y-23995D01*
X-237137Y-23980D01*
X-237287Y-23955D01*
X-237417Y-23920D01*
X-237527Y-23875D01*
X-237617Y-23820D01*
X-237687Y-23755D01*
X-237737Y-23680D01*
X-237767Y-23595D01*
X-237777Y-23500D01*
Y-25500D01*
D02*
G37*
G36*
X-233610Y-23595D02*
X-233640Y-23680D01*
X-233691Y-23755D01*
X-233762Y-23820D01*
X-233853Y-23875D01*
X-233964Y-23920D01*
X-234096Y-23955D01*
X-234247Y-23980D01*
X-234419Y-23995D01*
X-234612Y-24000D01*
Y-25000D01*
X-234419Y-25005D01*
X-234247Y-25020D01*
X-234096Y-25045D01*
X-233964Y-25080D01*
X-233853Y-25125D01*
X-233762Y-25180D01*
X-233691Y-25245D01*
X-233640Y-25320D01*
X-233610Y-25405D01*
X-233600Y-25500D01*
Y-23500D01*
X-233610Y-23595D01*
D02*
G37*
G36*
X-387562Y-25620D02*
X-387516Y-25578D01*
X-387465Y-25541D01*
X-387409Y-25508D01*
X-387348Y-25479D01*
X-387282Y-25455D01*
X-387210Y-25435D01*
X-387134Y-25420D01*
X-387052Y-25409D01*
X-386965Y-25402D01*
X-386873Y-25400D01*
Y-24600D01*
X-386965Y-24598D01*
X-387134Y-24580D01*
X-387210Y-24565D01*
X-387282Y-24545D01*
X-387348Y-24521D01*
X-387409Y-24492D01*
X-387465Y-24459D01*
X-387516Y-24422D01*
X-387562Y-24380D01*
Y-25620D01*
D02*
G37*
G36*
X-348705Y-26020D02*
X-348659Y-25978D01*
X-348608Y-25941D01*
X-348552Y-25908D01*
X-348490Y-25879D01*
X-348424Y-25855D01*
X-348353Y-25835D01*
X-348276Y-25820D01*
X-348194Y-25808D01*
X-348107Y-25802D01*
X-348015Y-25800D01*
Y-25000D01*
X-348107Y-24998D01*
X-348276Y-24981D01*
X-348353Y-24965D01*
X-348424Y-24945D01*
X-348490Y-24921D01*
X-348552Y-24892D01*
X-348608Y-24859D01*
X-348659Y-24822D01*
X-348705Y-24780D01*
Y-26020D01*
D02*
G37*
G36*
X-122820Y-24472D02*
X-122773Y-24482D01*
X-122752Y-24512D01*
X-122756Y-24562D01*
X-122787Y-24632D01*
X-122844Y-24722D01*
X-122926Y-24831D01*
X-123169Y-25111D01*
X-123516Y-25470D01*
X-122680Y-25495D01*
X-122668Y-25529D01*
X-122621Y-25760D01*
X-122593Y-26047D01*
X-122584Y-26390D01*
Y-25498D01*
X-122457Y-25502D01*
X-122410Y-25589D01*
X-122275Y-25691D01*
X-122101Y-25718D01*
X-121888Y-25670D01*
X-121637Y-25547D01*
X-121609Y-25528D01*
X-121458Y-25533D01*
X-121245Y-25330D01*
X-121031Y-25148D01*
X-120818Y-24987D01*
X-120606Y-24848D01*
X-120393Y-24730D01*
X-120181Y-24634D01*
X-119970Y-24558D01*
X-119758Y-24504D01*
X-119547Y-24472D01*
X-119337Y-24460D01*
X-122820Y-24472D01*
D02*
G37*
G36*
X-408474Y-25442D02*
X-408481Y-25485D01*
X-408496Y-25531D01*
X-408518Y-25581D01*
X-408548Y-25635D01*
X-408586Y-25691D01*
X-408631Y-25751D01*
X-408744Y-25882D01*
X-408812Y-25952D01*
X-408246Y-26518D01*
X-408176Y-26449D01*
X-408046Y-26336D01*
X-407986Y-26291D01*
X-407929Y-26253D01*
X-407876Y-26223D01*
X-407826Y-26201D01*
X-407779Y-26186D01*
X-407736Y-26179D01*
X-407696Y-26180D01*
X-408474Y-25402D01*
X-408474Y-25442D01*
D02*
G37*
G36*
X-350226Y-25471D02*
X-350235Y-25533D01*
X-350251Y-25596D01*
X-350274Y-25660D01*
X-350304Y-25724D01*
X-350341Y-25789D01*
X-350384Y-25854D01*
X-350434Y-25919D01*
X-350491Y-25986D01*
X-350554Y-26052D01*
X-349989Y-26617D01*
X-349923Y-26554D01*
X-349791Y-26447D01*
X-349726Y-26404D01*
X-349661Y-26367D01*
X-349597Y-26337D01*
X-349534Y-26314D01*
X-349470Y-26298D01*
X-349408Y-26289D01*
X-349346Y-26286D01*
X-350223Y-25409D01*
X-350226Y-25471D01*
D02*
G37*
G36*
X-216356Y-26650D02*
X-216350Y-26621D01*
X-216330Y-26596D01*
X-216297Y-26573D01*
X-216250Y-26554D01*
X-216191Y-26537D01*
X-216118Y-26524D01*
X-216032Y-26513D01*
X-215820Y-26502D01*
X-215695Y-26500D01*
Y-25500D01*
X-215820Y-25499D01*
X-216118Y-25476D01*
X-216191Y-25462D01*
X-216250Y-25446D01*
X-216297Y-25427D01*
X-216330Y-25404D01*
X-216350Y-25379D01*
X-216356Y-25350D01*
Y-26650D01*
D02*
G37*
G36*
X-173598Y-26005D02*
X-173610Y-26143D01*
X-173630Y-26264D01*
X-173658Y-26370D01*
X-173694Y-26459D01*
X-173738Y-26532D01*
X-173790Y-26589D01*
X-173850Y-26629D01*
X-173918Y-26654D01*
X-173994Y-26662D01*
X-172395D01*
X-172471Y-26654D01*
X-172539Y-26629D01*
X-172599Y-26589D01*
X-172651Y-26532D01*
X-172695Y-26459D01*
X-172731Y-26370D01*
X-172759Y-26264D01*
X-172779Y-26143D01*
X-172791Y-26005D01*
X-172795Y-25851D01*
X-173594D01*
X-173598Y-26005D01*
D02*
G37*
G36*
X-344010Y-26078D02*
X-343972Y-26129D01*
X-343939Y-26185D01*
X-343911Y-26247D01*
X-343886Y-26313D01*
X-343866Y-26384D01*
X-343851Y-26461D01*
X-343840Y-26543D01*
X-343833Y-26630D01*
X-343831Y-26722D01*
X-343032D01*
X-343030Y-26630D01*
X-343012Y-26461D01*
X-342997Y-26384D01*
X-342977Y-26313D01*
X-342953Y-26247D01*
X-342924Y-26185D01*
X-342891Y-26129D01*
X-342853Y-26078D01*
X-342811Y-26033D01*
X-344052D01*
X-344010Y-26078D01*
D02*
G37*
G36*
X-340073D02*
X-340035Y-26129D01*
X-340002Y-26185D01*
X-339973Y-26247D01*
X-339949Y-26313D01*
X-339929Y-26384D01*
X-339914Y-26461D01*
X-339903Y-26543D01*
X-339896Y-26630D01*
X-339894Y-26722D01*
X-339095D01*
X-339093Y-26630D01*
X-339075Y-26461D01*
X-339060Y-26384D01*
X-339040Y-26313D01*
X-339016Y-26247D01*
X-338987Y-26185D01*
X-338954Y-26129D01*
X-338916Y-26078D01*
X-338875Y-26033D01*
X-340115D01*
X-340073Y-26078D01*
D02*
G37*
G36*
X-360515Y-25995D02*
X-361729Y-26069D01*
X-361684Y-26112D01*
X-361644Y-26161D01*
X-361609Y-26215D01*
X-361579Y-26275D01*
X-361553Y-26340D01*
X-361532Y-26411D01*
X-361515Y-26487D01*
X-361504Y-26568D01*
X-361496Y-26655D01*
X-361494Y-26747D01*
X-360695Y-26693D01*
X-360693Y-26601D01*
X-360677Y-26431D01*
X-360662Y-26354D01*
X-360644Y-26281D01*
X-360622Y-26214D01*
X-360595Y-26152D01*
X-360564Y-26094D01*
X-360530Y-26042D01*
X-360503Y-26008D01*
X-360470Y-25978D01*
X-360419Y-25941D01*
X-360363Y-25908D01*
X-360301Y-25879D01*
X-360235Y-25855D01*
X-360164Y-25835D01*
X-360087Y-25820D01*
X-360005Y-25808D01*
X-359918Y-25802D01*
X-359826Y-25800D01*
Y-25000D01*
X-359918Y-24998D01*
X-360087Y-24981D01*
X-360164Y-24965D01*
X-360235Y-24945D01*
X-360301Y-24921D01*
X-360363Y-24892D01*
X-360419Y-24859D01*
X-360470Y-24822D01*
X-360515Y-24780D01*
Y-25995D01*
D02*
G37*
G36*
X-409911Y-27035D02*
X-409903Y-26964D01*
X-409879Y-26900D01*
X-409839Y-26844D01*
X-409783Y-26795D01*
X-409711Y-26754D01*
X-409623Y-26720D01*
X-409519Y-26694D01*
X-409399Y-26675D01*
X-409263Y-26664D01*
X-409111Y-26660D01*
Y-25860D01*
X-409263Y-25856D01*
X-409399Y-25845D01*
X-409519Y-25826D01*
X-409623Y-25800D01*
X-409711Y-25766D01*
X-409783Y-25725D01*
X-409839Y-25676D01*
X-409879Y-25620D01*
X-409903Y-25556D01*
X-409911Y-25484D01*
Y-27035D01*
D02*
G37*
G36*
X-366694Y36000D02*
X-379195D01*
X-383195Y32000D01*
X-394695D01*
X-396195Y30500D01*
X-402195D01*
X-408695Y24000D01*
Y16500D01*
X-406695Y14500D01*
Y7000D01*
X-401195Y1500D01*
Y-20500D01*
X-397694Y-24000D01*
X-397695Y-48000D01*
X-397694Y-48000D01*
X-397695Y-65000D01*
X-393695Y-69000D01*
Y-71500D01*
X-391695Y-73500D01*
X-389695D01*
X-386695Y-76500D01*
X-377695D01*
Y-69500D01*
X-378695D01*
X-381195Y-67000D01*
X-384195Y-64000D01*
X-392195D01*
X-393195Y-63000D01*
Y-58000D01*
X-394195Y-57000D01*
Y-44500D01*
X-392195Y-42500D01*
X-380195D01*
X-373195Y-35500D01*
Y-30000D01*
X-373395Y-29800D01*
Y-18400D01*
X-377395D01*
X-385295Y-26300D01*
X-386494Y-26300D01*
X-387695Y-27500D01*
X-390694D01*
Y-24000D01*
X-388695Y-22000D01*
X-386194Y-22000D01*
X-386195Y-6500D01*
X-382695Y-3000D01*
X-380695D01*
X-379765Y-929D01*
X-378695Y-2000D01*
X-369195D01*
X-365694Y1500D01*
X-365694Y24500D01*
X-362194Y28000D01*
X-355695D01*
X-355695Y30500D01*
X-346695Y39500D01*
X-363194D01*
X-366694Y36000D01*
D02*
G37*
G36*
X-276718Y-26277D02*
X-276742Y-26345D01*
X-276783Y-26405D01*
X-276840Y-26456D01*
X-276913Y-26500D01*
X-277002Y-26537D01*
X-277107Y-26564D01*
X-277229Y-26584D01*
X-277367Y-26596D01*
X-277521Y-26600D01*
Y-27400D01*
X-277367Y-27404D01*
X-277229Y-27416D01*
X-277107Y-27436D01*
X-277002Y-27463D01*
X-276913Y-27499D01*
X-276840Y-27544D01*
X-276783Y-27595D01*
X-276742Y-27655D01*
X-276718Y-27723D01*
X-276710Y-27799D01*
Y-26201D01*
X-276718Y-26277D01*
D02*
G37*
G36*
X-314143Y-25863D02*
X-314204Y-25892D01*
X-314303Y-25917D01*
X-314443Y-25939D01*
X-314623Y-25958D01*
X-315404Y-25993D01*
X-316124Y-26000D01*
Y-28000D01*
X-315743Y-28002D01*
X-314204Y-28108D01*
X-314143Y-28137D01*
X-314124Y-28169D01*
Y-25831D01*
X-314143Y-25863D01*
D02*
G37*
G36*
X-320751Y-28315D02*
X-320591Y-28255D01*
X-320421Y-28202D01*
X-320051Y-28113D01*
X-319850Y-28079D01*
X-319419Y-28028D01*
X-318946Y-28003D01*
X-318695Y-28000D01*
X-317695Y-26000D01*
X-317950Y-25991D01*
X-318185Y-25964D01*
X-318401Y-25920D01*
X-318597Y-25858D01*
X-318773Y-25778D01*
X-318929Y-25680D01*
X-319066Y-25564D01*
X-319183Y-25431D01*
X-319281Y-25279D01*
X-319358Y-25110D01*
X-320751Y-28315D01*
D02*
G37*
G36*
X-225131Y-27927D02*
X-225046Y-27957D01*
X-224971Y-28007D01*
X-224906Y-28077D01*
X-224851Y-28167D01*
X-224806Y-28277D01*
X-224771Y-28407D01*
X-224746Y-28557D01*
X-224731Y-28727D01*
X-224726Y-28917D01*
X-223726D01*
X-223721Y-28727D01*
X-223706Y-28557D01*
X-223681Y-28407D01*
X-223646Y-28277D01*
X-223601Y-28167D01*
X-223546Y-28077D01*
X-223481Y-28007D01*
X-223406Y-27957D01*
X-223321Y-27927D01*
X-223226Y-27917D01*
X-225226D01*
X-225131Y-27927D01*
D02*
G37*
G36*
X-219068D02*
X-218983Y-27957D01*
X-218908Y-28007D01*
X-218843Y-28077D01*
X-218788Y-28167D01*
X-218743Y-28277D01*
X-218708Y-28407D01*
X-218683Y-28557D01*
X-218668Y-28727D01*
X-218663Y-28917D01*
X-217663D01*
X-217658Y-28727D01*
X-217643Y-28557D01*
X-217618Y-28407D01*
X-217583Y-28277D01*
X-217538Y-28167D01*
X-217483Y-28077D01*
X-217418Y-28007D01*
X-217343Y-27957D01*
X-217258Y-27927D01*
X-217163Y-27917D01*
X-219163D01*
X-219068Y-27927D01*
D02*
G37*
G36*
X-409911Y-29535D02*
X-409901Y-29483D01*
X-409871Y-29436D01*
X-409821Y-29395D01*
X-409751Y-29359D01*
X-409661Y-29329D01*
X-409551Y-29304D01*
X-409421Y-29285D01*
X-409271Y-29271D01*
X-408911Y-29260D01*
Y-28260D01*
X-409101Y-28257D01*
X-409421Y-28235D01*
X-409551Y-28216D01*
X-409661Y-28191D01*
X-409751Y-28161D01*
X-409821Y-28125D01*
X-409871Y-28084D01*
X-409901Y-28037D01*
X-409911Y-27984D01*
Y-29535D01*
D02*
G37*
G36*
X-207880Y-29687D02*
X-208257Y-30005D01*
X-208369Y-30083D01*
X-208476Y-30147D01*
X-208576Y-30196D01*
X-208669Y-30232D01*
X-208756Y-30253D01*
X-208837Y-30260D01*
X-206647D01*
X-206719Y-30258D01*
X-206779Y-30252D01*
X-206827Y-30243D01*
X-206864Y-30229D01*
X-206890Y-30212D01*
X-206903Y-30190D01*
X-206905Y-30165D01*
X-206895Y-30136D01*
X-206874Y-30103D01*
X-206841Y-30066D01*
X-207742Y-29553D01*
X-207880Y-29687D01*
D02*
G37*
G36*
X-229777Y-31563D02*
X-229767Y-31468D01*
X-229737Y-31383D01*
X-229687Y-31308D01*
X-229617Y-31243D01*
X-229527Y-31188D01*
X-229417Y-31143D01*
X-229287Y-31108D01*
X-229137Y-31083D01*
X-228967Y-31068D01*
X-228777Y-31063D01*
Y-30063D01*
X-228967Y-30058D01*
X-229137Y-30043D01*
X-229287Y-30018D01*
X-229417Y-29983D01*
X-229527Y-29938D01*
X-229617Y-29883D01*
X-229687Y-29818D01*
X-229737Y-29743D01*
X-229767Y-29658D01*
X-229777Y-29563D01*
Y-31563D01*
D02*
G37*
G36*
X-168373Y-30422D02*
X-168424Y-30459D01*
X-168480Y-30492D01*
X-168541Y-30521D01*
X-168608Y-30545D01*
X-168679Y-30565D01*
X-168756Y-30580D01*
X-168838Y-30592D01*
X-168924Y-30598D01*
X-169017Y-30600D01*
Y-31400D01*
X-168924Y-31402D01*
X-168756Y-31420D01*
X-168679Y-31435D01*
X-168608Y-31455D01*
X-168541Y-31479D01*
X-168480Y-31508D01*
X-168424Y-31541D01*
X-168373Y-31578D01*
X-168327Y-31620D01*
Y-30380D01*
X-168373Y-30422D01*
D02*
G37*
G36*
X-167062Y-31620D02*
X-167016Y-31578D01*
X-166965Y-31541D01*
X-166909Y-31508D01*
X-166848Y-31479D01*
X-166781Y-31455D01*
X-166710Y-31435D01*
X-166633Y-31420D01*
X-166551Y-31408D01*
X-166465Y-31402D01*
X-166373Y-31400D01*
Y-30600D01*
X-166465Y-30598D01*
X-166633Y-30580D01*
X-166710Y-30565D01*
X-166781Y-30545D01*
X-166848Y-30521D01*
X-166909Y-30492D01*
X-166965Y-30459D01*
X-167016Y-30422D01*
X-167062Y-30380D01*
Y-31620D01*
D02*
G37*
G36*
X-336283Y-31261D02*
X-336295Y-31398D01*
X-336315Y-31520D01*
X-336343Y-31626D01*
X-336379Y-31715D01*
X-336423Y-31788D01*
X-336475Y-31845D01*
X-336535Y-31885D01*
X-336603Y-31910D01*
X-336679Y-31918D01*
X-335080D01*
X-335156Y-31910D01*
X-335224Y-31885D01*
X-335284Y-31845D01*
X-335336Y-31788D01*
X-335380Y-31715D01*
X-335416Y-31626D01*
X-335444Y-31520D01*
X-335464Y-31398D01*
X-335476Y-31261D01*
X-335480Y-31106D01*
X-336279D01*
X-336283Y-31261D01*
D02*
G37*
G36*
X-364815Y-31450D02*
X-364929Y-31547D01*
X-365043Y-31633D01*
X-365156Y-31708D01*
X-365270Y-31772D01*
X-365383Y-31824D01*
X-365495Y-31864D01*
X-365607Y-31894D01*
X-365719Y-31911D01*
X-365830Y-31918D01*
X-363945Y-31906D01*
X-363941Y-31866D01*
X-363930Y-31822D01*
X-363911Y-31775D01*
X-363885Y-31724D01*
X-363851Y-31669D01*
X-363810Y-31611D01*
X-363705Y-31483D01*
X-363641Y-31414D01*
X-363570Y-31341D01*
X-364700D01*
X-364815Y-31450D01*
D02*
G37*
G36*
X-361486Y-31221D02*
X-361805Y-31495D01*
X-361955Y-31607D01*
X-362099Y-31701D01*
X-362238Y-31779D01*
X-362370Y-31839D01*
X-362496Y-31882D01*
X-362616Y-31909D01*
X-362731Y-31918D01*
X-360540Y-31906D01*
X-360539Y-31811D01*
X-360515Y-31464D01*
X-360506Y-31421D01*
X-360495Y-31385D01*
X-360483Y-31359D01*
X-360470Y-31341D01*
X-361318Y-31058D01*
X-361486Y-31221D01*
D02*
G37*
G36*
X-346310Y-31510D02*
X-346332Y-31792D01*
X-346342Y-31837D01*
X-346354Y-31872D01*
X-346368Y-31898D01*
X-346383Y-31913D01*
X-346400Y-31918D01*
X-345419D01*
X-345436Y-31913D01*
X-345452Y-31898D01*
X-345465Y-31872D01*
X-345477Y-31837D01*
X-345487Y-31792D01*
X-345495Y-31737D01*
X-345506Y-31596D01*
X-345510Y-31415D01*
X-346309D01*
X-346310Y-31510D01*
D02*
G37*
G36*
X-340020Y-31519D02*
X-340040Y-31795D01*
X-340049Y-31839D01*
X-340059Y-31873D01*
X-340071Y-31898D01*
X-340085Y-31913D01*
X-340100Y-31918D01*
X-339139D01*
X-339155Y-31913D01*
X-339168Y-31898D01*
X-339180Y-31873D01*
X-339191Y-31839D01*
X-339200Y-31795D01*
X-339207Y-31740D01*
X-339217Y-31602D01*
X-339220Y-31425D01*
X-340019D01*
X-340020Y-31519D01*
D02*
G37*
G36*
X-342770Y-31512D02*
X-343011Y-31792D01*
X-343038Y-31837D01*
X-343052Y-31873D01*
X-343052Y-31898D01*
X-343039Y-31913D01*
X-343013Y-31918D01*
X-342187D01*
X-342175Y-31918D01*
X-342676Y-31417D01*
X-342770Y-31512D01*
D02*
G37*
G36*
X-342111Y-31982D02*
X-342100Y-31970D01*
X-342094Y-31959D01*
X-342091Y-31949D01*
X-342093Y-31941D01*
X-342098Y-31934D01*
X-342108Y-31928D01*
X-342122Y-31923D01*
X-342139Y-31920D01*
X-342161Y-31918D01*
X-342175Y-31918D01*
X-342111Y-31982D01*
D02*
G37*
G36*
X-224731Y-31273D02*
X-224746Y-31443D01*
X-224771Y-31593D01*
X-224806Y-31723D01*
X-224851Y-31833D01*
X-224906Y-31923D01*
X-224971Y-31993D01*
X-225046Y-32043D01*
X-225131Y-32073D01*
X-225226Y-32083D01*
X-223226D01*
X-223321Y-32073D01*
X-223406Y-32043D01*
X-223481Y-31993D01*
X-223546Y-31923D01*
X-223601Y-31833D01*
X-223646Y-31723D01*
X-223681Y-31593D01*
X-223706Y-31443D01*
X-223721Y-31273D01*
X-223726Y-31083D01*
X-224726D01*
X-224731Y-31273D01*
D02*
G37*
G36*
X-218668D02*
X-218683Y-31443D01*
X-218708Y-31593D01*
X-218743Y-31723D01*
X-218788Y-31833D01*
X-218843Y-31923D01*
X-218908Y-31993D01*
X-218983Y-32043D01*
X-219068Y-32073D01*
X-219163Y-32083D01*
X-217163D01*
X-217258Y-32073D01*
X-217343Y-32043D01*
X-217418Y-31993D01*
X-217483Y-31923D01*
X-217538Y-31833D01*
X-217583Y-31723D01*
X-217618Y-31593D01*
X-217643Y-31443D01*
X-217658Y-31273D01*
X-217663Y-31083D01*
X-218663D01*
X-218668Y-31273D01*
D02*
G37*
G36*
X-226752Y-32181D02*
X-226557Y-32383D01*
X-226249Y-32746D01*
X-226136Y-32908D01*
X-226051Y-33056D01*
X-225993Y-33191D01*
X-225962Y-33312D01*
X-225958Y-33420D01*
X-225982Y-33514D01*
X-226033Y-33595D01*
X-224729Y-32095D01*
X-224801Y-32155D01*
X-224889Y-32185D01*
X-224992Y-32186D01*
X-225110Y-32158D01*
X-225244Y-32101D01*
X-225393Y-32015D01*
X-225558Y-31899D01*
X-225738Y-31754D01*
X-226143Y-31376D01*
X-226752Y-32181D01*
D02*
G37*
G36*
X-357947Y-31482D02*
X-358218Y-31708D01*
X-358342Y-31794D01*
X-358459Y-31861D01*
X-358568Y-31909D01*
X-358670Y-31939D01*
X-358764Y-31951D01*
X-358851Y-31944D01*
X-358930Y-31918D01*
X-357402Y-32626D01*
X-357464Y-32583D01*
X-357500Y-32524D01*
X-357509Y-32451D01*
X-357491Y-32361D01*
X-357447Y-32256D01*
X-357376Y-32135D01*
X-357278Y-31998D01*
X-357154Y-31846D01*
X-356825Y-31495D01*
X-357800Y-31341D01*
X-357947Y-31482D01*
D02*
G37*
G36*
X-171536Y-32303D02*
X-171826Y-32548D01*
X-171955Y-32638D01*
X-172073Y-32707D01*
X-172181Y-32754D01*
X-172278Y-32779D01*
X-172365Y-32782D01*
X-172441Y-32764D01*
X-172506Y-32725D01*
X-171289Y-33745D01*
X-171338Y-33688D01*
X-171363Y-33619D01*
X-171364Y-33537D01*
X-171342Y-33443D01*
X-171296Y-33336D01*
X-171226Y-33217D01*
X-171133Y-33085D01*
X-171016Y-32941D01*
X-170712Y-32614D01*
X-171376Y-32148D01*
X-171536Y-32303D01*
D02*
G37*
G36*
X-406373Y-33182D02*
X-406424Y-33219D01*
X-406480Y-33252D01*
X-406541Y-33281D01*
X-406608Y-33305D01*
X-406679Y-33325D01*
X-406756Y-33340D01*
X-406838Y-33351D01*
X-406924Y-33358D01*
X-407017Y-33360D01*
Y-34159D01*
X-406924Y-34162D01*
X-406756Y-34179D01*
X-406679Y-34195D01*
X-406608Y-34215D01*
X-406541Y-34239D01*
X-406480Y-34268D01*
X-406424Y-34301D01*
X-406373Y-34338D01*
X-406327Y-34380D01*
Y-33140D01*
X-406373Y-33182D01*
D02*
G37*
G36*
X-409911Y-34535D02*
X-409903Y-34464D01*
X-409879Y-34400D01*
X-409839Y-34344D01*
X-409783Y-34295D01*
X-409712Y-34253D01*
X-409624Y-34220D01*
X-409520Y-34193D01*
X-409400Y-34174D01*
X-409264Y-34163D01*
X-409112Y-34159D01*
Y-33360D01*
X-409264Y-33356D01*
X-409400Y-33345D01*
X-409520Y-33326D01*
X-409624Y-33300D01*
X-409712Y-33266D01*
X-409783Y-33225D01*
X-409839Y-33176D01*
X-409879Y-33120D01*
X-409903Y-33056D01*
X-409911Y-32984D01*
Y-34535D01*
D02*
G37*
G36*
X-219068Y-35915D02*
X-218983Y-35946D01*
X-218908Y-35996D01*
X-218843Y-36067D01*
X-218788Y-36158D01*
X-218743Y-36270D01*
X-218708Y-36401D01*
X-218683Y-36553D01*
X-218668Y-36725D01*
X-218663Y-36917D01*
X-217663D01*
X-217658Y-36725D01*
X-217643Y-36553D01*
X-217618Y-36401D01*
X-217583Y-36270D01*
X-217538Y-36158D01*
X-217483Y-36067D01*
X-217418Y-35996D01*
X-217343Y-35946D01*
X-217258Y-35915D01*
X-217163Y-35905D01*
X-219163D01*
X-219068Y-35915D01*
D02*
G37*
G36*
X-350277Y-39897D02*
X-350395Y-39903D01*
X-348773Y-39981D01*
Y-40031D01*
X-348619Y-40035D01*
X-348481Y-40047D01*
X-348359Y-40067D01*
X-348254Y-40095D01*
X-348165Y-40131D01*
X-348092Y-40175D01*
X-348035Y-40227D01*
X-347994Y-40287D01*
X-347970Y-40355D01*
X-347962Y-40431D01*
Y-40020D01*
X-347846Y-40026D01*
X-347777Y-40030D01*
X-347767Y-40031D01*
X-347193Y-39232D01*
X-347415Y-39222D01*
X-347605Y-39191D01*
X-347765Y-39140D01*
X-347895Y-39068D01*
X-347962Y-39005D01*
Y-38832D01*
X-347970Y-38908D01*
X-347994Y-38975D01*
X-348062Y-38862D01*
X-348099Y-38729D01*
X-348106Y-38574D01*
X-348082Y-38400D01*
X-348028Y-38205D01*
X-350277Y-39897D01*
D02*
G37*
G36*
X-341640Y-40431D02*
X-341632Y-40355D01*
X-341608Y-40287D01*
X-341568Y-40227D01*
X-341512Y-40175D01*
X-341440Y-40131D01*
X-341352Y-40095D01*
X-341248Y-40067D01*
X-341192Y-40058D01*
X-341135Y-40067D01*
X-341030Y-40095D01*
X-340940Y-40131D01*
X-340867Y-40175D01*
X-340810Y-40227D01*
X-340770Y-40287D01*
X-340746Y-40355D01*
X-340738Y-40431D01*
Y-38832D01*
X-340746Y-38908D01*
X-340770Y-38976D01*
X-340810Y-39036D01*
X-340867Y-39088D01*
X-340940Y-39132D01*
X-341030Y-39168D01*
X-341135Y-39196D01*
X-341192Y-39205D01*
X-341248Y-39196D01*
X-341352Y-39168D01*
X-341440Y-39132D01*
X-341512Y-39088D01*
X-341568Y-39036D01*
X-341608Y-38976D01*
X-341632Y-38908D01*
X-341640Y-38832D01*
Y-40431D01*
D02*
G37*
G36*
X-360540D02*
X-360532Y-40355D01*
X-360508Y-40287D01*
X-360468Y-40227D01*
X-360412Y-40175D01*
X-360340Y-40131D01*
X-360252Y-40095D01*
X-360148Y-40067D01*
X-360092Y-40058D01*
X-360035Y-40067D01*
X-359929Y-40095D01*
X-359840Y-40131D01*
X-359767Y-40175D01*
X-359711Y-40227D01*
X-359670Y-40287D01*
X-359646Y-40355D01*
X-359637Y-40431D01*
Y-38832D01*
X-359646Y-38908D01*
X-359670Y-38976D01*
X-359711Y-39036D01*
X-359767Y-39088D01*
X-359840Y-39132D01*
X-359929Y-39168D01*
X-360035Y-39196D01*
X-360092Y-39205D01*
X-360148Y-39196D01*
X-360252Y-39168D01*
X-360340Y-39132D01*
X-360412Y-39088D01*
X-360468Y-39036D01*
X-360508Y-38976D01*
X-360532Y-38908D01*
X-360540Y-38832D01*
Y-40431D01*
D02*
G37*
G36*
X-363945D02*
X-363937Y-40355D01*
X-363913Y-40287D01*
X-363873Y-40227D01*
X-363817Y-40175D01*
X-363745Y-40131D01*
X-363657Y-40095D01*
X-363554Y-40067D01*
X-363434Y-40047D01*
X-363370Y-40042D01*
X-363306Y-40047D01*
X-363185Y-40067D01*
X-363079Y-40095D01*
X-362990Y-40131D01*
X-362917Y-40175D01*
X-362860Y-40227D01*
X-362820Y-40287D01*
X-362795Y-40355D01*
X-362787Y-40431D01*
Y-38832D01*
X-362795Y-38908D01*
X-362820Y-38976D01*
X-362860Y-39036D01*
X-362917Y-39088D01*
X-362990Y-39132D01*
X-363079Y-39168D01*
X-363185Y-39196D01*
X-363306Y-39216D01*
X-363370Y-39222D01*
X-363434Y-39216D01*
X-363554Y-39196D01*
X-363657Y-39168D01*
X-363745Y-39132D01*
X-363817Y-39088D01*
X-363873Y-39036D01*
X-363913Y-38976D01*
X-363937Y-38908D01*
X-363945Y-38832D01*
Y-40431D01*
D02*
G37*
G36*
X-357390D02*
X-357382Y-40355D01*
X-357358Y-40287D01*
X-357318Y-40227D01*
X-357262Y-40175D01*
X-357190Y-40131D01*
X-357102Y-40095D01*
X-356998Y-40067D01*
X-356878Y-40047D01*
X-356815Y-40042D01*
X-356751Y-40047D01*
X-356629Y-40067D01*
X-356524Y-40095D01*
X-356435Y-40131D01*
X-356362Y-40175D01*
X-356305Y-40227D01*
X-356264Y-40287D01*
X-356240Y-40355D01*
X-356232Y-40431D01*
Y-38832D01*
X-356240Y-38908D01*
X-356264Y-38976D01*
X-356305Y-39036D01*
X-356362Y-39088D01*
X-356435Y-39132D01*
X-356524Y-39168D01*
X-356629Y-39196D01*
X-356751Y-39216D01*
X-356815Y-39222D01*
X-356878Y-39216D01*
X-356998Y-39196D01*
X-357102Y-39168D01*
X-357190Y-39132D01*
X-357262Y-39088D01*
X-357318Y-39036D01*
X-357358Y-38976D01*
X-357382Y-38908D01*
X-357390Y-38832D01*
Y-40431D01*
D02*
G37*
G36*
X-345045D02*
X-345037Y-40355D01*
X-345013Y-40287D01*
X-344973Y-40227D01*
X-344917Y-40175D01*
X-344845Y-40131D01*
X-344757Y-40095D01*
X-344654Y-40067D01*
X-344534Y-40047D01*
X-344470Y-40042D01*
X-344406Y-40047D01*
X-344285Y-40067D01*
X-344179Y-40095D01*
X-344090Y-40131D01*
X-344017Y-40175D01*
X-343960Y-40227D01*
X-343919Y-40287D01*
X-343895Y-40355D01*
X-343887Y-40431D01*
Y-38832D01*
X-343895Y-38908D01*
X-343919Y-38976D01*
X-343960Y-39036D01*
X-344017Y-39088D01*
X-344090Y-39132D01*
X-344179Y-39168D01*
X-344285Y-39196D01*
X-344406Y-39216D01*
X-344470Y-39222D01*
X-344534Y-39216D01*
X-344654Y-39196D01*
X-344757Y-39168D01*
X-344845Y-39132D01*
X-344917Y-39088D01*
X-344973Y-39036D01*
X-345013Y-38976D01*
X-345037Y-38908D01*
X-345045Y-38832D01*
Y-40431D01*
D02*
G37*
G36*
X-338490D02*
X-338482Y-40355D01*
X-338458Y-40287D01*
X-338418Y-40227D01*
X-338362Y-40175D01*
X-338290Y-40131D01*
X-338202Y-40095D01*
X-338098Y-40067D01*
X-337979Y-40047D01*
X-337915Y-40042D01*
X-337851Y-40047D01*
X-337729Y-40067D01*
X-337624Y-40095D01*
X-337535Y-40131D01*
X-337462Y-40175D01*
X-337405Y-40227D01*
X-337364Y-40287D01*
X-337340Y-40355D01*
X-337332Y-40431D01*
Y-38832D01*
X-337340Y-38908D01*
X-337364Y-38976D01*
X-337405Y-39036D01*
X-337462Y-39088D01*
X-337535Y-39132D01*
X-337624Y-39168D01*
X-337729Y-39196D01*
X-337851Y-39216D01*
X-337915Y-39222D01*
X-337979Y-39216D01*
X-338098Y-39196D01*
X-338202Y-39168D01*
X-338290Y-39132D01*
X-338362Y-39088D01*
X-338418Y-39036D01*
X-338458Y-38976D01*
X-338482Y-38908D01*
X-338490Y-38832D01*
Y-40431D01*
D02*
G37*
G36*
X-406373Y-38182D02*
X-406424Y-38219D01*
X-406480Y-38252D01*
X-406541Y-38281D01*
X-406608Y-38305D01*
X-406679Y-38325D01*
X-406756Y-38340D01*
X-406838Y-38351D01*
X-406924Y-38358D01*
X-407017Y-38360D01*
Y-39159D01*
X-406924Y-39162D01*
X-406756Y-39179D01*
X-406679Y-39195D01*
X-406608Y-39215D01*
X-406541Y-39239D01*
X-406480Y-39268D01*
X-406424Y-39301D01*
X-406373Y-39338D01*
X-406327Y-39380D01*
Y-38140D01*
X-406373Y-38182D01*
D02*
G37*
G36*
X-409911Y-39535D02*
X-409903Y-39464D01*
X-409879Y-39400D01*
X-409839Y-39344D01*
X-409783Y-39295D01*
X-409712Y-39253D01*
X-409624Y-39220D01*
X-409520Y-39193D01*
X-409400Y-39175D01*
X-409264Y-39163D01*
X-409112Y-39159D01*
Y-38360D01*
X-409264Y-38357D01*
X-409400Y-38345D01*
X-409520Y-38326D01*
X-409624Y-38300D01*
X-409712Y-38266D01*
X-409783Y-38225D01*
X-409839Y-38176D01*
X-409879Y-38120D01*
X-409903Y-38056D01*
X-409911Y-37984D01*
Y-39535D01*
D02*
G37*
G36*
X-295236Y-40123D02*
X-295229Y-40047D01*
X-295204Y-39979D01*
X-295164Y-39919D01*
X-295109Y-39867D01*
X-295037Y-39823D01*
X-294949Y-39787D01*
X-294845Y-39759D01*
X-294724Y-39739D01*
X-294588Y-39727D01*
X-294437Y-39723D01*
Y-38923D01*
X-294588Y-38919D01*
X-294724Y-38907D01*
X-294845Y-38887D01*
X-294949Y-38859D01*
X-295037Y-38823D01*
X-295109Y-38779D01*
X-295164Y-38727D01*
X-295204Y-38667D01*
X-295229Y-38599D01*
X-295236Y-38523D01*
Y-40123D01*
D02*
G37*
G36*
X-352707Y-38400D02*
X-352683Y-38574D01*
X-352690Y-38729D01*
X-352727Y-38862D01*
X-352796Y-38975D01*
X-352894Y-39068D01*
X-353024Y-39140D01*
X-353065Y-39153D01*
X-353115Y-39132D01*
X-353187Y-39088D01*
X-353243Y-39036D01*
X-353283Y-38976D01*
X-353307Y-38908D01*
X-353315Y-38832D01*
Y-39212D01*
X-353374Y-39222D01*
X-353596Y-39232D01*
X-353315Y-39623D01*
Y-40431D01*
X-353307Y-40355D01*
X-353283Y-40287D01*
X-353243Y-40227D01*
X-353187Y-40175D01*
X-353115Y-40131D01*
X-353028Y-40095D01*
X-352924Y-40067D01*
X-352804Y-40047D01*
X-352668Y-40035D01*
X-352516Y-40031D01*
Y-40005D01*
X-350395Y-39903D01*
X-350512Y-39897D01*
X-352762Y-38205D01*
X-352707Y-38400D01*
D02*
G37*
G36*
X-213405Y-39095D02*
X-213435Y-39180D01*
X-213486Y-39255D01*
X-213557Y-39320D01*
X-213648Y-39375D01*
X-213759Y-39420D01*
X-213891Y-39455D01*
X-214043Y-39480D01*
X-214215Y-39495D01*
X-214407Y-39500D01*
Y-40500D01*
X-214215Y-40505D01*
X-214043Y-40520D01*
X-213891Y-40545D01*
X-213759Y-40580D01*
X-213648Y-40625D01*
X-213557Y-40680D01*
X-213486Y-40745D01*
X-213435Y-40820D01*
X-213405Y-40905D01*
X-213395Y-41000D01*
Y-39000D01*
X-213405Y-39095D01*
D02*
G37*
G36*
X-323946Y-41382D02*
X-323962Y-41403D01*
X-323989Y-41421D01*
X-324026Y-41438D01*
X-324075Y-41451D01*
X-324133Y-41462D01*
X-324203Y-41471D01*
X-324375Y-41481D01*
X-324477Y-41482D01*
Y-42281D01*
X-324375Y-42283D01*
X-324133Y-42301D01*
X-324075Y-42312D01*
X-324026Y-42326D01*
X-323989Y-42342D01*
X-323962Y-42361D01*
X-323946Y-42382D01*
X-323941Y-42406D01*
Y-41358D01*
X-323946Y-41382D01*
D02*
G37*
G36*
X-295236Y-42756D02*
X-295227Y-42685D01*
X-295197Y-42621D01*
X-295146Y-42565D01*
X-295076Y-42516D01*
X-294987Y-42475D01*
X-294877Y-42442D01*
X-294746Y-42415D01*
X-294597Y-42397D01*
X-294426Y-42386D01*
X-294236Y-42382D01*
Y-41382D01*
X-294426Y-41378D01*
X-294746Y-41348D01*
X-294877Y-41322D01*
X-294987Y-41288D01*
X-295076Y-41247D01*
X-295146Y-41199D01*
X-295197Y-41143D01*
X-295227Y-41079D01*
X-295236Y-41008D01*
Y-42756D01*
D02*
G37*
G36*
X-272243Y-44171D02*
X-272226Y-44157D01*
X-272177Y-44145D01*
X-272094Y-44135D01*
X-271831Y-44118D01*
X-270595Y-44100D01*
Y-42100D01*
X-272243Y-42029D01*
Y-44171D01*
D02*
G37*
G36*
X-246652D02*
X-246639Y-44110D01*
X-246598Y-44055D01*
X-246530Y-44007D01*
X-246435Y-43965D01*
X-246313Y-43930D01*
X-246164Y-43901D01*
X-245987Y-43879D01*
X-245552Y-43853D01*
X-245295Y-43850D01*
Y-42350D01*
X-245552Y-42347D01*
X-246164Y-42299D01*
X-246313Y-42270D01*
X-246435Y-42235D01*
X-246530Y-42193D01*
X-246598Y-42145D01*
X-246639Y-42090D01*
X-246652Y-42029D01*
Y-44171D01*
D02*
G37*
G36*
X-292559Y-43643D02*
X-292429Y-43779D01*
X-292329Y-43902D01*
X-292257Y-44009D01*
X-292214Y-44103D01*
X-292199Y-44182D01*
X-292214Y-44247D01*
X-292257Y-44297D01*
X-292329Y-44333D01*
X-292429Y-44355D01*
X-292559Y-44362D01*
X-289731D01*
X-289873Y-44351D01*
X-290024Y-44319D01*
X-290182Y-44265D01*
X-290347Y-44190D01*
X-290520Y-44094D01*
X-290701Y-43976D01*
X-290889Y-43836D01*
X-291288Y-43493D01*
X-291498Y-43289D01*
X-292559Y-43643D01*
D02*
G37*
G36*
X-406373Y-43182D02*
X-406424Y-43219D01*
X-406480Y-43252D01*
X-406541Y-43281D01*
X-406608Y-43305D01*
X-406679Y-43325D01*
X-406756Y-43340D01*
X-406838Y-43351D01*
X-406924Y-43358D01*
X-407017Y-43360D01*
Y-44159D01*
X-406924Y-44162D01*
X-406756Y-44179D01*
X-406679Y-44195D01*
X-406608Y-44215D01*
X-406541Y-44239D01*
X-406480Y-44267D01*
X-406424Y-44300D01*
X-406373Y-44338D01*
X-406327Y-44380D01*
Y-43140D01*
X-406373Y-43182D01*
D02*
G37*
G36*
X-409911Y-44535D02*
X-409903Y-44464D01*
X-409879Y-44400D01*
X-409839Y-44344D01*
X-409783Y-44295D01*
X-409712Y-44253D01*
X-409624Y-44220D01*
X-409520Y-44193D01*
X-409400Y-44175D01*
X-409264Y-44163D01*
X-409112Y-44159D01*
Y-43360D01*
X-409264Y-43356D01*
X-409400Y-43345D01*
X-409520Y-43326D01*
X-409624Y-43300D01*
X-409712Y-43266D01*
X-409783Y-43225D01*
X-409839Y-43176D01*
X-409879Y-43120D01*
X-409903Y-43056D01*
X-409911Y-42984D01*
Y-44535D01*
D02*
G37*
G36*
X-323947Y-43849D02*
X-323967Y-43889D01*
X-323999Y-43925D01*
X-324044Y-43956D01*
X-324103Y-43982D01*
X-324174Y-44003D01*
X-324259Y-44020D01*
X-324356Y-44032D01*
X-324466Y-44039D01*
X-324590Y-44041D01*
Y-44841D01*
X-324466Y-44843D01*
X-324259Y-44862D01*
X-324174Y-44879D01*
X-324103Y-44900D01*
X-324044Y-44926D01*
X-323999Y-44957D01*
X-323967Y-44993D01*
X-323947Y-45033D01*
X-323941Y-45078D01*
Y-43804D01*
X-323947Y-43849D01*
D02*
G37*
G36*
X-289177Y-46920D02*
X-289170Y-46853D01*
X-289147Y-46793D01*
X-289110Y-46741D01*
X-289057Y-46695D01*
X-288990Y-46656D01*
X-288907Y-46625D01*
X-288809Y-46600D01*
X-288697Y-46583D01*
X-288569Y-46572D01*
X-288426Y-46569D01*
Y-45768D01*
X-288569Y-45765D01*
X-288697Y-45755D01*
X-288809Y-45737D01*
X-288907Y-45712D01*
X-288990Y-45681D01*
X-289057Y-45642D01*
X-289110Y-45596D01*
X-289147Y-45544D01*
X-289170Y-45484D01*
X-289177Y-45417D01*
Y-46920D01*
D02*
G37*
G36*
X-277902Y-47258D02*
X-277754Y-47411D01*
X-277519Y-47692D01*
X-277432Y-47818D01*
X-277365Y-47936D01*
X-277319Y-48044D01*
X-277293Y-48144D01*
X-277287Y-48234D01*
X-277302Y-48316D01*
X-277337Y-48388D01*
X-276435Y-47029D01*
X-276487Y-47085D01*
X-276552Y-47115D01*
X-276631Y-47121D01*
X-276724Y-47102D01*
X-276830Y-47058D01*
X-276950Y-46989D01*
X-277083Y-46895D01*
X-277231Y-46776D01*
X-277565Y-46464D01*
X-277902Y-47258D01*
D02*
G37*
G36*
X-167787Y-45515D02*
X-167746Y-45592D01*
X-167737Y-45688D01*
X-167761Y-45802D01*
X-167817Y-45934D01*
X-167905Y-46085D01*
X-168025Y-46254D01*
X-168177Y-46441D01*
X-168579Y-46870D01*
X-167478Y-47183D01*
X-167289Y-47002D01*
X-166944Y-46712D01*
X-166786Y-46603D01*
X-166640Y-46519D01*
X-166504Y-46459D01*
X-166378Y-46424D01*
X-166263Y-46413D01*
X-166158Y-46426D01*
X-166064Y-46464D01*
X-167859Y-45456D01*
X-167787Y-45515D01*
D02*
G37*
G36*
X-361595Y-45187D02*
X-361984Y-45438D01*
X-362171Y-45540D01*
X-362352Y-45627D01*
X-362529Y-45697D01*
X-362609Y-45723D01*
X-362682Y-45688D01*
X-362750Y-45640D01*
X-362798Y-45584D01*
X-362827Y-45520D01*
X-362837Y-45449D01*
Y-45784D01*
X-362867Y-45791D01*
X-363028Y-45815D01*
X-363184Y-45823D01*
X-363332Y-46823D01*
X-363162Y-46832D01*
X-362995Y-46861D01*
X-362837Y-46906D01*
Y-47197D01*
X-362827Y-47126D01*
X-362798Y-47062D01*
X-362750Y-47006D01*
X-362693Y-46965D01*
X-362672Y-46974D01*
X-362515Y-47059D01*
X-362362Y-47163D01*
X-362211Y-47285D01*
X-362064Y-47427D01*
X-361921Y-47587D01*
X-361780Y-47766D01*
X-361392Y-45038D01*
X-361595Y-45187D01*
D02*
G37*
G36*
X-371310Y-46346D02*
X-371442Y-46453D01*
X-371507Y-46496D01*
X-371571Y-46533D01*
X-371635Y-46563D01*
X-371699Y-46586D01*
X-371762Y-46602D01*
X-371824Y-46611D01*
X-371886Y-46614D01*
X-371009Y-47491D01*
X-371006Y-47429D01*
X-370997Y-47367D01*
X-370981Y-47304D01*
X-370958Y-47240D01*
X-370928Y-47176D01*
X-370891Y-47112D01*
X-370848Y-47047D01*
X-370798Y-46981D01*
X-370741Y-46915D01*
X-370677Y-46848D01*
X-371243Y-46283D01*
X-371310Y-46346D01*
D02*
G37*
G36*
X-301952Y-47498D02*
X-301895Y-47522D01*
X-301898Y-47160D01*
X-301952Y-47498D01*
D02*
G37*
G36*
X-317853Y-45443D02*
X-317642Y-47715D01*
X-315738Y-46032D01*
X-315854Y-46024D01*
X-315959Y-45994D01*
X-316051Y-45941D01*
X-316131Y-45867D01*
X-316199Y-45772D01*
X-316254Y-45654D01*
X-316297Y-45514D01*
X-316328Y-45353D01*
X-316347Y-45169D01*
X-316353Y-44964D01*
X-317853Y-45443D01*
D02*
G37*
G36*
X-300734Y-46197D02*
X-300764Y-46261D01*
X-300814Y-46317D01*
X-300884Y-46365D01*
X-300974Y-46406D01*
X-301084Y-46440D01*
X-301214Y-46466D01*
X-301364Y-46485D01*
X-301534Y-46496D01*
X-301724Y-46500D01*
Y-47500D01*
X-301534Y-47504D01*
X-301214Y-47534D01*
X-301084Y-47560D01*
X-300974Y-47594D01*
X-300884Y-47635D01*
X-300814Y-47683D01*
X-300764Y-47739D01*
X-300734Y-47803D01*
X-300724Y-47874D01*
Y-46126D01*
X-300734Y-46197D01*
D02*
G37*
G36*
X-380873Y-47422D02*
X-380924Y-47459D01*
X-380980Y-47492D01*
X-381041Y-47521D01*
X-381108Y-47545D01*
X-381179Y-47565D01*
X-381256Y-47581D01*
X-381338Y-47592D01*
X-381424Y-47598D01*
X-381517Y-47600D01*
Y-48400D01*
X-381424Y-48402D01*
X-381256Y-48419D01*
X-381179Y-48435D01*
X-381108Y-48455D01*
X-381041Y-48479D01*
X-380980Y-48508D01*
X-380924Y-48541D01*
X-380873Y-48578D01*
X-380827Y-48620D01*
Y-47380D01*
X-380873Y-47422D01*
D02*
G37*
G36*
X-246652Y-49171D02*
X-246637Y-49091D01*
X-246592Y-49019D01*
X-246517Y-48956D01*
X-246412Y-48901D01*
X-246277Y-48855D01*
X-246112Y-48817D01*
X-245917Y-48788D01*
X-245692Y-48767D01*
X-245152Y-48750D01*
Y-47250D01*
X-245437Y-47248D01*
X-246277Y-47195D01*
X-246412Y-47171D01*
X-246517Y-47142D01*
X-246592Y-47109D01*
X-246637Y-47071D01*
X-246652Y-47029D01*
Y-49171D01*
D02*
G37*
G36*
X-406373Y-48182D02*
X-406424Y-48219D01*
X-406480Y-48252D01*
X-406541Y-48281D01*
X-406608Y-48305D01*
X-406679Y-48325D01*
X-406756Y-48340D01*
X-406838Y-48351D01*
X-406924Y-48358D01*
X-407017Y-48360D01*
Y-49159D01*
X-406924Y-49162D01*
X-406756Y-49179D01*
X-406679Y-49195D01*
X-406608Y-49215D01*
X-406541Y-49239D01*
X-406480Y-49268D01*
X-406424Y-49301D01*
X-406373Y-49338D01*
X-406327Y-49380D01*
Y-48140D01*
X-406373Y-48182D01*
D02*
G37*
G36*
X-361170Y-48324D02*
X-361070Y-48416D01*
X-360982Y-48518D01*
X-360906Y-48629D01*
X-360841Y-48750D01*
X-360788Y-48881D01*
X-360747Y-49021D01*
X-360718Y-49171D01*
X-360700Y-49331D01*
X-360695Y-49500D01*
X-359695D01*
X-359689Y-49331D01*
X-359671Y-49171D01*
X-359642Y-49021D01*
X-359601Y-48881D01*
X-359548Y-48750D01*
X-359483Y-48629D01*
X-359407Y-48518D01*
X-359319Y-48416D01*
X-359219Y-48324D01*
X-359108Y-48241D01*
X-361281D01*
X-361170Y-48324D01*
D02*
G37*
G36*
X-302900Y-47249D02*
X-302918Y-47378D01*
X-302946Y-47487D01*
X-302986Y-47575D01*
X-303038Y-47642D01*
X-303101Y-47689D01*
X-303175Y-47715D01*
X-303261Y-47721D01*
X-303358Y-47706D01*
X-303467Y-47671D01*
X-302232Y-49345D01*
X-302220Y-49500D01*
X-302168Y-48867D01*
X-301952Y-47498D01*
X-302895Y-47100D01*
X-302900Y-47249D01*
D02*
G37*
G36*
X-241343Y-46643D02*
X-241389Y-46770D01*
X-241464Y-46883D01*
X-241570Y-46980D01*
X-241706Y-47063D01*
X-241872Y-47130D01*
X-242069Y-47183D01*
X-242296Y-47220D01*
X-242553Y-47243D01*
X-242840Y-47250D01*
Y-48750D01*
X-242553Y-48757D01*
X-242296Y-48780D01*
X-242069Y-48818D01*
X-241872Y-48870D01*
X-241706Y-48937D01*
X-241570Y-49020D01*
X-241464Y-49117D01*
X-241389Y-49230D01*
X-241343Y-49358D01*
X-241328Y-49500D01*
Y-46500D01*
X-241343Y-46643D01*
D02*
G37*
G36*
X-409911Y-49535D02*
X-409903Y-49464D01*
X-409879Y-49400D01*
X-409839Y-49344D01*
X-409783Y-49295D01*
X-409712Y-49253D01*
X-409624Y-49220D01*
X-409520Y-49193D01*
X-409400Y-49174D01*
X-409264Y-49163D01*
X-409112Y-49159D01*
Y-48360D01*
X-409264Y-48357D01*
X-409400Y-48345D01*
X-409520Y-48326D01*
X-409624Y-48300D01*
X-409712Y-48266D01*
X-409783Y-48225D01*
X-409839Y-48176D01*
X-409879Y-48120D01*
X-409903Y-48056D01*
X-409911Y-47984D01*
Y-49535D01*
D02*
G37*
G36*
X-368332Y-48197D02*
X-368354Y-48257D01*
X-368392Y-48309D01*
X-368445Y-48355D01*
X-368512Y-48394D01*
X-368595Y-48426D01*
X-368693Y-48451D01*
X-368806Y-48468D01*
X-368934Y-48479D01*
X-369076Y-48482D01*
Y-49281D01*
X-368934Y-49285D01*
X-368806Y-49296D01*
X-368693Y-49313D01*
X-368595Y-49338D01*
X-368512Y-49370D01*
X-368445Y-49408D01*
X-368392Y-49454D01*
X-368354Y-49507D01*
X-368332Y-49567D01*
X-368324Y-49634D01*
Y-48130D01*
X-368332Y-48197D01*
D02*
G37*
G36*
X-345735Y-50070D02*
X-345850Y-50168D01*
X-345964Y-50255D01*
X-346078Y-50330D01*
X-346191Y-50393D01*
X-346304Y-50445D01*
X-346416Y-50485D01*
X-346528Y-50514D01*
X-346639Y-50532D01*
X-346750Y-50537D01*
X-344490D01*
X-344594Y-50532D01*
X-344674Y-50514D01*
X-344732Y-50485D01*
X-344767Y-50445D01*
X-344778Y-50393D01*
X-344767Y-50330D01*
X-344732Y-50255D01*
X-344674Y-50168D01*
X-344594Y-50070D01*
X-344490Y-49960D01*
X-345620D01*
X-345735Y-50070D01*
D02*
G37*
G36*
X-355695Y-45000D02*
Y-48500D01*
X-354195Y-50000D01*
Y-51500D01*
X-351351D01*
X-351056Y-51205D01*
X-350604Y-51872D01*
X-350639Y-51801D01*
X-350653Y-51721D01*
X-350646Y-51631D01*
X-350619Y-51532D01*
X-350572Y-51424D01*
X-350504Y-51306D01*
X-350415Y-51179D01*
X-350306Y-51043D01*
X-350027Y-50741D01*
X-350202Y-50351D01*
X-348651Y-48800D01*
X-345874D01*
X-342774Y-45700D01*
X-344474Y-44000D01*
X-354695D01*
X-355695Y-45000D01*
D02*
G37*
G36*
X-198520Y-49579D02*
X-198895Y-49899D01*
X-199059Y-50015D01*
X-199208Y-50101D01*
X-199342Y-50158D01*
X-199460Y-50186D01*
X-199563Y-50185D01*
X-199651Y-50155D01*
X-199723Y-50095D01*
X-198419Y-51595D01*
X-198470Y-51514D01*
X-198494Y-51420D01*
X-198490Y-51312D01*
X-198459Y-51191D01*
X-198401Y-51056D01*
X-198316Y-50908D01*
X-198203Y-50746D01*
X-198063Y-50571D01*
X-197700Y-50181D01*
X-198309Y-49376D01*
X-198520Y-49579D01*
D02*
G37*
G36*
X-301951Y-51507D02*
X-301898Y-51840D01*
X-301895Y-51478D01*
X-301951Y-51507D01*
D02*
G37*
G36*
X-391559Y-50893D02*
X-391576Y-50924D01*
X-391605Y-50951D01*
X-391646Y-50975D01*
X-391698Y-50995D01*
X-391762Y-51012D01*
X-391838Y-51025D01*
X-391926Y-51034D01*
X-392136Y-51041D01*
Y-51841D01*
X-392025Y-51843D01*
X-391838Y-51857D01*
X-391762Y-51870D01*
X-391698Y-51887D01*
X-391646Y-51907D01*
X-391605Y-51930D01*
X-391576Y-51958D01*
X-391559Y-51989D01*
X-391553Y-52024D01*
Y-50858D01*
X-391559Y-50893D01*
D02*
G37*
G36*
X-362848Y-52240D02*
X-362840Y-52164D01*
X-362816Y-52096D01*
X-362775Y-52036D01*
X-362719Y-51984D01*
X-362646Y-51940D01*
X-362556Y-51904D01*
X-362451Y-51876D01*
X-362329Y-51856D01*
X-362191Y-51845D01*
X-362037Y-51841D01*
Y-51041D01*
X-362191Y-51037D01*
X-362329Y-51025D01*
X-362451Y-51005D01*
X-362556Y-50977D01*
X-362646Y-50941D01*
X-362719Y-50898D01*
X-362775Y-50845D01*
X-362816Y-50786D01*
X-362840Y-50718D01*
X-362848Y-50642D01*
Y-52240D01*
D02*
G37*
G36*
X-386065Y-52315D02*
X-386055Y-52244D01*
X-386025Y-52180D01*
X-385975Y-52124D01*
X-385905Y-52075D01*
X-385815Y-52034D01*
X-385705Y-52001D01*
X-385575Y-51975D01*
X-385425Y-51956D01*
X-385255Y-51945D01*
X-385065Y-51941D01*
Y-50941D01*
X-385255Y-50937D01*
X-385575Y-50907D01*
X-385705Y-50881D01*
X-385815Y-50848D01*
X-385905Y-50806D01*
X-385975Y-50758D01*
X-386025Y-50702D01*
X-386055Y-50638D01*
X-386065Y-50567D01*
Y-52315D01*
D02*
G37*
G36*
X-302232Y-49655D02*
X-303155Y-50906D01*
X-305573D01*
X-305501Y-50987D01*
X-305436Y-51083D01*
X-305380Y-51194D01*
X-305331Y-51319D01*
X-305289Y-51459D01*
X-305255Y-51613D01*
X-305229Y-51782D01*
X-305210Y-51966D01*
X-305195Y-52377D01*
X-303195D01*
X-303191Y-52164D01*
X-303161Y-51782D01*
X-303148Y-51703D01*
X-302895Y-52000D01*
X-301951Y-51507D01*
X-302168Y-50134D01*
X-302220Y-49500D01*
X-302232Y-49655D01*
D02*
G37*
G36*
X-318465Y-52918D02*
X-318457Y-52842D01*
X-318433Y-52774D01*
X-318393Y-52714D01*
X-318337Y-52662D01*
X-318265Y-52618D01*
X-318177Y-52582D01*
X-318073Y-52554D01*
X-317953Y-52534D01*
X-317817Y-52522D01*
X-317665Y-52518D01*
Y-51718D01*
X-317817Y-51714D01*
X-317953Y-51702D01*
X-318073Y-51682D01*
X-318177Y-51654D01*
X-318265Y-51618D01*
X-318337Y-51574D01*
X-318393Y-51522D01*
X-318433Y-51462D01*
X-318457Y-51394D01*
X-318465Y-51318D01*
Y-52918D01*
D02*
G37*
G36*
X-300734Y-51315D02*
X-300764Y-51379D01*
X-300814Y-51435D01*
X-300884Y-51484D01*
X-300974Y-51525D01*
X-301084Y-51558D01*
X-301214Y-51585D01*
X-301364Y-51603D01*
X-301534Y-51614D01*
X-301724Y-51618D01*
Y-52618D01*
X-301534Y-52622D01*
X-301214Y-52652D01*
X-301084Y-52678D01*
X-300974Y-52712D01*
X-300884Y-52753D01*
X-300814Y-52801D01*
X-300764Y-52857D01*
X-300734Y-52921D01*
X-300724Y-52992D01*
Y-51244D01*
X-300734Y-51315D01*
D02*
G37*
G36*
X-245545Y-53760D02*
X-245524Y-53758D01*
X-245467Y-53756D01*
X-243695Y-53750D01*
Y-52250D01*
X-245545Y-52240D01*
Y-53760D01*
D02*
G37*
G36*
X-243469Y-55330D02*
X-243320Y-55281D01*
X-243171Y-55252D01*
X-243023Y-55244D01*
X-242875Y-55256D01*
X-242728Y-55289D01*
X-242581Y-55342D01*
X-242434Y-55415D01*
X-242288Y-55509D01*
X-242167Y-55603D01*
X-242016Y-55782D01*
X-241855Y-55995D01*
X-241716Y-56207D01*
X-241598Y-56419D01*
X-241501Y-56631D01*
X-241426Y-56843D01*
X-241372Y-57054D01*
X-241339Y-57265D01*
X-241328Y-57476D01*
X-241340Y-53626D01*
X-241351Y-53742D01*
X-241383Y-53824D01*
X-241436Y-53871D01*
X-241510Y-53884D01*
X-241605Y-53862D01*
X-241722Y-53805D01*
X-241841Y-53726D01*
X-241871Y-53688D01*
X-242062Y-53402D01*
X-242146Y-53256D01*
X-242290Y-52961D01*
X-242351Y-52811D01*
X-243469Y-55330D01*
D02*
G37*
G36*
X-207660Y-53905D02*
X-207588Y-53845D01*
X-207500Y-53815D01*
X-207397Y-53814D01*
X-207279Y-53842D01*
X-207145Y-53899D01*
X-206996Y-53986D01*
X-206832Y-54101D01*
X-206652Y-54246D01*
X-206246Y-54624D01*
X-205637Y-53819D01*
X-205832Y-53617D01*
X-206140Y-53254D01*
X-206253Y-53092D01*
X-206338Y-52944D01*
X-206396Y-52809D01*
X-206427Y-52688D01*
X-206431Y-52580D01*
X-206407Y-52486D01*
X-206356Y-52404D01*
X-207660Y-53905D01*
D02*
G37*
G36*
X-253695Y-54000D02*
X-253324Y-54002D01*
X-251922Y-54084D01*
X-251824Y-54109D01*
X-251766Y-54138D01*
X-251746Y-54171D01*
Y-52029D01*
X-251766Y-52024D01*
X-251824Y-52019D01*
X-252233Y-52007D01*
X-253695Y-52000D01*
Y-54000D01*
D02*
G37*
G36*
X-362848Y-54642D02*
X-362842Y-54615D01*
X-362822Y-54591D01*
X-362790Y-54570D01*
X-362744Y-54551D01*
X-362685Y-54536D01*
X-362613Y-54523D01*
X-362528Y-54513D01*
X-362397Y-54506D01*
X-362372Y-54531D01*
X-362209Y-54719D01*
X-362169Y-54774D01*
X-362137Y-54824D01*
X-362112Y-54871D01*
X-362094Y-54913D01*
X-362083Y-54952D01*
X-362080Y-54986D01*
X-361209Y-54114D01*
X-361243Y-54111D01*
X-361281Y-54101D01*
X-361324Y-54083D01*
X-361370Y-54058D01*
X-361421Y-54025D01*
X-361475Y-53986D01*
X-361597Y-53884D01*
X-361734Y-53754D01*
X-362195Y-54214D01*
Y-53500D01*
X-362319Y-53499D01*
X-362613Y-53477D01*
X-362685Y-53465D01*
X-362744Y-53449D01*
X-362790Y-53430D01*
X-362822Y-53409D01*
X-362842Y-53385D01*
X-362848Y-53358D01*
Y-54642D01*
D02*
G37*
G36*
X-187982Y-52486D02*
X-187958Y-52580D01*
X-187962Y-52688D01*
X-187993Y-52809D01*
X-188051Y-52944D01*
X-188136Y-53092D01*
X-188249Y-53254D01*
X-188390Y-53429D01*
X-188752Y-53819D01*
X-188143Y-54624D01*
X-187933Y-54421D01*
X-187558Y-54101D01*
X-187393Y-53986D01*
X-187244Y-53899D01*
X-187110Y-53842D01*
X-186992Y-53814D01*
X-186889Y-53815D01*
X-186801Y-53845D01*
X-186729Y-53905D01*
X-188033Y-52404D01*
X-187982Y-52486D01*
D02*
G37*
G36*
X-386077Y-54800D02*
X-386069Y-54724D01*
X-386044Y-54656D01*
X-386004Y-54596D01*
X-385947Y-54544D01*
X-385874Y-54500D01*
X-385785Y-54464D01*
X-385679Y-54436D01*
X-385557Y-54416D01*
X-385419Y-54404D01*
X-385265Y-54400D01*
Y-53600D01*
X-385419Y-53596D01*
X-385557Y-53584D01*
X-385679Y-53564D01*
X-385785Y-53536D01*
X-385874Y-53500D01*
X-385947Y-53456D01*
X-386004Y-53404D01*
X-386044Y-53344D01*
X-386069Y-53276D01*
X-386077Y-53200D01*
Y-54800D01*
D02*
G37*
G36*
X-195068Y-53915D02*
X-194983Y-53946D01*
X-194908Y-53996D01*
X-194843Y-54067D01*
X-194788Y-54158D01*
X-194743Y-54269D01*
X-194708Y-54401D01*
X-194683Y-54553D01*
X-194668Y-54725D01*
X-194663Y-54917D01*
X-193663D01*
X-193658Y-54725D01*
X-193643Y-54553D01*
X-193618Y-54401D01*
X-193583Y-54269D01*
X-193538Y-54158D01*
X-193483Y-54067D01*
X-193418Y-53996D01*
X-193343Y-53946D01*
X-193258Y-53915D01*
X-193163Y-53905D01*
X-195163D01*
X-195068Y-53915D01*
D02*
G37*
G36*
X-167787Y-53389D02*
X-167746Y-53466D01*
X-167737Y-53562D01*
X-167761Y-53676D01*
X-167817Y-53808D01*
X-167905Y-53959D01*
X-168025Y-54128D01*
X-168177Y-54315D01*
X-168579Y-54744D01*
X-167478Y-55057D01*
X-167289Y-54876D01*
X-166944Y-54586D01*
X-166786Y-54477D01*
X-166640Y-54393D01*
X-166504Y-54333D01*
X-166378Y-54298D01*
X-166263Y-54287D01*
X-166158Y-54300D01*
X-166064Y-54338D01*
X-167859Y-53330D01*
X-167787Y-53389D01*
D02*
G37*
G36*
X-318465Y-55476D02*
X-318457Y-55401D01*
X-318433Y-55332D01*
X-318393Y-55273D01*
X-318337Y-55221D01*
X-318265Y-55177D01*
X-318177Y-55141D01*
X-318073Y-55113D01*
X-317953Y-55093D01*
X-317817Y-55081D01*
X-317666Y-55077D01*
Y-54278D01*
X-317817Y-54274D01*
X-317953Y-54262D01*
X-318073Y-54242D01*
X-318177Y-54214D01*
X-318265Y-54178D01*
X-318337Y-54134D01*
X-318393Y-54082D01*
X-318433Y-54022D01*
X-318457Y-53954D01*
X-318465Y-53878D01*
Y-55476D01*
D02*
G37*
G36*
X-384953Y-51642D02*
X-381095Y-55500D01*
X-379195D01*
Y-50500D01*
X-381395D01*
X-384354Y-47540D01*
X-384953D01*
Y-51642D01*
D02*
G37*
G36*
X-292695Y-51000D02*
X-292695Y-53619D01*
X-292803Y-53674D01*
X-292963Y-53741D01*
X-293127Y-53798D01*
X-293297Y-53844D01*
X-293471Y-53881D01*
X-293651Y-53907D01*
X-293836Y-53922D01*
X-293986Y-53926D01*
X-294022Y-53926D01*
X-295177Y-53848D01*
X-295221Y-53827D01*
X-295236Y-53803D01*
Y-55551D01*
X-295221Y-55528D01*
X-295177Y-55506D01*
X-295101Y-55488D01*
X-294997Y-55472D01*
X-294696Y-55447D01*
X-294158Y-55432D01*
X-294103Y-55434D01*
X-293918Y-55455D01*
X-293744Y-55490D01*
X-293698Y-55504D01*
X-295195Y-57000D01*
X-304194Y-57000D01*
X-306944Y-59750D01*
X-305695Y-61000D01*
Y-63500D01*
X-303695D01*
X-303195Y-64000D01*
X-291695D01*
X-289195Y-61500D01*
Y-51000D01*
X-292695Y-51000D01*
D02*
G37*
G36*
X-361186Y-55886D02*
X-361150Y-55889D01*
X-361111Y-55900D01*
X-361067Y-55918D01*
X-361020Y-55943D01*
X-360969Y-55975D01*
X-360914Y-56015D01*
X-360792Y-56116D01*
X-360655Y-56246D01*
X-359948Y-55539D01*
X-360017Y-55469D01*
X-360180Y-55281D01*
X-360220Y-55225D01*
X-360252Y-55174D01*
X-360277Y-55127D01*
X-360295Y-55084D01*
X-360306Y-55044D01*
X-360309Y-55009D01*
X-361186Y-55886D01*
D02*
G37*
G36*
X-391559Y-56011D02*
X-391576Y-56042D01*
X-391605Y-56069D01*
X-391646Y-56093D01*
X-391698Y-56113D01*
X-391762Y-56130D01*
X-391838Y-56143D01*
X-391926Y-56152D01*
X-392136Y-56159D01*
Y-56959D01*
X-392025Y-56961D01*
X-391838Y-56976D01*
X-391762Y-56988D01*
X-391698Y-57005D01*
X-391646Y-57025D01*
X-391605Y-57049D01*
X-391576Y-57076D01*
X-391559Y-57107D01*
X-391553Y-57142D01*
Y-55976D01*
X-391559Y-56011D01*
D02*
G37*
G36*
X-386077Y-58616D02*
X-386099Y-58629D01*
X-386162Y-58656D01*
X-386231Y-58678D01*
X-386306Y-58696D01*
X-386387Y-58708D01*
X-386473Y-58716D01*
X-386566Y-58718D01*
X-386445Y-59518D01*
X-386352Y-59520D01*
X-386182Y-59534D01*
X-386104Y-59547D01*
X-386077Y-59553D01*
Y-59870D01*
X-386069Y-59803D01*
X-386046Y-59743D01*
X-386008Y-59691D01*
X-385955Y-59645D01*
X-385893Y-59610D01*
X-385841Y-59634D01*
X-385788Y-59664D01*
X-385739Y-59699D01*
X-385757Y-59563D01*
X-385702Y-59550D01*
X-385588Y-59532D01*
X-385458Y-59522D01*
X-385313Y-59518D01*
Y-58718D01*
X-385458Y-58715D01*
X-385588Y-58704D01*
X-385702Y-58686D01*
X-385802Y-58662D01*
X-385882Y-58631D01*
X-385904Y-58470D01*
X-385944Y-58517D01*
X-385990Y-58559D01*
X-385991Y-58560D01*
X-386008Y-58546D01*
X-386046Y-58493D01*
X-386069Y-58433D01*
X-386077Y-58366D01*
Y-58616D01*
D02*
G37*
G36*
X-277342Y-57853D02*
X-277355Y-57863D01*
X-277378Y-57872D01*
X-277410Y-57880D01*
X-277451Y-57886D01*
X-277561Y-57895D01*
X-277708Y-57900D01*
X-277795Y-57900D01*
Y-58700D01*
X-277708Y-58700D01*
X-277410Y-58720D01*
X-277378Y-58728D01*
X-277355Y-58737D01*
X-277342Y-58747D01*
X-277337Y-58758D01*
Y-57842D01*
X-277342Y-57853D01*
D02*
G37*
G36*
X-248645Y-59159D02*
X-248533Y-59072D01*
X-248398Y-59028D01*
X-248241Y-59028D01*
X-248062Y-59070D01*
X-247861Y-59156D01*
X-247638Y-59285D01*
X-247393Y-59457D01*
X-247125Y-59672D01*
X-246524Y-60231D01*
X-245592Y-59042D01*
X-245793Y-58831D01*
X-246132Y-58416D01*
X-246270Y-58211D01*
X-246387Y-58009D01*
X-246482Y-57809D01*
X-246557Y-57610D01*
X-246610Y-57415D01*
X-246642Y-57221D01*
X-246652Y-57029D01*
X-248645Y-59159D01*
D02*
G37*
G36*
X-210689Y-59181D02*
X-210494Y-59383D01*
X-210186Y-59746D01*
X-210073Y-59908D01*
X-209988Y-60056D01*
X-209930Y-60191D01*
X-209899Y-60312D01*
X-209895Y-60420D01*
X-209919Y-60514D01*
X-209970Y-60596D01*
X-208666Y-59095D01*
X-208738Y-59155D01*
X-208826Y-59185D01*
X-208929Y-59186D01*
X-209047Y-59158D01*
X-209181Y-59101D01*
X-209330Y-59014D01*
X-209495Y-58899D01*
X-209675Y-58754D01*
X-210080Y-58376D01*
X-210689Y-59181D01*
D02*
G37*
G36*
X-406373Y-58182D02*
X-406424Y-58219D01*
X-406480Y-58252D01*
X-406541Y-58281D01*
X-406608Y-58305D01*
X-406679Y-58325D01*
X-406756Y-58340D01*
X-406838Y-58351D01*
X-406924Y-58358D01*
X-407017Y-58360D01*
Y-59159D01*
X-406924Y-59162D01*
X-406756Y-59179D01*
X-406679Y-59195D01*
X-406608Y-59215D01*
X-406541Y-59239D01*
X-406480Y-59267D01*
X-406424Y-59301D01*
X-406373Y-59338D01*
X-406327Y-59380D01*
Y-58140D01*
X-406373Y-58182D01*
D02*
G37*
G36*
X-409911Y-59535D02*
X-409903Y-59464D01*
X-409879Y-59400D01*
X-409839Y-59344D01*
X-409783Y-59295D01*
X-409712Y-59253D01*
X-409624Y-59220D01*
X-409520Y-59193D01*
X-409400Y-59175D01*
X-409264Y-59163D01*
X-409112Y-59159D01*
Y-58360D01*
X-409264Y-58356D01*
X-409400Y-58345D01*
X-409520Y-58326D01*
X-409624Y-58300D01*
X-409712Y-58266D01*
X-409783Y-58225D01*
X-409839Y-58176D01*
X-409879Y-58120D01*
X-409903Y-58056D01*
X-409911Y-57984D01*
Y-59535D01*
D02*
G37*
G36*
X-368332Y-58433D02*
X-368354Y-58493D01*
X-368392Y-58546D01*
X-368445Y-58592D01*
X-368512Y-58630D01*
X-368595Y-58662D01*
X-368693Y-58687D01*
X-368806Y-58704D01*
X-368934Y-58715D01*
X-369076Y-58719D01*
Y-59518D01*
X-368934Y-59521D01*
X-368806Y-59532D01*
X-368693Y-59549D01*
X-368595Y-59574D01*
X-368512Y-59606D01*
X-368445Y-59645D01*
X-368392Y-59690D01*
X-368354Y-59743D01*
X-368332Y-59803D01*
X-368324Y-59870D01*
Y-58366D01*
X-368332Y-58433D01*
D02*
G37*
G36*
X-309580Y-56965D02*
X-309867Y-57199D01*
X-309998Y-57284D01*
X-310121Y-57348D01*
X-310236Y-57391D01*
X-310343Y-57413D01*
X-310443Y-57414D01*
X-310534Y-57394D01*
X-310617Y-57352D01*
X-309964Y-59939D01*
X-308230Y-58449D01*
X-309425Y-56816D01*
X-309580Y-56965D01*
D02*
G37*
G36*
X-191665Y-58989D02*
X-191703Y-59009D01*
X-191750Y-59026D01*
X-191806Y-59041D01*
X-191872Y-59054D01*
X-191947Y-59064D01*
X-192127Y-59078D01*
X-192344Y-59083D01*
X-192356Y-61795D01*
X-192349Y-61655D01*
X-192327Y-61515D01*
X-192290Y-61375D01*
X-192240Y-61234D01*
X-192175Y-61093D01*
X-192096Y-60951D01*
X-192003Y-60809D01*
X-191895Y-60667D01*
X-191773Y-60524D01*
X-191637Y-60381D01*
Y-58967D01*
X-191665Y-58989D01*
D02*
G37*
G36*
X-167876Y-58271D02*
X-167925Y-58498D01*
X-168005Y-58736D01*
X-168117Y-58985D01*
X-168262Y-59244D01*
X-168438Y-59515D01*
X-168646Y-59797D01*
X-169158Y-60393D01*
X-169463Y-60707D01*
X-168932Y-62298D01*
X-168908Y-62284D01*
X-168866Y-62272D01*
X-168806Y-62261D01*
X-168727Y-62251D01*
X-168381Y-62231D01*
X-167871Y-62224D01*
X-167859Y-58056D01*
X-167876Y-58271D01*
D02*
G37*
G36*
X-368332Y-61554D02*
X-368356Y-61622D01*
X-368396Y-61682D01*
X-368452Y-61734D01*
X-368524Y-61778D01*
X-368612Y-61814D01*
X-368716Y-61842D01*
X-368836Y-61862D01*
X-368931Y-61870D01*
X-368965Y-61867D01*
X-369043Y-61853D01*
X-369115Y-61835D01*
X-369180Y-61810D01*
X-369238Y-61781D01*
X-369289Y-61746D01*
X-369333Y-61706D01*
X-369370Y-61660D01*
X-369400Y-61609D01*
X-370195Y-62388D01*
X-370989Y-61609D01*
X-371019Y-61660D01*
X-371056Y-61706D01*
X-371100Y-61746D01*
X-371151Y-61781D01*
X-371209Y-61810D01*
X-371274Y-61835D01*
X-371346Y-61853D01*
X-371425Y-61867D01*
X-371511Y-61875D01*
X-371603Y-61878D01*
X-371298Y-62677D01*
X-371204Y-62678D01*
X-370954Y-62694D01*
X-370882Y-62704D01*
X-370754Y-62731D01*
X-370697Y-62747D01*
X-370647Y-62766D01*
X-370601Y-62787D01*
X-370195Y-62388D01*
X-369788Y-62787D01*
X-369742Y-62766D01*
X-369692Y-62747D01*
X-369636Y-62731D01*
X-369507Y-62704D01*
X-369435Y-62694D01*
X-369185Y-62678D01*
X-369092Y-62677D01*
X-369091Y-62677D01*
X-368972Y-62675D01*
X-368524Y-62645D01*
X-368452Y-62631D01*
X-368396Y-62615D01*
X-368356Y-62596D01*
X-368332Y-62575D01*
X-368324Y-62551D01*
Y-61478D01*
X-368332Y-61554D01*
D02*
G37*
G36*
X-207660Y-62905D02*
X-207588Y-62845D01*
X-207500Y-62815D01*
X-207397Y-62814D01*
X-207279Y-62842D01*
X-207145Y-62899D01*
X-206996Y-62985D01*
X-206832Y-63101D01*
X-206652Y-63246D01*
X-206246Y-63624D01*
X-205637Y-62819D01*
X-205832Y-62617D01*
X-206140Y-62254D01*
X-206253Y-62092D01*
X-206338Y-61944D01*
X-206396Y-61809D01*
X-206427Y-61688D01*
X-206431Y-61580D01*
X-206407Y-61486D01*
X-206356Y-61405D01*
X-207660Y-62905D01*
D02*
G37*
G36*
X-178501Y-62487D02*
X-178436Y-62583D01*
X-178380Y-62694D01*
X-178331Y-62819D01*
X-178289Y-62959D01*
X-178255Y-63113D01*
X-178229Y-63282D01*
X-178210Y-63466D01*
X-178195Y-63877D01*
X-176195D01*
X-176191Y-63664D01*
X-176161Y-63282D01*
X-176134Y-63113D01*
X-176100Y-62959D01*
X-176058Y-62819D01*
X-176009Y-62694D01*
X-175953Y-62583D01*
X-175888Y-62487D01*
X-175817Y-62406D01*
X-178572D01*
X-178501Y-62487D01*
D02*
G37*
G36*
X-313106Y-63905D02*
X-312935Y-63810D01*
X-312739Y-63767D01*
X-312518Y-63778D01*
X-312273Y-63841D01*
X-312002Y-63957D01*
X-311707Y-64126D01*
X-311387Y-64348D01*
X-311042Y-64623D01*
X-310672Y-64951D01*
X-310277Y-65331D01*
X-308493Y-64287D01*
X-308907Y-63859D01*
X-309554Y-63100D01*
X-309787Y-62769D01*
X-309959Y-62470D01*
X-310072Y-62204D01*
X-310124Y-61969D01*
X-310116Y-61767D01*
X-310048Y-61597D01*
X-309919Y-61459D01*
X-313106Y-63905D01*
D02*
G37*
G36*
X-406373Y-63182D02*
X-406424Y-63219D01*
X-406480Y-63252D01*
X-406541Y-63281D01*
X-406608Y-63305D01*
X-406679Y-63325D01*
X-406756Y-63340D01*
X-406838Y-63351D01*
X-406924Y-63358D01*
X-407017Y-63360D01*
Y-64159D01*
X-406924Y-64162D01*
X-406756Y-64179D01*
X-406679Y-64195D01*
X-406608Y-64215D01*
X-406541Y-64239D01*
X-406480Y-64267D01*
X-406424Y-64301D01*
X-406373Y-64338D01*
X-406327Y-64380D01*
Y-63140D01*
X-406373Y-63182D01*
D02*
G37*
G36*
X-409911Y-64535D02*
X-409903Y-64464D01*
X-409879Y-64400D01*
X-409839Y-64344D01*
X-409783Y-64295D01*
X-409712Y-64253D01*
X-409624Y-64220D01*
X-409520Y-64193D01*
X-409400Y-64174D01*
X-409264Y-64163D01*
X-409112Y-64159D01*
Y-63360D01*
X-409264Y-63357D01*
X-409400Y-63345D01*
X-409520Y-63326D01*
X-409624Y-63300D01*
X-409712Y-63266D01*
X-409783Y-63225D01*
X-409839Y-63176D01*
X-409879Y-63120D01*
X-409903Y-63056D01*
X-409911Y-62984D01*
Y-64535D01*
D02*
G37*
G36*
X-327631Y-63927D02*
X-327546Y-63957D01*
X-327471Y-64007D01*
X-327406Y-64077D01*
X-327351Y-64167D01*
X-327306Y-64277D01*
X-327271Y-64407D01*
X-327246Y-64557D01*
X-327231Y-64727D01*
X-327226Y-64917D01*
X-326226D01*
X-326221Y-64727D01*
X-326206Y-64557D01*
X-326181Y-64407D01*
X-326146Y-64277D01*
X-326101Y-64167D01*
X-326046Y-64077D01*
X-325981Y-64007D01*
X-325906Y-63957D01*
X-325821Y-63927D01*
X-325726Y-63917D01*
X-327726D01*
X-327631Y-63927D01*
D02*
G37*
G36*
X-353568Y-64671D02*
X-353500Y-64695D01*
X-353440Y-64736D01*
X-353388Y-64792D01*
X-353344Y-64865D01*
X-353308Y-64955D01*
X-353280Y-65060D01*
X-353260Y-65182D01*
X-353248Y-65320D01*
X-353244Y-65474D01*
X-352445D01*
X-352441Y-65320D01*
X-352429Y-65182D01*
X-352409Y-65060D01*
X-352381Y-64955D01*
X-352345Y-64865D01*
X-352301Y-64792D01*
X-352249Y-64736D01*
X-352189Y-64695D01*
X-352121Y-64671D01*
X-352045Y-64663D01*
X-353643D01*
X-353568Y-64671D01*
D02*
G37*
G36*
X-201100Y-62927D02*
X-201015Y-62957D01*
X-200940Y-63007D01*
X-200875Y-63077D01*
X-200820Y-63167D01*
X-200775Y-63277D01*
X-200740Y-63407D01*
X-200715Y-63557D01*
X-200704Y-63678D01*
X-200705Y-63690D01*
X-200735Y-63860D01*
X-200785Y-64010D01*
X-200855Y-64140D01*
X-200945Y-64250D01*
X-201055Y-64340D01*
X-201185Y-64410D01*
X-201335Y-64460D01*
X-201505Y-64490D01*
X-201695Y-64500D01*
X-200195Y-65500D01*
X-198695Y-64500D01*
X-198885Y-64490D01*
X-199055Y-64460D01*
X-199205Y-64410D01*
X-199335Y-64340D01*
X-199445Y-64250D01*
X-199535Y-64140D01*
X-199605Y-64010D01*
X-199655Y-63860D01*
X-199685Y-63690D01*
X-199685Y-63678D01*
X-199675Y-63557D01*
X-199650Y-63407D01*
X-199615Y-63277D01*
X-199570Y-63167D01*
X-199515Y-63077D01*
X-199450Y-63007D01*
X-199375Y-62957D01*
X-199290Y-62927D01*
X-199195Y-62917D01*
X-201195D01*
X-201100Y-62927D01*
D02*
G37*
G36*
X-371587Y-65460D02*
X-372080Y-65463D01*
X-372597Y-65463D01*
X-372711Y-66263D01*
X-372617Y-66265D01*
X-372532Y-66273D01*
X-372455Y-66286D01*
X-372386Y-66305D01*
X-372326Y-66329D01*
X-372274Y-66358D01*
X-372231Y-66392D01*
X-372196Y-66432D01*
X-372169Y-66477D01*
X-372151Y-66527D01*
X-371575Y-65460D01*
X-371587Y-65460D01*
D02*
G37*
G36*
X-267702Y-62520D02*
X-267887Y-65367D01*
X-267971Y-65880D01*
X-268071Y-66313D01*
X-268187Y-66666D01*
X-268317Y-66940D01*
X-268463Y-67133D01*
X-264926D01*
X-265072Y-66940D01*
X-265202Y-66666D01*
X-265318Y-66313D01*
X-265418Y-65880D01*
X-265502Y-65367D01*
X-265625Y-64103D01*
X-265687Y-62520D01*
X-265695Y-61609D01*
X-267695D01*
X-267702Y-62520D01*
D02*
G37*
G36*
X-352594Y-67760D02*
X-352443Y-67917D01*
X-352202Y-68202D01*
X-352113Y-68330D01*
X-352045Y-68448D01*
X-351998Y-68556D01*
X-351971Y-68654D01*
X-351966Y-68743D01*
X-351981Y-68821D01*
X-352017Y-68890D01*
X-351076Y-67595D01*
X-351129Y-67647D01*
X-351196Y-67674D01*
X-351275Y-67677D01*
X-351368Y-67656D01*
X-351475Y-67611D01*
X-351594Y-67541D01*
X-351728Y-67447D01*
X-351874Y-67328D01*
X-352206Y-67018D01*
X-352594Y-67760D01*
D02*
G37*
G36*
X-306983Y-68626D02*
X-306598Y-69025D01*
X-305989Y-69746D01*
X-305766Y-70067D01*
X-305596Y-70363D01*
X-305481Y-70633D01*
X-305419Y-70877D01*
X-305411Y-71096D01*
X-305457Y-71288D01*
X-305556Y-71455D01*
X-303012Y-68366D01*
X-303154Y-68491D01*
X-303327Y-68555D01*
X-303532Y-68561D01*
X-303768Y-68507D01*
X-304035Y-68394D01*
X-304334Y-68222D01*
X-304664Y-67990D01*
X-305025Y-67700D01*
X-305840Y-66940D01*
X-306983Y-68626D01*
D02*
G37*
G36*
X-368768Y-68275D02*
X-368783Y-68446D01*
X-368808Y-68598D01*
X-368843Y-68729D01*
X-368888Y-68840D01*
X-368943Y-68931D01*
X-369008Y-69002D01*
X-369083Y-69053D01*
X-369168Y-69084D01*
X-369263Y-69095D01*
X-367407Y-69083D01*
X-367475Y-69073D01*
X-367535Y-69043D01*
X-367589Y-68993D01*
X-367635Y-68923D01*
X-367674Y-68833D01*
X-367706Y-68723D01*
X-367731Y-68593D01*
X-367749Y-68443D01*
X-367759Y-68273D01*
X-367763Y-68083D01*
X-368763D01*
X-368768Y-68275D01*
D02*
G37*
G36*
X-325189Y-69181D02*
X-324994Y-69383D01*
X-324686Y-69746D01*
X-324573Y-69908D01*
X-324488Y-70056D01*
X-324430Y-70191D01*
X-324399Y-70312D01*
X-324395Y-70420D01*
X-324419Y-70514D01*
X-324470Y-70596D01*
X-323166Y-69095D01*
X-323238Y-69155D01*
X-323326Y-69185D01*
X-323429Y-69186D01*
X-323547Y-69158D01*
X-323681Y-69101D01*
X-323830Y-69015D01*
X-323995Y-68899D01*
X-324174Y-68754D01*
X-324580Y-68376D01*
X-325189Y-69181D01*
D02*
G37*
G36*
X-371752Y-70150D02*
X-371616Y-70293D01*
X-371494Y-70435D01*
X-371387Y-70578D01*
X-371293Y-70720D01*
X-371214Y-70861D01*
X-371149Y-71003D01*
X-371099Y-71143D01*
X-371063Y-71284D01*
X-371041Y-71424D01*
X-371033Y-71564D01*
X-371045Y-69083D01*
X-371052Y-69144D01*
X-371073Y-69184D01*
X-371108Y-69203D01*
X-371158Y-69200D01*
X-371221Y-69176D01*
X-371299Y-69131D01*
X-371391Y-69064D01*
X-371497Y-68976D01*
X-371752Y-68736D01*
Y-70150D01*
D02*
G37*
G36*
X-167875Y-66391D02*
X-167920Y-66518D01*
X-167996Y-66631D01*
X-168101Y-66728D01*
X-168237Y-66811D01*
X-168404Y-66878D01*
X-168600Y-66931D01*
X-168827Y-66968D01*
X-169084Y-66991D01*
X-169371Y-66998D01*
Y-68498D01*
X-169084Y-68506D01*
X-168827Y-68528D01*
X-168600Y-68565D01*
X-168404Y-68618D01*
X-168237Y-68686D01*
X-168101Y-68768D01*
X-167996Y-68866D01*
X-167920Y-68978D01*
X-167875Y-69105D01*
X-167859Y-69248D01*
Y-66248D01*
X-167875Y-66391D01*
D02*
G37*
G36*
X-406373Y-68182D02*
X-406424Y-68219D01*
X-406480Y-68252D01*
X-406541Y-68281D01*
X-406608Y-68305D01*
X-406679Y-68325D01*
X-406756Y-68340D01*
X-406838Y-68351D01*
X-406924Y-68358D01*
X-407017Y-68360D01*
Y-69159D01*
X-406924Y-69162D01*
X-406756Y-69179D01*
X-406679Y-69195D01*
X-406608Y-69215D01*
X-406541Y-69239D01*
X-406480Y-69267D01*
X-406424Y-69301D01*
X-406373Y-69338D01*
X-406327Y-69380D01*
Y-68140D01*
X-406373Y-68182D01*
D02*
G37*
G36*
X-409911Y-69535D02*
X-409903Y-69464D01*
X-409879Y-69400D01*
X-409839Y-69344D01*
X-409783Y-69295D01*
X-409712Y-69253D01*
X-409624Y-69220D01*
X-409520Y-69193D01*
X-409400Y-69174D01*
X-409264Y-69163D01*
X-409112Y-69159D01*
Y-68360D01*
X-409264Y-68357D01*
X-409400Y-68345D01*
X-409520Y-68326D01*
X-409624Y-68300D01*
X-409712Y-68266D01*
X-409783Y-68225D01*
X-409839Y-68176D01*
X-409879Y-68120D01*
X-409903Y-68056D01*
X-409911Y-67984D01*
Y-69535D01*
D02*
G37*
G36*
X-234550Y-68963D02*
X-234439Y-68963D01*
X-234324Y-68980D01*
X-234204Y-69013D01*
X-234079Y-69062D01*
X-233950Y-69128D01*
X-233816Y-69210D01*
X-233677Y-69308D01*
X-233533Y-69423D01*
X-233231Y-69701D01*
X-231922Y-68182D01*
X-232070Y-68029D01*
X-232322Y-67739D01*
X-232425Y-67602D01*
X-232513Y-67470D01*
X-232587Y-67344D01*
X-232645Y-67224D01*
X-232688Y-67109D01*
X-232716Y-66999D01*
X-232729Y-66895D01*
X-234550Y-68963D01*
D02*
G37*
G36*
X-331110Y-70650D02*
X-331000Y-70765D01*
X-330902Y-70880D01*
X-330816Y-70994D01*
X-330740Y-71108D01*
X-330677Y-71221D01*
X-330625Y-71334D01*
X-330585Y-71446D01*
X-330556Y-71558D01*
X-330539Y-71669D01*
X-330533Y-71780D01*
Y-69520D01*
X-330539Y-69623D01*
X-330556Y-69704D01*
X-330585Y-69762D01*
X-330625Y-69797D01*
X-330677Y-69808D01*
X-330740Y-69797D01*
X-330816Y-69762D01*
X-330902Y-69704D01*
X-331000Y-69623D01*
X-331110Y-69520D01*
Y-70650D01*
D02*
G37*
G36*
X-358085Y-68407D02*
X-358091Y-68417D01*
X-358125Y-68434D01*
X-358180Y-68450D01*
X-358258Y-68463D01*
X-358359Y-68474D01*
X-358793Y-68496D01*
X-359195Y-68500D01*
Y-70500D01*
X-358983Y-70501D01*
X-358641Y-70522D01*
X-358685Y-70690D01*
X-358613Y-70654D01*
X-358525Y-70622D01*
X-358421Y-70593D01*
X-358301Y-70568D01*
X-358175Y-70552D01*
X-358125Y-70566D01*
X-358091Y-70583D01*
X-358080Y-70603D01*
Y-70539D01*
X-358012Y-70530D01*
X-357658Y-70508D01*
X-357239Y-70500D01*
X-356610Y-68500D01*
X-356822Y-68495D01*
X-357197Y-68457D01*
X-357359Y-68424D01*
X-357505Y-68381D01*
X-357634Y-68329D01*
X-357747Y-68267D01*
X-357843Y-68196D01*
X-357922Y-68115D01*
X-357985Y-68024D01*
X-358085Y-68407D01*
D02*
G37*
G36*
X-253133Y-66282D02*
X-253283Y-66307D01*
X-253533Y-66329D01*
X-255533Y-66387D01*
X-258083Y-66400D01*
Y-71400D01*
X-253083Y-71545D01*
Y-66255D01*
X-253133Y-66282D01*
D02*
G37*
G36*
X-320856Y-72000D02*
X-320846Y-71905D01*
X-320816Y-71820D01*
X-320765Y-71745D01*
X-320694Y-71680D01*
X-320603Y-71625D01*
X-320492Y-71580D01*
X-320360Y-71545D01*
X-320209Y-71520D01*
X-320037Y-71505D01*
X-319844Y-71500D01*
Y-70500D01*
X-320037Y-70495D01*
X-320209Y-70480D01*
X-320360Y-70455D01*
X-320492Y-70420D01*
X-320603Y-70375D01*
X-320694Y-70320D01*
X-320765Y-70255D01*
X-320816Y-70180D01*
X-320846Y-70095D01*
X-320856Y-70000D01*
Y-72000D01*
D02*
G37*
G36*
X-315881Y-70095D02*
X-315912Y-70180D01*
X-315962Y-70255D01*
X-316033Y-70320D01*
X-316124Y-70375D01*
X-316236Y-70420D01*
X-316367Y-70455D01*
X-316519Y-70480D01*
X-316691Y-70495D01*
X-316883Y-70500D01*
Y-71500D01*
X-316691Y-71505D01*
X-316519Y-71520D01*
X-316367Y-71545D01*
X-316236Y-71580D01*
X-316124Y-71625D01*
X-316033Y-71680D01*
X-315962Y-71745D01*
X-315912Y-71820D01*
X-315881Y-71905D01*
X-315871Y-72000D01*
Y-70000D01*
X-315881Y-70095D01*
D02*
G37*
G36*
X-406373Y-73182D02*
X-406424Y-73219D01*
X-406480Y-73252D01*
X-406541Y-73281D01*
X-406608Y-73305D01*
X-406679Y-73325D01*
X-406756Y-73340D01*
X-406838Y-73351D01*
X-406924Y-73358D01*
X-407017Y-73360D01*
Y-74159D01*
X-406924Y-74162D01*
X-406756Y-74179D01*
X-406679Y-74195D01*
X-406608Y-74215D01*
X-406541Y-74239D01*
X-406480Y-74268D01*
X-406424Y-74300D01*
X-406373Y-74338D01*
X-406327Y-74380D01*
Y-73140D01*
X-406373Y-73182D01*
D02*
G37*
G36*
X-409911Y-74535D02*
X-409903Y-74464D01*
X-409879Y-74400D01*
X-409839Y-74344D01*
X-409783Y-74295D01*
X-409712Y-74253D01*
X-409624Y-74220D01*
X-409520Y-74193D01*
X-409400Y-74174D01*
X-409264Y-74163D01*
X-409112Y-74159D01*
Y-73360D01*
X-409264Y-73356D01*
X-409400Y-73345D01*
X-409520Y-73326D01*
X-409624Y-73300D01*
X-409712Y-73266D01*
X-409783Y-73225D01*
X-409839Y-73176D01*
X-409879Y-73120D01*
X-409903Y-73056D01*
X-409911Y-72984D01*
Y-74535D01*
D02*
G37*
G36*
X-242475Y-67288D02*
X-242324Y-67622D01*
X-242305Y-68031D01*
X-242418Y-68514D01*
X-242662Y-69072D01*
X-243037Y-69704D01*
X-243544Y-70411D01*
X-244183Y-71192D01*
X-245854Y-72978D01*
X-241240Y-74727D01*
X-240612Y-74123D01*
X-239405Y-73105D01*
X-238827Y-72691D01*
X-238265Y-72341D01*
X-237720Y-72055D01*
X-237192Y-71832D01*
X-236680Y-71673D01*
X-236185Y-71577D01*
X-235706Y-71545D01*
X-242756Y-67028D01*
X-242475Y-67288D01*
D02*
G37*
G36*
X-271812Y-71411D02*
X-271780Y-71545D01*
X-273094D01*
X-272809Y-71575D01*
X-272554Y-71666D01*
X-272329Y-71816D01*
X-272134Y-72026D01*
X-271969Y-72295D01*
X-271834Y-72625D01*
X-271729Y-73015D01*
X-271654Y-73466D01*
X-271653Y-73477D01*
X-271744Y-74694D01*
X-271798Y-74904D01*
X-271861Y-75054D01*
X-271932Y-75144D01*
X-272011Y-75174D01*
X-271618D01*
X-271594Y-76543D01*
X-268594D01*
X-268523Y-75174D01*
X-268177D01*
X-268256Y-75144D01*
X-268327Y-75054D01*
X-268389Y-74904D01*
X-268444Y-74694D01*
X-268486Y-74445D01*
X-268398Y-72731D01*
X-268372Y-72625D01*
X-268247Y-72295D01*
X-268094Y-72026D01*
X-267914Y-71816D01*
X-267705Y-71666D01*
X-267470Y-71575D01*
X-267206Y-71545D01*
X-268337D01*
X-268325Y-71310D01*
X-271863D01*
X-271812Y-71411D01*
D02*
G37*
G36*
X-241478Y-77682D02*
X-241779Y-77938D01*
X-241911Y-78031D01*
X-242031Y-78101D01*
X-242137Y-78147D01*
X-242231Y-78169D01*
X-242313Y-78168D01*
X-242383Y-78143D01*
X-242439Y-78095D01*
X-241419Y-79312D01*
X-241459Y-79246D01*
X-241477Y-79170D01*
X-241473Y-79083D01*
X-241448Y-78986D01*
X-241401Y-78878D01*
X-241333Y-78760D01*
X-241243Y-78631D01*
X-241131Y-78492D01*
X-240842Y-78181D01*
X-241309Y-77518D01*
X-241478Y-77682D01*
D02*
G37*
G36*
X-406373Y-78182D02*
X-406424Y-78219D01*
X-406480Y-78252D01*
X-406541Y-78281D01*
X-406608Y-78305D01*
X-406679Y-78325D01*
X-406756Y-78340D01*
X-406838Y-78351D01*
X-406924Y-78358D01*
X-407017Y-78360D01*
Y-79159D01*
X-406924Y-79162D01*
X-406756Y-79179D01*
X-406679Y-79195D01*
X-406608Y-79215D01*
X-406541Y-79239D01*
X-406480Y-79268D01*
X-406424Y-79300D01*
X-406373Y-79338D01*
X-406327Y-79380D01*
Y-78140D01*
X-406373Y-78182D01*
D02*
G37*
G36*
X-409911Y-79535D02*
X-409903Y-79464D01*
X-409879Y-79400D01*
X-409839Y-79344D01*
X-409783Y-79295D01*
X-409712Y-79253D01*
X-409624Y-79220D01*
X-409520Y-79193D01*
X-409400Y-79175D01*
X-409264Y-79163D01*
X-409112Y-79159D01*
Y-78360D01*
X-409264Y-78356D01*
X-409400Y-78345D01*
X-409520Y-78326D01*
X-409624Y-78300D01*
X-409712Y-78266D01*
X-409783Y-78225D01*
X-409839Y-78176D01*
X-409879Y-78120D01*
X-409903Y-78056D01*
X-409911Y-77984D01*
Y-79535D01*
D02*
G37*
G36*
X-249356Y-80799D02*
X-249348Y-80723D01*
X-249324Y-80655D01*
X-249283Y-80595D01*
X-249226Y-80544D01*
X-249153Y-80500D01*
X-249064Y-80463D01*
X-248959Y-80436D01*
X-248837Y-80416D01*
X-248699Y-80404D01*
X-248545Y-80400D01*
Y-79600D01*
X-248699Y-79596D01*
X-248837Y-79584D01*
X-248959Y-79564D01*
X-249064Y-79536D01*
X-249153Y-79501D01*
X-249226Y-79457D01*
X-249283Y-79405D01*
X-249324Y-79345D01*
X-249348Y-79277D01*
X-249356Y-79201D01*
Y-80799D01*
D02*
G37*
G36*
X-245041Y-79277D02*
X-245065Y-79345D01*
X-245106Y-79405D01*
X-245163Y-79457D01*
X-245236Y-79501D01*
X-245325Y-79536D01*
X-245430Y-79564D01*
X-245552Y-79584D01*
X-245690Y-79596D01*
X-245844Y-79600D01*
Y-80400D01*
X-245690Y-80404D01*
X-245552Y-80416D01*
X-245430Y-80436D01*
X-245325Y-80463D01*
X-245236Y-80500D01*
X-245163Y-80544D01*
X-245106Y-80595D01*
X-245065Y-80655D01*
X-245041Y-80723D01*
X-245033Y-80799D01*
Y-79201D01*
X-245041Y-79277D01*
D02*
G37*
G36*
X-266195Y-75000D02*
Y-81500D01*
X-265695Y-82000D01*
X-259195D01*
X-258695Y-81500D01*
Y-75000D01*
X-260195Y-73500D01*
X-266195Y-75000D01*
D02*
G37*
G36*
X-238930Y-80754D02*
X-238912Y-80830D01*
X-238916Y-80917D01*
X-238941Y-81014D01*
X-238988Y-81121D01*
X-239056Y-81240D01*
X-239147Y-81369D01*
X-239258Y-81508D01*
X-239547Y-81819D01*
X-239080Y-82482D01*
X-238911Y-82318D01*
X-238610Y-82061D01*
X-238478Y-81968D01*
X-238359Y-81899D01*
X-238252Y-81853D01*
X-238158Y-81831D01*
X-238076Y-81832D01*
X-238007Y-81857D01*
X-237950Y-81905D01*
X-238970Y-80689D01*
X-238930Y-80754D01*
D02*
G37*
G36*
X-304695Y-74500D02*
Y-79000D01*
X-301195Y-82500D01*
X-289695D01*
Y-80000D01*
X-290195D01*
X-297695Y-72500D01*
X-302695D01*
X-304695Y-74500D01*
D02*
G37*
G36*
X-406373Y-83162D02*
X-406424Y-83200D01*
X-406480Y-83232D01*
X-406541Y-83261D01*
X-406608Y-83285D01*
X-406679Y-83305D01*
X-406756Y-83321D01*
X-406838Y-83332D01*
X-406924Y-83338D01*
X-407017Y-83341D01*
Y-84140D01*
X-406924Y-84142D01*
X-406756Y-84160D01*
X-406679Y-84175D01*
X-406608Y-84195D01*
X-406541Y-84219D01*
X-406480Y-84248D01*
X-406424Y-84281D01*
X-406373Y-84318D01*
X-406327Y-84360D01*
Y-83120D01*
X-406373Y-83162D01*
D02*
G37*
G36*
X-391695Y-81500D02*
X-388695Y-84500D01*
X-357195Y-84500D01*
Y-78000D01*
X-357695Y-77500D01*
X-387695D01*
X-389695Y-75500D01*
X-391695D01*
Y-81500D01*
D02*
G37*
G36*
X-409911Y-84516D02*
X-409903Y-84444D01*
X-409879Y-84380D01*
X-409839Y-84324D01*
X-409783Y-84275D01*
X-409712Y-84234D01*
X-409624Y-84200D01*
X-409520Y-84174D01*
X-409400Y-84155D01*
X-409264Y-84144D01*
X-409112Y-84140D01*
Y-83341D01*
X-409264Y-83337D01*
X-409400Y-83325D01*
X-409520Y-83307D01*
X-409624Y-83280D01*
X-409712Y-83247D01*
X-409783Y-83205D01*
X-409839Y-83156D01*
X-409879Y-83100D01*
X-409903Y-83036D01*
X-409911Y-82965D01*
Y-84516D01*
D02*
G37*
%LPC*%
G36*
X-341095Y8000D02*
X-337195D01*
X-336195Y7000D01*
Y-2300D01*
X-343595D01*
X-345595Y-300D01*
Y3300D01*
X-340995Y7900D01*
X-341095Y8000D01*
D02*
G37*
%LPD*%
D14*
X-109872Y94500D02*
X-109883Y94488D01*
X-109872Y-0D02*
X-446880D01*
X-109872Y106299D02*
X-446092Y-106299D01*
X-109872D02*
X-446092Y106299D01*
X-109872D02*
X-446880D01*
Y-106299D02*
Y106299D01*
X-109872Y-106299D02*
Y106299D01*
Y-106299D02*
X-446880D01*
X-125758Y-52000D02*
X-133632D01*
X-129695Y-55937D02*
Y-48063D01*
D15*
X-204194Y-45000D02*
Y-27000D01*
X-180195Y-27000D02*
X-204195D01*
X-180195Y-45000D02*
Y-27000D01*
X-180195Y-45000D02*
X-204194D01*
X-189195Y34500D02*
X-189195Y34500D01*
X-213195D01*
X-213194Y34500D02*
X-213195Y34500D01*
X-213194Y16500D02*
Y34500D01*
X-189195Y16500D02*
X-213194D01*
X-189195D02*
X-189195Y16500D01*
Y34500D01*
D16*
X-218695Y48000D02*
X-279695D01*
X-208234Y58461D02*
X-218695Y48000D01*
X-198750Y58461D02*
X-208234D01*
X-309195Y49000D02*
X-315695Y55500D01*
X-373695Y-13000D02*
X-385695Y-25000D01*
X-388195D01*
X-388809Y-56559D02*
X-392136D01*
X-393195Y-55500D02*
Y-52500D01*
X-392136Y-56559D02*
X-393195Y-55500D01*
X-392136Y-51441D02*
X-393195Y-52500D01*
X-388809Y-51441D02*
X-392136D01*
X-261279Y-37000D02*
X-277574D01*
X-256094Y-31815D02*
X-261279Y-37000D01*
X-256094Y-31815D02*
Y-21100D01*
X-302695Y-27000D02*
Y-11000D01*
X-305195Y-8500D01*
Y20000D01*
X-308195Y23000D01*
X-312954D01*
X-302695Y-27000D02*
X-305596Y-29901D01*
X-263774Y-4400D02*
X-280795D01*
X-282695Y-2500D01*
Y5000D01*
X-279195Y8500D02*
X-282695Y5000D01*
X-279195Y8500D02*
Y35500D01*
X-276695Y38000D02*
X-279195Y35500D01*
X-270435Y38000D02*
X-276695D01*
X-259896Y-8278D02*
X-263774Y-4400D01*
X-259896Y-15319D02*
Y-8278D01*
X-256094Y-19121D02*
X-259896Y-15319D01*
X-256094Y-21100D02*
Y-19121D01*
X-256094Y-21100D02*
X-256094Y-21100D01*
X-305596Y-29901D02*
X-327096D01*
X-342195Y-74000D02*
X-350295D01*
X-335094Y-66900D02*
X-342195Y-74000D01*
X-352295Y-76000D02*
X-373195D01*
X-350295Y-74000D02*
X-352295Y-76000D01*
X-407595Y-25300D02*
X-408554Y-26260D01*
X-414820D01*
X-373695Y-13000D02*
Y-10000D01*
X-373494Y-9800D02*
X-373695Y-10000D01*
X-373494Y-9800D02*
Y-9758D01*
X-363695Y42D02*
X-373494Y-9758D01*
X-363695Y42D02*
Y7502D01*
X-358446Y12751D02*
X-363695Y7502D01*
X-315695Y55500D02*
X-324731D01*
X-338980Y44714D02*
X-352780Y30915D01*
X-324731Y55500D02*
X-329951Y50279D01*
X-337382D01*
X-338980Y48681D01*
Y44714D02*
Y48681D01*
X-323695Y49500D02*
X-325695Y47500D01*
Y37000D02*
Y47500D01*
Y37000D02*
X-329195Y33500D01*
X-323695Y49500D02*
Y52031D01*
X-335094Y-66900D02*
Y-57620D01*
X-381295Y-63900D02*
Y-57400D01*
X-376195Y-73000D02*
Y-69000D01*
X-373195Y-76000D02*
X-376195Y-73000D01*
Y-69000D02*
X-381295Y-63900D01*
X-367395Y-43000D02*
X-371895Y-47500D01*
X-334195Y-43000D02*
X-367395D01*
X-333361Y-42166D02*
X-334195Y-43000D01*
X-327763Y-50289D02*
X-335094Y-57620D01*
X-327763Y-50289D02*
Y-39568D01*
X-384695Y-54000D02*
X-388809D01*
X-381295Y-57400D02*
X-384695Y-54000D01*
X-385195Y-59000D02*
X-385313Y-59118D01*
X-388809D01*
X-352780Y23698D02*
Y30915D01*
X-352695Y23612D02*
X-352780Y23698D01*
X-352695Y15000D02*
Y23612D01*
Y15000D02*
X-354944Y12751D01*
X-358446D01*
X-314313Y-52118D02*
X-321209D01*
X-314195Y-37000D02*
X-325195D01*
X-312094Y-49900D02*
X-314313Y-52118D01*
X-312094Y-49900D02*
Y-39100D01*
X-314195Y-37000D01*
X-333361Y-42166D02*
Y-36166D01*
X-327096Y-29901D02*
X-333361Y-36166D01*
X-325195Y-37000D02*
X-327763Y-39568D01*
X-398195Y42031D02*
X-399163Y43000D01*
X-403195D01*
X-403935Y43740D01*
X-409195D01*
X-414820D01*
X-335195Y27000D02*
Y32500D01*
X-334195Y33500D02*
X-335195Y32500D01*
X-329195Y33500D02*
X-334195D01*
X-288426Y-46169D02*
X-291095D01*
X-287392Y-47203D02*
X-288426Y-46169D01*
X-287392Y-50903D02*
Y-47203D01*
X-269395Y-60600D02*
Y-53439D01*
X-272234Y-50600D01*
X-283195Y-55100D02*
X-287392Y-50903D01*
X-283195Y-57176D02*
Y-55100D01*
X-278371Y-62000D02*
X-283195Y-57176D01*
X-281695Y-54416D02*
X-285992Y-50119D01*
X-281695Y-56600D02*
Y-54416D01*
X-277912Y-60383D02*
X-281695Y-56600D01*
X-285992Y-50119D02*
Y-41503D01*
X-270795Y-62000D02*
X-278371D01*
X-269395Y-60600D02*
X-270795Y-62000D01*
X-280394Y-47800D02*
Y-39820D01*
X-277595Y-50600D02*
X-280394Y-47800D01*
X-272234Y-50600D02*
X-277595D01*
X-277574Y-37000D02*
X-280394Y-39820D01*
X-288172Y-39323D02*
X-297980D01*
X-285992Y-41503D02*
X-288172Y-39323D01*
X-132431Y-74822D02*
X-130431D01*
X-129432Y-73822D01*
X-130431Y-72823D01*
X-132431D01*
X-130931D01*
Y-74822D01*
X-129432Y-71823D02*
X-132431D01*
Y-69824D01*
Y-68824D02*
X-129432D01*
Y-67325D01*
X-129932Y-66825D01*
X-130931D01*
X-131431Y-67325D01*
Y-68824D01*
X-129932Y-63826D02*
X-129432Y-64325D01*
Y-65325D01*
X-129932Y-65825D01*
X-130431D01*
X-130931Y-65325D01*
Y-64325D01*
X-131431Y-63826D01*
X-131931D01*
X-132431Y-64325D01*
Y-65325D01*
X-131931Y-65825D01*
X-137950Y-74822D02*
X-134951D01*
Y-73322D01*
X-135450Y-72823D01*
X-136450D01*
X-136950Y-73322D01*
Y-74822D01*
Y-73822D02*
X-137950Y-72823D01*
X-134951Y-71823D02*
X-137950D01*
X-136950D01*
X-134951Y-69824D01*
X-136450Y-71323D01*
X-137950Y-69824D01*
Y-68824D02*
Y-67824D01*
Y-68324D01*
X-134951D01*
X-135450Y-68824D01*
Y-66325D02*
X-134951Y-65825D01*
Y-64825D01*
X-135450Y-64325D01*
X-137450D01*
X-137950Y-64825D01*
Y-65825D01*
X-137450Y-66325D01*
X-135450D01*
X-134951Y-61326D02*
Y-62326D01*
Y-61826D01*
X-137450D01*
X-137950Y-62326D01*
Y-62826D01*
X-137450Y-63326D01*
X-137950Y-60327D02*
Y-59327D01*
Y-59827D01*
X-134951D01*
X-135450Y-60327D01*
X-137950Y-55828D02*
Y-57828D01*
X-135950Y-55828D01*
X-135450D01*
X-134951Y-56328D01*
Y-57328D01*
X-135450Y-57828D01*
X-137950Y-54829D02*
X-134951D01*
Y-53329D01*
X-135450Y-52829D01*
X-136450D01*
X-136950Y-53329D01*
Y-54829D01*
Y-53829D02*
X-137950Y-52829D01*
X-304443Y65031D02*
Y68968D01*
X-302474Y67000D02*
X-306411D01*
X-276884Y65031D02*
Y68968D01*
X-322943Y-72969D02*
Y-69032D01*
X-320974Y-71000D02*
X-324911D01*
X-295384Y-72969D02*
Y-69032D01*
X-236726Y-36252D02*
X-240663D01*
X-238695Y-38221D02*
Y-34284D01*
X-236726Y-63811D02*
X-240663D01*
X-260146Y-70868D02*
Y-66931D01*
X-258178Y-68900D02*
X-262115D01*
X-287706Y-70868D02*
Y-66931D01*
X-260143Y-70868D02*
Y-66931D01*
X-258174Y-68900D02*
X-262111D01*
X-232583Y-70868D02*
Y-66931D01*
D17*
X-137860Y-20992D02*
X-141887D01*
X-161795Y-18400D02*
X-171116Y-9079D01*
X-161795Y-22400D02*
Y-18400D01*
X-157195Y-27000D02*
X-161795Y-22400D01*
X-369710Y-71484D02*
X-373195Y-68000D01*
X-360195Y-48000D02*
X-361872Y-46323D01*
X-382436Y-50758D02*
X-384270D01*
X-384953Y-51441D01*
X-383695Y-50183D02*
X-384270Y-50758D01*
X-383695Y-50183D02*
Y-48502D01*
X-385874Y-46323D01*
X-384953Y-51441D02*
X-388809D01*
X-385874Y-46323D02*
X-388809D01*
X-194274Y63579D02*
X-198750D01*
X-192195Y61500D02*
X-194274Y63579D01*
X-192195Y55500D02*
Y61500D01*
Y55500D02*
X-194695Y53000D01*
X-200695D01*
X-201726Y51968D01*
Y49500D02*
Y51968D01*
X-194195Y57000D02*
Y59500D01*
X-195715Y61020D01*
X-198750D01*
X-194195Y57000D02*
X-195695Y55500D01*
X-204695D01*
X-209695Y50500D01*
Y48531D02*
Y50500D01*
X-186295Y64600D02*
X-187195Y65500D01*
X-186295Y57600D02*
Y64600D01*
X-182163Y53469D02*
X-186295Y57600D01*
X-182163Y49500D02*
Y53469D01*
X-380695Y2000D02*
X-382695Y0D01*
X-302395Y-52000D02*
Y-47100D01*
X-183672Y68500D02*
X-184695Y67477D01*
X-181695Y68500D02*
X-183672D01*
X-180163Y70031D02*
X-181695Y68500D01*
X-180163Y70031D02*
Y73575D01*
X-184695Y61886D02*
Y67477D01*
X-183828Y61020D02*
X-184695Y61886D01*
X-180639Y61020D02*
X-183828D01*
X-195663Y42000D02*
X-195663Y42000D01*
Y49500D01*
X-188226D02*
X-188226Y49500D01*
Y42000D02*
Y49500D01*
Y42000D02*
X-195663D01*
X-180631Y43532D02*
X-182163Y42000D01*
X-174695Y43532D02*
X-180631D01*
X-167195Y34000D02*
Y37468D01*
Y30531D02*
Y34000D01*
X-164195Y33500D02*
X-164695Y34000D01*
X-167195D01*
X-174695Y33543D02*
Y37468D01*
Y30531D02*
Y33543D01*
X-172195Y33500D02*
X-172238Y33543D01*
X-174695D01*
X-167195Y43532D02*
X-174695D01*
X-128805Y5610D02*
X-129078Y5884D01*
X-158195Y-9000D02*
X-161695Y-5500D01*
X-158195Y-19000D02*
Y-9000D01*
X-155466Y-21728D02*
X-158195Y-19000D01*
X-151573Y-21728D02*
X-155466D01*
X-147895Y-27000D02*
X-157195D01*
X-141887Y-20992D02*
X-147895Y-27000D01*
X-232163Y17500D02*
X-234695Y20031D01*
X-225226Y17500D02*
X-232163D01*
X-234695Y6032D02*
Y13969D01*
X-230112Y-2917D02*
Y3583D01*
X-226195Y7500D02*
X-230112Y3583D01*
X-226195Y7500D02*
Y8795D01*
X-230112Y-2917D02*
X-231945Y-4750D01*
X-235945D02*
X-236695Y-5500D01*
X-231945Y-4750D02*
X-235945D01*
X-244195Y-35500D02*
Y-21500D01*
X-236695Y-14000D02*
X-244195Y-21500D01*
X-236695Y-14000D02*
Y-5500D01*
X-242795Y-36900D02*
X-244195Y-35500D01*
X-232295Y-36900D02*
X-242795D01*
X-223195Y-46000D02*
X-232295Y-36900D01*
X-239663Y-24500D02*
X-239695Y-24468D01*
X-231695Y-24500D02*
X-239663D01*
X-228695Y-27500D02*
X-234491D01*
X-235695Y-28703D01*
Y-32799D02*
Y-28703D01*
X-233695Y-34799D02*
X-235695Y-32799D01*
X-231395Y-34799D02*
X-233695D01*
X-221195Y-16795D02*
X-223195Y-18795D01*
Y-18993D02*
X-227695Y-23493D01*
Y-26500D02*
X-228695Y-27500D01*
X-227695Y-26500D02*
Y-23493D01*
X-223195Y-18993D02*
Y-18795D01*
X-224226Y-34000D02*
X-227663Y-30563D01*
X-224226Y-34000D02*
X-224226Y-34000D01*
X-227663Y-30563D02*
X-231695D01*
X-227195Y-39000D02*
X-231395Y-34799D01*
X-157957Y8500D02*
X-162195Y4263D01*
X-134950Y8500D02*
X-157957D01*
X-130706Y4256D02*
X-134950Y8500D01*
X-165128Y-44126D02*
X-169302Y-48300D01*
X-165128Y-52000D02*
X-169628Y-56500D01*
X-185413Y6750D02*
X-193413D01*
X-173695Y-921D02*
X-174773D01*
X-156939Y4256D02*
X-158195Y3000D01*
Y1000D02*
Y3000D01*
Y1000D02*
X-160695Y-1500D01*
X-172195D01*
X-151573Y4256D02*
X-156939D01*
X-162195Y3000D02*
Y4263D01*
X-223695Y-39000D02*
X-227195D01*
X-211695Y-46500D02*
X-216195D01*
X-223695Y-39000D01*
X-223195Y-54000D02*
Y-46000D01*
X-208163Y-50032D02*
X-211695Y-46500D01*
X-208163Y-52000D02*
Y-50032D01*
X-204995Y13500D02*
X-206895Y11600D01*
Y-800D02*
Y11600D01*
X-205195Y-2500D02*
X-206895Y-800D01*
X-186695Y13500D02*
X-204995D01*
X-407595Y-28100D02*
X-408254Y-28760D01*
X-414820D01*
X-382695Y0D02*
X-393695D01*
X-326695Y28000D02*
X-327695Y29000D01*
X-310395Y28000D02*
X-326695D01*
X-323695Y36000D02*
Y43000D01*
X-327695Y29000D02*
Y32000D01*
X-323695Y36000D02*
X-327695Y32000D01*
X-322195Y44500D02*
X-323695Y43000D01*
X-366695Y-66000D02*
X-368263Y-67568D01*
X-362195Y-66000D02*
X-366695D01*
X-359695Y-63500D02*
X-362195Y-66000D01*
X-359695Y-63500D02*
Y-56500D01*
X-188195Y-65000D02*
X-200195D01*
X-186226Y-63032D02*
X-188195Y-65000D01*
X-361195Y-55000D02*
X-362195Y-54000D01*
X-359695Y-56500D02*
X-361195Y-55000D01*
X-360195Y-49500D02*
Y-48000D01*
X-361872Y-46323D02*
X-365580D01*
X-369226Y-71000D02*
X-369710Y-71484D01*
X-368263Y-70037D02*
X-369226Y-71000D01*
X-368263Y-70037D02*
Y-67568D01*
X-362195Y-54000D02*
X-365580D01*
X-312352Y-71000D02*
X-322663D01*
X-326726Y-66937D01*
Y-62000D01*
X-373195Y-68000D02*
X-374695D01*
X-379695Y-63000D01*
Y-53500D01*
X-382436Y-50758D01*
X-224226Y-26000D02*
Y-23531D01*
X-222195Y-21500D02*
X-224226Y-23531D01*
X-217695Y-21500D02*
X-222195D01*
X-186226Y73575D02*
X-193663D01*
X-184195Y28000D02*
Y33500D01*
X-213695Y37000D02*
X-219163Y31532D01*
X-187695Y37000D02*
X-213695D01*
X-184195Y33500D02*
X-187695Y37000D01*
X-184195Y16000D02*
Y20000D01*
Y16000D02*
X-186695Y13500D01*
X-198195Y-2500D02*
X-205195D01*
X-194726Y969D02*
X-198195Y-2500D01*
X-193695Y969D02*
X-194726D01*
X-207195Y-29713D02*
X-209482Y-32000D01*
X-207195Y-29713D02*
Y-10000D01*
X-205195Y-8000D02*
X-207195Y-10000D01*
X-198163Y-8000D02*
X-205195D01*
X-193695Y-12468D02*
X-198163Y-8000D01*
X-174040Y-9079D02*
X-183492Y-18531D01*
X-185695Y-18531D02*
X-193694D01*
X-183492Y-18531D02*
X-185695D01*
X-185413Y6750D02*
X-185695Y7032D01*
X-182013Y3350D02*
X-185413Y6750D01*
X-182013Y3318D02*
Y3350D01*
X-178695Y0D02*
X-182013Y3318D01*
X-173695Y0D02*
X-178695D01*
X-173695Y-9079D02*
X-174040D01*
X-193694Y-18531D02*
X-193695Y-18531D01*
X-195632D02*
X-201695Y-12468D01*
X-193695Y-18531D02*
X-195632D01*
Y7032D02*
X-201695Y969D01*
X-193695Y7032D02*
X-195632D01*
X-193413Y6750D02*
X-193695Y7032D01*
X-172195Y-1500D02*
X-173695Y0D01*
X-128805Y4992D02*
Y5610D01*
X-219163Y25500D02*
Y31532D01*
X-220195Y-57000D02*
X-223195Y-54000D01*
X-208163Y-61000D02*
X-212163Y-57000D01*
X-220195D01*
X-225226Y17500D02*
X-225226Y17500D01*
X-225226Y17500D02*
Y25500D01*
X-219163Y17500D02*
X-219163Y17500D01*
X-219163Y17500D02*
Y25500D01*
X-219163Y13969D02*
Y17500D01*
X-216195Y11000D02*
X-219163Y13969D01*
X-216195Y8795D02*
Y11000D01*
X-225226Y14532D02*
Y17500D01*
X-221195Y10500D02*
X-225226Y14532D01*
X-221195Y8795D02*
Y10500D01*
X-216195Y-20000D02*
X-217695Y-21500D01*
X-216195Y-20000D02*
Y-16795D01*
X-224226Y-34000D02*
Y-26000D01*
X-218163Y-34000D02*
X-218163Y-34000D01*
Y-37000D02*
Y-34000D01*
X-209482Y-40000D02*
X-215163D01*
X-218163Y-34000D02*
X-218163Y-34000D01*
Y-26000D01*
X-215695D02*
X-218163D01*
X-211195Y-21500D02*
X-215695Y-26000D01*
X-211195Y-21500D02*
Y-16795D01*
X-171116Y-9079D02*
X-173695D01*
X-169302Y-48300D02*
X-196526D01*
X-188463Y-56500D02*
X-192963Y-61000D01*
X-169628Y-56500D02*
X-188463D01*
X-215163Y-40000D02*
X-218163Y-37000D01*
X-185695Y-12468D02*
X-193695D01*
X-185695Y969D02*
X-193695D01*
X-196526Y-48300D02*
X-200226Y-52000D01*
X-192963Y-61000D02*
X-194163D01*
X-200195Y-65000D02*
X-204163D01*
X-200195Y-61032D02*
X-200226Y-61000D01*
X-200195Y-65000D02*
Y-61032D01*
X-200226Y-63061D02*
Y-61000D01*
X-204163Y-65000D02*
X-208163Y-61000D01*
X-186226Y-63032D02*
Y-61000D01*
X-194195Y-56000D02*
X-204163D01*
X-190226D02*
X-194195D01*
X-194163Y-55968D02*
X-194195Y-56000D01*
X-194163Y-55968D02*
Y-52000D01*
X-204163Y-56000D02*
X-208163Y-52000D01*
X-186226D02*
X-190226Y-56000D01*
X-297980Y-52118D02*
X-302276D01*
X-302395Y-52000D01*
X-302295Y-47000D02*
X-302395Y-47100D01*
X-297980Y-47000D02*
X-302295D01*
X-293613Y-41882D02*
X-297980D01*
X-291095Y-44400D02*
X-293613Y-41882D01*
X-291095Y-46169D02*
Y-44400D01*
D18*
X-336080Y-85827D02*
G03*
X-351828Y-85827I-7874J0D01*
G01*
X-115017Y61823D02*
X-118695Y65500D01*
X-109695Y61823D02*
X-115017D01*
X-109695D02*
Y81201D01*
X-118695Y65500D02*
X-158695D01*
Y14000D02*
Y65500D01*
X-110695Y14000D02*
X-158695D01*
X-109695Y13000D02*
X-110695Y14000D01*
X-109695Y-862D02*
Y13000D01*
X-130994Y-81201D02*
X-131195Y-81402D01*
Y-96457D02*
Y-81402D01*
X-112596Y-18972D02*
Y-16610D01*
X-109695D02*
X-112596D01*
Y-18972D02*
X-127163D01*
X-109695Y-862D02*
X-112596D01*
Y1500D01*
X-130994Y81201D02*
X-131195Y81402D01*
X-109695Y-40600D02*
Y-16610D01*
X-127163Y-23106D02*
Y-18972D01*
Y-23106D02*
X-131887D01*
Y-18972D01*
X-154722D01*
Y1500D01*
X-142517D02*
X-154722D01*
X-142517D02*
Y5634D01*
X-137793D02*
X-142517D01*
X-137793Y1500D02*
Y5634D01*
X-112596Y1500D02*
X-137793D01*
X-109695Y-81201D02*
Y-40600D01*
X-190250Y96457D02*
X-363151D01*
X-190250Y93000D02*
X-359695D01*
X-190250Y81201D02*
Y93000D01*
X-131195Y96457D02*
X-190250D01*
X-359695Y86614D02*
Y93000D01*
X-363151Y96457D02*
X-403010D01*
X-359695Y-93000D02*
Y-86614D01*
X-131195Y-96457D02*
X-403010D01*
X-190250Y-93000D02*
Y-81201D01*
Y-93000D02*
X-359695D01*
X-403010Y86614D02*
X-422194D01*
X-403010Y-86614D02*
X-422195D01*
X-204195Y-45000D02*
Y-27000D01*
X-180195D02*
X-204195D01*
X-180195Y-45000D02*
Y-27000D01*
Y-45000D02*
X-204194D01*
X-189195Y34500D02*
X-189195Y34500D01*
X-213195D01*
Y16500D02*
Y34500D01*
X-213194Y16500D02*
X-213195Y16500D01*
X-189195Y16500D02*
X-213194D01*
X-189195D02*
Y34500D01*
X-359695Y86614D02*
X-359695Y86614D01*
X-351828Y86614D02*
X-359695D01*
X-403010Y86614D02*
Y96457D01*
X-351828Y-86614D02*
X-359695D01*
X-403010Y-96457D02*
Y-86614D01*
X-190250Y81201D02*
X-225450D01*
X-109695D02*
X-130994D01*
X-131195Y81402D02*
Y96457D01*
X-190250Y-81201D02*
X-225450D01*
X-109695D02*
X-130994D01*
X-225450Y81201D02*
Y86614D01*
Y-86614D02*
X-336080D01*
X-351828D02*
Y-85827D01*
X-336080Y-86614D02*
Y-85827D01*
X-225450Y-86614D02*
Y-81201D01*
X-422194Y86614D02*
X-422195Y-86614D01*
X-225450Y86614D02*
X-336080D01*
X-351828Y83858D02*
Y86614D01*
X-336080Y83858D02*
Y86614D01*
Y83858D02*
X-351828D01*
X-157254Y-52000D02*
G03*
X-157254Y-52000I27559J0D01*
G01*
X-131663D02*
G03*
X-131663Y-52000I1969J0D01*
G01*
X-305080Y-26587D02*
G03*
X-305080Y-26587I1969J0D01*
G01*
X-194222Y59741D02*
G03*
X-194222Y59741I1969J0D01*
G01*
X-213773Y-10693D02*
G03*
X-213773Y-10693I1969J0D01*
G01*
X-373848Y-47504D02*
G03*
X-373848Y-47504I1969J0D01*
G01*
X-316878Y-53496D02*
G03*
X-316878Y-53496I1969J0D01*
G01*
X-341932Y51799D02*
G03*
X-341932Y51799I1969J0D01*
G01*
X-257270Y-43710D02*
G03*
X-257270Y-43710I1969J0D01*
G01*
X-385179Y-24016D02*
G03*
X-385179Y-24016I1969J0D01*
G01*
X8805Y0D02*
X-463639Y-0D01*
X-109482Y13500D02*
Y65665D01*
X-158695D01*
Y13500D02*
Y65665D01*
X-109482Y13500D02*
X-158695D01*
X-154759Y65664D02*
Y87318D01*
X-135073D02*
X-154759D01*
X-135073Y65787D02*
Y87318D01*
Y65787D02*
X-135195Y65665D01*
X-163159Y-73063D02*
Y-28378D01*
X-147411Y-73063D02*
X-163159D01*
X-143868Y-28378D02*
X-163159D01*
X-276734Y41130D02*
X-306655D01*
X-276734Y-30130D02*
X-306655D01*
X-276734D02*
Y41130D01*
X-306655Y-30130D02*
Y41130D01*
X-195797Y56197D02*
Y68402D01*
X-183592Y56197D02*
Y68402D01*
Y56197D02*
X-195797D01*
X-183592Y68402D02*
X-195797D01*
X-229128Y-14236D02*
Y6236D01*
X-208261Y-14236D02*
Y6236D01*
X-229128D01*
X-208261Y-14236D02*
X-229128D01*
X-167947Y7480D02*
X-179443D01*
X-167947Y2362D02*
X-179443D01*
Y7480D01*
X-167947Y2362D02*
Y7480D01*
X-179443D01*
X-167947Y2362D02*
X-179443D01*
Y7480D01*
X-167947Y2362D02*
Y7480D01*
Y2362D02*
Y7480D01*
X-179443Y2362D02*
Y7480D01*
X-167947Y2362D02*
X-179443D01*
X-167947Y7480D02*
X-179443D01*
X-167947Y-16559D02*
X-179443D01*
X-167947Y-11441D02*
X-179443D01*
X-167947Y-16559D02*
Y-11441D01*
X-179443Y-16559D02*
Y-11441D01*
X-167947Y-16559D02*
X-179443D01*
X-167947Y-11441D02*
X-179443D01*
X-167947Y-16559D02*
Y-11441D01*
X-179443Y-16559D02*
Y-11441D01*
Y-16559D02*
Y-11441D01*
X-167947Y-16559D02*
Y-11441D01*
X-179443D01*
X-167947Y-16559D02*
X-179443D01*
X-368336Y-64039D02*
Y-43961D01*
X-386053Y-64039D02*
Y-43961D01*
X-368336D02*
X-386053D01*
X-368336Y-64039D02*
X-386053D01*
X-318453Y-57039D02*
Y-36961D01*
X-300736Y-57039D02*
Y-36961D01*
Y-57039D02*
X-318453D01*
X-300736Y-36961D02*
X-318453D01*
X-336420Y35658D02*
X-352169D01*
X-336420Y55343D02*
X-352169D01*
Y35658D02*
Y55343D01*
X-336420Y35658D02*
Y55343D01*
X-269661Y-80359D02*
X-277928D01*
X-269661Y-75241D02*
X-277928D01*
Y-80359D02*
Y-75241D01*
X-269661Y-80359D02*
Y-75241D01*
X-111809Y-27634D02*
X-113383Y-26059D01*
X-111809Y8587D02*
X-113383Y10161D01*
X-112596Y1500D02*
Y9374D01*
Y-26847D02*
Y-18972D01*
X-131887D02*
X-154722D01*
X-131887Y-23106D02*
Y-18972D01*
X-127163Y-23106D02*
X-131887D01*
X-127163D02*
Y-18972D01*
X-112596D02*
X-127163D01*
X-112596Y1500D02*
X-137793D01*
Y5634D01*
X-142517D01*
Y1500D02*
Y5634D01*
Y1500D02*
X-154722D01*
Y-18972D02*
Y1500D01*
X-251758Y-61033D02*
X-272231D01*
X-251758Y-40167D02*
X-272231D01*
Y-61033D02*
Y-40167D01*
X-251758Y-61033D02*
Y-40167D01*
X-331635Y-27559D02*
X-386754D01*
X-331635Y27559D02*
X-386754D01*
Y-27559D02*
Y27559D01*
X-331635Y-27559D02*
Y27559D01*
X-422695Y-85630D02*
X-423679D01*
X-424663Y-84646D01*
Y0D01*
Y84646D01*
X-423679Y85630D02*
X-424663Y84646D01*
X-422695Y85630D02*
X-423679D01*
X-422695Y-91339D02*
X-433521D01*
X-433718D01*
X-434506Y-90551D01*
Y-87402D01*
Y87402D02*
X-434506Y87402D01*
X-434506Y87402D02*
Y90551D01*
X-433718Y91339D02*
X-434506Y90551D01*
X-433521Y91339D02*
X-433718D01*
X-422695D02*
X-433521D01*
X-446317Y-87402D02*
Y87402D01*
X-422695Y-87402D02*
X-446317D01*
X-422695Y87402D02*
X-446317D01*
X-422695Y-91339D02*
Y91339D01*
X-444545Y-87402D02*
Y87402D01*
X-433521Y-91240D02*
Y-87598D01*
Y-91240D02*
X-433620Y-91339D01*
X-433521Y87402D02*
Y91339D01*
X-407931Y0D02*
X-448285D01*
X-291695Y3531D02*
Y7468D01*
X-289726Y5500D02*
X-293663D01*
X-187726Y62300D02*
X-191663D01*
X-189695Y60331D02*
Y64268D01*
X-216726Y-4000D02*
X-220663D01*
X-218695Y-5968D02*
Y-2032D01*
X-375226Y-54000D02*
X-379163D01*
X-377195Y-55968D02*
Y-52031D01*
X-307626Y-47000D02*
X-311563D01*
X-309595Y-48968D02*
Y-45031D01*
X-344295Y43532D02*
Y47469D01*
X-342326Y45500D02*
X-346263D01*
X-273795Y-79769D02*
Y-75832D01*
X-271826Y-77800D02*
X-275763D01*
X-112596Y-10311D02*
Y-7161D01*
X-111021Y-8736D02*
X-114171D01*
X-261995Y-52569D02*
Y-48632D01*
X-260026Y-50600D02*
X-263963D01*
X-359195Y-1969D02*
Y1969D01*
X-357226Y0D02*
X-361163D01*
D19*
X-353796Y-33350D02*
X-355764Y-33350D01*
X-357732Y-33350D02*
X-359307D01*
X-360882D02*
X-362457D01*
X-364425D02*
X-366394Y-33350D01*
X-364425Y-39650D02*
X-366394Y-39649D01*
X-360882Y-39650D02*
X-362457D01*
X-357732Y-39650D02*
X-359307D01*
X-353796Y-39649D02*
X-355764Y-39650D01*
Y-33350D01*
X-357732Y-39650D02*
Y-33350D01*
X-359307Y-39650D02*
Y-33350D01*
X-360882Y-39650D02*
X-360882Y-33350D01*
X-362457D02*
X-362457Y-39650D01*
X-364425Y-39650D02*
Y-33350D01*
X-353796Y-39649D02*
Y-33350D01*
X-366394Y-39649D02*
Y-33350D01*
X-334896D02*
X-336864Y-33350D01*
X-338832Y-33350D02*
X-340407D01*
X-341982Y-33350D02*
X-343557D01*
X-345525Y-33350D02*
X-347494Y-33350D01*
X-345525Y-39650D02*
X-347494Y-39649D01*
X-341982Y-39650D02*
X-343557D01*
X-338832D02*
X-340407Y-39650D01*
X-334896Y-39649D02*
X-336864Y-39650D01*
Y-33350D01*
X-338832Y-33350D02*
X-338832Y-39650D01*
X-340407Y-39650D02*
Y-33350D01*
X-341982Y-39650D02*
Y-33350D01*
X-343557Y-39650D02*
Y-33350D01*
X-345525Y-39650D02*
Y-33350D01*
X-334896Y-39649D02*
Y-33350D01*
X-347494Y-39649D02*
Y-33350D01*
X-268368Y42114D02*
X-315021D01*
X-268368Y-31114D02*
X-315021D01*
X-268368D02*
Y42114D01*
X-315021Y-31114D02*
Y42114D01*
X-203671Y54229D02*
Y70370D01*
X-175718Y54229D02*
Y70370D01*
Y54229D02*
X-203671D01*
X-175718Y70370D02*
X-203671D01*
X-230112Y-20339D02*
Y12339D01*
X-207277Y-20339D02*
Y12339D01*
X-230112D01*
X-207277Y-20339D02*
X-230112D01*
X-361840Y-65024D02*
Y-42976D01*
X-392549Y-65024D02*
Y-42976D01*
X-361840D02*
X-392549D01*
X-361840Y-65024D02*
X-392549D01*
X-324949Y-58024D02*
Y-35976D01*
X-294240Y-58024D02*
Y-35976D01*
Y-58024D02*
X-324949D01*
X-294240Y-35976D02*
X-324949D01*
X-327956Y33689D02*
X-360633D01*
X-327956Y57311D02*
X-360633D01*
Y33689D02*
Y57311D01*
X-327956Y33689D02*
Y57311D01*
X-267102Y-81540D02*
X-280487D01*
X-267102Y-74060D02*
X-280487D01*
Y-81540D02*
Y-74060D01*
X-267102Y-81540D02*
Y-74060D01*
X-245656Y-62017D02*
X-278333D01*
X-245656Y-39183D02*
X-278333D01*
Y-62017D02*
Y-39183D01*
X-245656Y-62017D02*
Y-39183D01*
X-325041Y-34154D02*
X-393348D01*
X-325041Y34154D02*
X-393348D01*
Y-34154D02*
Y34154D01*
X-325041Y-34154D02*
Y34154D01*
D20*
X-440880Y125000D02*
X-446880Y127000D01*
X-440880Y129000D02*
X-446880Y127000D01*
X-109872D02*
X-115872Y129000D01*
X-109872Y127000D02*
X-115872Y125000D01*
X-291871Y127000D02*
X-446880D01*
X-109872D02*
X-261680D01*
X-446880Y107595D02*
Y128000D01*
X-109872Y107595D02*
Y128000D01*
X-263280Y128399D02*
X-264280Y129399D01*
X-266279D01*
X-267279Y128399D01*
Y127400D01*
X-266279Y126400D01*
X-267279Y125400D01*
Y124401D01*
X-266279Y123401D01*
X-264280D01*
X-263280Y124401D01*
Y125400D01*
X-264280Y126400D01*
X-263280Y127400D01*
Y128399D01*
X-264280Y126400D02*
X-266279D01*
X-273277Y129399D02*
X-269278D01*
Y126400D01*
X-271277Y127400D01*
X-272277D01*
X-273277Y126400D01*
Y124401D01*
X-272277Y123401D01*
X-270278D01*
X-269278Y124401D01*
X-275276Y123401D02*
Y124401D01*
X-276276D01*
Y123401D01*
X-275276D01*
X-284273Y129399D02*
X-282274Y128399D01*
X-280275Y126400D01*
Y124401D01*
X-281274Y123401D01*
X-283274D01*
X-284273Y124401D01*
Y125400D01*
X-283274Y126400D01*
X-280275D01*
X-286273Y128399D02*
X-287272Y129399D01*
X-289272D01*
X-290271Y128399D01*
Y124401D01*
X-289272Y123401D01*
X-287272D01*
X-286273Y124401D01*
Y128399D01*
D21*
X-195663Y42000D02*
D03*
X-201726D02*
D03*
X-201726Y49500D02*
D03*
X-195663D02*
D03*
X-180163Y73575D02*
D03*
X-186226D02*
D03*
X-193663D02*
D03*
X-199726D02*
D03*
X-182163Y49500D02*
D03*
X-188226D02*
D03*
X-188226Y42000D02*
D03*
X-182163D02*
D03*
X-175226Y17000D02*
D03*
X-169163D02*
D03*
X-225226Y17500D02*
D03*
X-219163D02*
D03*
X-219163Y25500D02*
D03*
X-225226D02*
D03*
X-224226Y-26000D02*
D03*
X-218163D02*
D03*
X-218163Y-34000D02*
D03*
X-224226D02*
D03*
X-214226Y-52000D02*
D03*
X-208163D02*
D03*
X-194163D02*
D03*
X-200226D02*
D03*
X-186226D02*
D03*
X-180163D02*
D03*
X-214226Y-61000D02*
D03*
X-208163D02*
D03*
X-200226D02*
D03*
X-194163D02*
D03*
X-186226D02*
D03*
X-180163D02*
D03*
X-359126Y-17800D02*
D03*
X-353063D02*
D03*
X-369226Y-71000D02*
D03*
X-363163D02*
D03*
X-350210Y-69500D02*
D03*
X-356273D02*
D03*
X-326726Y-62000D02*
D03*
X-320663D02*
D03*
X-305663D02*
D03*
X-311726D02*
D03*
X-328726Y-71000D02*
D03*
X-322663D02*
D03*
X-251163Y-80000D02*
D03*
X-257226D02*
D03*
X-243226D02*
D03*
X-237163D02*
D03*
D22*
X-174695Y43532D02*
D03*
Y37468D02*
D03*
Y30531D02*
D03*
Y24468D02*
D03*
X-173195Y65831D02*
D03*
Y59768D02*
D03*
X-209695Y48531D02*
D03*
Y42469D02*
D03*
X-167195Y43532D02*
D03*
Y37468D02*
D03*
Y30531D02*
D03*
Y24468D02*
D03*
X-234695Y6032D02*
D03*
Y-32D02*
D03*
Y20031D02*
D03*
Y13969D02*
D03*
X-201695Y969D02*
D03*
Y7032D02*
D03*
X-193695Y969D02*
D03*
Y7032D02*
D03*
X-185695Y969D02*
D03*
Y7032D02*
D03*
X-201695Y-12468D02*
D03*
Y-18531D02*
D03*
X-193695Y-12468D02*
D03*
Y-18531D02*
D03*
X-185695Y-12468D02*
D03*
Y-18531D02*
D03*
X-232195Y-15032D02*
D03*
Y-8969D02*
D03*
X-239695Y-30531D02*
D03*
Y-24468D02*
D03*
X-231695Y-30563D02*
D03*
Y-24500D02*
D03*
X-173195Y-34532D02*
D03*
Y-28468D02*
D03*
X-258695Y8531D02*
D03*
Y2468D02*
D03*
X-322195Y44969D02*
D03*
Y51032D02*
D03*
X-398195Y35969D02*
D03*
Y42031D02*
D03*
X-357695Y17968D02*
D03*
Y24032D02*
D03*
X-343495Y23132D02*
D03*
Y17068D02*
D03*
X-339095Y2468D02*
D03*
Y8531D02*
D03*
X-380795Y-7332D02*
D03*
Y-1268D02*
D03*
X-291095Y-52232D02*
D03*
Y-46169D02*
D03*
X-338695Y-63032D02*
D03*
X-338695Y-56968D02*
D03*
D23*
X-163195Y74000D02*
D03*
X-164195Y51500D02*
D03*
D24*
X-165128Y-36252D02*
D03*
Y-44126D02*
D03*
Y-52000D02*
D03*
Y-59874D02*
D03*
Y-67748D02*
D03*
D25*
X-119852Y-76016D02*
D03*
Y-27984D02*
D03*
D26*
X-272994Y38000D02*
D03*
Y33000D02*
D03*
Y28000D02*
D03*
Y23000D02*
D03*
Y18000D02*
D03*
Y13000D02*
D03*
Y8000D02*
D03*
Y3000D02*
D03*
Y-2000D02*
D03*
Y-7000D02*
D03*
Y-12000D02*
D03*
Y-17000D02*
D03*
Y-22000D02*
D03*
Y-27000D02*
D03*
X-310395Y38000D02*
D03*
Y33000D02*
D03*
Y28000D02*
D03*
Y23000D02*
D03*
Y18000D02*
D03*
Y13000D02*
D03*
Y8000D02*
D03*
Y3000D02*
D03*
Y-2000D02*
D03*
Y-7000D02*
D03*
Y-12000D02*
D03*
Y-17000D02*
D03*
Y-22000D02*
D03*
Y-27000D02*
D03*
D27*
X-198750Y58461D02*
D03*
Y61020D02*
D03*
Y63579D02*
D03*
Y66138D02*
D03*
X-180639Y58461D02*
D03*
Y61020D02*
D03*
Y63579D02*
D03*
Y66138D02*
D03*
D28*
X-183907Y29500D02*
D03*
Y21500D02*
D03*
X-209482Y-40000D02*
D03*
Y-32000D02*
D03*
D29*
X-226195Y8795D02*
D03*
X-221195D02*
D03*
X-216195D02*
D03*
X-211195D02*
D03*
X-226195Y-16795D02*
D03*
X-221195D02*
D03*
X-216195D02*
D03*
X-211195D02*
D03*
D30*
X-177435Y9843D02*
D03*
X-169954D02*
D03*
X-173695Y0D02*
D03*
X-169954Y-18921D02*
D03*
X-177435D02*
D03*
X-173695Y-9079D02*
D03*
D31*
X-293852Y67000D02*
D03*
X-283537D02*
D03*
X-312352Y-71000D02*
D03*
X-302037D02*
D03*
X-270737Y-68900D02*
D03*
X-281052D02*
D03*
X-249552D02*
D03*
X-239237D02*
D03*
D32*
X-365409Y-33468D02*
D03*
Y-39531D02*
D03*
X-354780Y-33468D02*
D03*
Y-39531D02*
D03*
X-346510Y-33468D02*
D03*
X-346510Y-39531D02*
D03*
X-335880Y-33468D02*
D03*
Y-39531D02*
D03*
D33*
X-361669Y-33468D02*
D03*
X-361669Y-39531D02*
D03*
X-358520Y-33468D02*
D03*
Y-39531D02*
D03*
X-342769Y-33468D02*
D03*
Y-39531D02*
D03*
X-339620Y-33468D02*
D03*
X-339620Y-39531D02*
D03*
D34*
X-365580Y-46323D02*
D03*
Y-48882D02*
D03*
Y-51441D02*
D03*
Y-54000D02*
D03*
Y-56559D02*
D03*
Y-59118D02*
D03*
Y-61677D02*
D03*
X-388809Y-46323D02*
D03*
Y-48882D02*
D03*
Y-51441D02*
D03*
Y-54000D02*
D03*
Y-56559D02*
D03*
Y-59118D02*
D03*
Y-61677D02*
D03*
X-321209Y-54677D02*
D03*
Y-52118D02*
D03*
Y-49559D02*
D03*
Y-47000D02*
D03*
Y-44441D02*
D03*
Y-41882D02*
D03*
Y-39323D02*
D03*
X-297980Y-54677D02*
D03*
Y-52118D02*
D03*
Y-49559D02*
D03*
Y-47000D02*
D03*
Y-44441D02*
D03*
Y-41882D02*
D03*
Y-39323D02*
D03*
D35*
X-346545Y-53269D02*
D03*
X-352844Y-61931D02*
D03*
X-346545D02*
D03*
X-352844Y-53269D02*
D03*
D36*
X-238695Y-46843D02*
D03*
Y-57157D02*
D03*
D37*
X-355417Y38000D02*
D03*
Y43000D02*
D03*
Y48000D02*
D03*
Y53000D02*
D03*
X-333172Y38000D02*
D03*
Y43000D02*
D03*
Y48000D02*
D03*
Y53000D02*
D03*
D38*
X-277495Y-77800D02*
D03*
X-270094D02*
D03*
D39*
X-151573Y4650D02*
D03*
X-130706D02*
D03*
X-119880D02*
D03*
Y-22122D02*
D03*
X-139761D02*
D03*
X-151573D02*
D03*
D40*
X-274790Y-58100D02*
D03*
Y-53100D02*
D03*
Y-48100D02*
D03*
Y-43100D02*
D03*
X-249199Y-58100D02*
D03*
Y-53100D02*
D03*
Y-48100D02*
D03*
Y-43100D02*
D03*
D41*
X-398199Y-78500D02*
D03*
X-391191D02*
D03*
D42*
X-414820Y-83740D02*
D03*
Y83740D02*
D03*
Y81240D02*
D03*
Y78740D02*
D03*
Y76240D02*
D03*
Y73740D02*
D03*
Y71240D02*
D03*
Y68740D02*
D03*
Y66240D02*
D03*
Y63740D02*
D03*
Y61240D02*
D03*
Y58740D02*
D03*
Y56240D02*
D03*
Y53740D02*
D03*
Y51240D02*
D03*
Y48740D02*
D03*
Y46240D02*
D03*
Y43740D02*
D03*
Y41240D02*
D03*
Y38740D02*
D03*
Y36240D02*
D03*
Y33740D02*
D03*
Y31240D02*
D03*
Y28740D02*
D03*
Y26240D02*
D03*
Y23740D02*
D03*
Y21240D02*
D03*
Y18740D02*
D03*
Y16240D02*
D03*
Y13740D02*
D03*
Y11240D02*
D03*
Y8740D02*
D03*
Y6240D02*
D03*
Y-81260D02*
D03*
Y3740D02*
D03*
Y1240D02*
D03*
Y-1260D02*
D03*
Y-3760D02*
D03*
Y-6260D02*
D03*
Y-8760D02*
D03*
Y-11260D02*
D03*
Y-13760D02*
D03*
Y-16260D02*
D03*
Y-18760D02*
D03*
Y-21260D02*
D03*
Y-23760D02*
D03*
Y-26260D02*
D03*
Y-28760D02*
D03*
Y-31260D02*
D03*
Y-33760D02*
D03*
Y-36260D02*
D03*
Y-38760D02*
D03*
Y-41260D02*
D03*
Y-43760D02*
D03*
Y-46260D02*
D03*
Y-48760D02*
D03*
Y-51260D02*
D03*
Y-53760D02*
D03*
Y-56260D02*
D03*
Y-58760D02*
D03*
Y-61260D02*
D03*
Y-63760D02*
D03*
Y-66260D02*
D03*
Y-68760D02*
D03*
Y-71260D02*
D03*
Y-76260D02*
D03*
Y-73760D02*
D03*
Y-78760D02*
D03*
D70*
X-281794Y-48380D02*
Y-39241D01*
X-277074Y-53100D02*
X-281794Y-48380D01*
X-274790Y-53100D02*
X-277074D01*
X-278595Y-54500D02*
Y-53558D01*
X-277295Y-55800D02*
X-278595Y-54500D01*
X-272034Y-55800D02*
X-277295D01*
X-324964Y-51449D02*
Y-44815D01*
X-324590Y-44441D02*
X-324964Y-44815D01*
X-321209Y-44441D02*
X-324590D01*
X-392995Y-47554D02*
Y-44900D01*
X-392095Y-44000D02*
X-392995Y-44900D01*
X-386076Y-44000D02*
X-392095D01*
X-391667Y-48882D02*
X-392995Y-47554D01*
X-382076Y-48000D02*
X-386076Y-44000D01*
X-388809Y-48882D02*
X-391667D01*
X-358520Y-39632D02*
X-365310D01*
X-335280D02*
X-358520D01*
X-361669Y-33468D02*
Y-31975D01*
X-360407Y-30713D02*
X-361669Y-31975D01*
X-358674Y-30713D02*
X-360407D01*
X-356762Y-28800D02*
X-358674Y-30713D01*
X-355754Y-28800D02*
X-356762D01*
X-366680Y-62277D02*
X-373039D01*
X-159195Y-31000D02*
X-167695D01*
X-150195Y-40000D02*
X-159195Y-31000D01*
X-263375Y-19819D02*
X-276875D01*
X-261691Y-21503D02*
X-263375Y-19819D01*
X-276875D02*
X-278195Y-18500D01*
X-162195Y11032D02*
X-168663Y17500D01*
X-167695Y-31000D02*
X-169663D01*
X-310395Y-17000D02*
X-327695D01*
X-329994Y-19299D01*
X-313195Y13000D02*
X-317195Y9000D01*
Y7636D02*
X-332613Y-7782D01*
X-317195Y7636D02*
Y9000D01*
X-310395Y13000D02*
X-313195D01*
X-310395Y8000D02*
X-314852D01*
X-310395Y3000D02*
X-317873D01*
X-310395D02*
X-310395Y3000D01*
Y-2000D02*
X-320895D01*
X-310395Y-2000D02*
X-310395Y-2000D01*
X-331087Y-20900D02*
X-333191Y-23004D01*
X-310395Y-12000D02*
X-312954D01*
X-306695D02*
X-310395D01*
X-305493Y-18433D02*
Y-13201D01*
Y-18433D02*
X-306241Y-19181D01*
X-306375D01*
X-306495Y-19300D01*
X-305493Y-13201D02*
X-306695Y-12000D01*
X-330815Y-17900D02*
X-334295D01*
X-310395Y-22000D02*
X-312954D01*
X-306695D02*
X-310395D01*
X-304094Y-11600D02*
X-306195Y-9500D01*
X-304094Y-19400D02*
Y-11600D01*
Y-19400D02*
X-306695Y-22000D01*
X-272994Y-12000D02*
X-276695D01*
X-270435D02*
X-272994D01*
X-276695D02*
X-278195Y-13500D01*
Y-18500D02*
Y-13500D01*
X-150195Y-72500D02*
Y-40000D01*
Y-72500D02*
X-156195Y-78500D01*
X-229695D01*
X-233195Y-75000D01*
X-260595Y-38400D02*
X-276995D01*
X-254695Y-32500D02*
X-260595Y-38400D01*
X-254695Y-32500D02*
Y-18500D01*
X-257494Y-31236D02*
Y-19701D01*
X-261859Y-35601D02*
X-278154D01*
X-257494Y-31236D02*
X-261859Y-35601D01*
X-258893Y-30656D02*
Y-20302D01*
X-262439Y-34202D02*
X-278734D01*
X-258893Y-30656D02*
X-262439Y-34202D01*
X-263018Y-32802D02*
X-279313D01*
X-260292Y-30076D02*
X-263018Y-32802D01*
X-260292Y-30076D02*
Y-20924D01*
X-263595Y-31400D02*
X-297095D01*
X-261691Y-29497D02*
X-263595Y-31400D01*
X-261691Y-29497D02*
Y-21503D01*
X-310995Y-77200D02*
X-318495D01*
X-304195Y-84000D02*
X-310995Y-77200D01*
X-241163Y-84000D02*
X-304195D01*
X-263695Y-9500D02*
X-277674D01*
X-284195Y-1000D02*
X-286695Y1500D01*
X-284195Y-2979D02*
Y-1000D01*
X-277674Y-9500D02*
X-284195Y-2979D01*
X-258195Y-8000D02*
X-264195Y-2000D01*
X-258195Y-15000D02*
Y-8000D01*
X-254695Y-18500D02*
X-258195Y-15000D01*
X-264195Y-2000D02*
X-270435D01*
X-262695Y-10500D02*
X-263695Y-9500D01*
X-262695Y-16500D02*
Y-10500D01*
X-261295Y-9899D02*
X-264195Y-7000D01*
X-261295Y-15899D02*
Y-9899D01*
X-257494Y-19701D02*
X-261295Y-15899D01*
X-258893Y-20302D02*
X-262695Y-16500D01*
X-313024Y-12070D02*
X-313095Y-12000D01*
X-306495Y-19300D02*
X-327873D01*
X-312954Y-21700D02*
X-313895D01*
X-306195Y-9500D02*
X-322415D01*
X-263375Y-29181D02*
X-278195D01*
X-278976Y-28399D01*
X-296094D01*
X-302293Y-34598D01*
X-297253Y-25601D02*
X-303452Y-31800D01*
X-278795Y-25601D02*
X-297253D01*
X-278014Y-24819D02*
X-278795Y-25601D01*
X-263375Y-24819D02*
X-278014D01*
X-260292Y-20924D02*
X-264216Y-17000D01*
X-270435D01*
X-263091Y-25104D02*
X-263375Y-24819D01*
X-263091Y-28896D02*
Y-25104D01*
X-264195Y-7000D02*
X-270435D01*
X-263091Y-28896D02*
X-263375Y-29181D01*
X-262695Y33000D02*
X-262695Y33000D01*
X-303452Y-31800D02*
X-326994D01*
X-296673Y-27000D02*
X-302872Y-33199D01*
X-270435Y-27000D02*
X-296673D01*
X-302872Y-33199D02*
X-326415D01*
X-302293Y-34598D02*
X-325835D01*
X-310695Y-50500D02*
Y-45000D01*
X-297095Y-31400D02*
X-310695Y-45000D01*
X-318495Y-77200D02*
X-319695Y-76000D01*
X-405695Y-33760D02*
X-414820D01*
X-405695Y61240D02*
X-414820D01*
X-343695Y25000D02*
X-345195Y26500D01*
X-343695Y23953D02*
Y25000D01*
X-335880Y-33468D02*
Y-30185D01*
X-334695Y-29000D02*
X-335880Y-30185D01*
X-334695Y-29000D02*
Y-25000D01*
X-332695Y-23500D02*
X-333195D01*
X-334695Y-25000D01*
X-339620Y-33468D02*
Y-31425D01*
X-336210Y-28015D02*
X-339620Y-31425D01*
X-336210Y-28015D02*
Y-22515D01*
X-334695Y-21000D02*
X-336210Y-22515D01*
X-334195Y-21000D02*
X-334695D01*
X-337609Y-27093D02*
X-342215Y-31699D01*
X-337609Y-27093D02*
Y-24619D01*
X-337695Y-24534D02*
Y-21000D01*
X-337609Y-24619D02*
X-337695Y-24534D01*
X-334295Y-17600D02*
X-337695Y-21000D01*
X-339495Y-25400D02*
Y-20100D01*
X-344595Y-28900D02*
X-351768D01*
X-343432Y-27737D02*
X-344595Y-28900D01*
X-343432Y-27737D02*
Y-25400D01*
X-342163Y-24131D02*
X-343432Y-25400D01*
X-342163Y-24131D02*
Y-13448D01*
X-342215Y-31699D02*
X-342394D01*
X-342769Y-32075D01*
Y-33468D02*
Y-32075D01*
X-405695Y81240D02*
X-414820D01*
X-405695Y-83740D02*
X-414820D01*
X-405695Y71240D02*
X-414820D01*
X-405695Y56240D02*
X-414820D01*
X-330695Y-76000D02*
X-333695Y-73000D01*
X-319695Y-76000D02*
X-330695D01*
X-346360Y-19740D02*
Y-11687D01*
X-342456Y-7782D02*
X-346360Y-11687D01*
X-332613Y-7782D02*
X-342456D01*
X-332034Y-9182D02*
X-341854D01*
X-314852Y8000D02*
X-332034Y-9182D01*
X-331454Y-10581D02*
X-341274D01*
X-330874Y-11980D02*
X-340695D01*
X-345910Y-33569D02*
Y-31415D01*
X-334395Y-15000D02*
X-339495Y-20100D01*
X-330795Y-15000D02*
X-334395D01*
X-322795Y-7000D02*
X-330795Y-15000D01*
X-342275Y-9580D02*
X-344961Y-12267D01*
X-341854Y-9182D02*
X-342264Y-9591D01*
X-343562Y-21467D02*
Y-12868D01*
X-341274Y-10581D02*
X-343562Y-12868D01*
X-340695Y-11980D02*
X-342163Y-13448D01*
X-332494Y-19299D02*
X-334195Y-21000D01*
X-329994Y-19299D02*
X-332494D01*
X-344961Y-20604D02*
Y-12267D01*
Y-20604D02*
X-347772Y-23414D01*
X-346360Y-19740D02*
X-348434Y-21814D01*
X-339495Y-27000D02*
Y-25400D01*
X-343562Y-21467D02*
X-347495Y-25400D01*
X-348434Y-21814D02*
X-354209D01*
X-322415Y-9500D02*
X-330815Y-17900D01*
X-329473Y-20900D02*
X-331087D01*
X-348651Y-48800D02*
X-352844Y-52993D01*
Y-53269D02*
Y-52993D01*
X-345874Y-48800D02*
X-348651D01*
X-342774Y-45700D02*
X-345874Y-48800D01*
X-333852Y-45700D02*
X-342774D01*
X-331961Y-43809D02*
X-333852Y-45700D01*
X-331961Y-43809D02*
Y-36766D01*
X-326994Y-31800D02*
X-331961Y-36766D01*
X-325835Y-34598D02*
X-329163Y-37926D01*
Y-44968D02*
Y-37926D01*
Y-44968D02*
X-332695Y-48500D01*
X-340695D01*
X-341895Y-49700D01*
Y-50300D02*
Y-49700D01*
X-361754Y-51441D02*
X-365580D01*
X-358195Y-55000D02*
X-361754Y-51441D01*
X-358195Y-56000D02*
Y-55000D01*
X-356795Y-57400D02*
X-358195Y-56000D01*
X-349695Y-57400D02*
X-356795D01*
X-374497Y-60761D02*
X-374896Y-60361D01*
X-374497Y-60761D02*
Y-60535D01*
X-373996Y-61261D02*
X-374497Y-60761D01*
X-373996Y-61319D02*
Y-61261D01*
X-373039Y-62277D02*
X-373996Y-61319D01*
X-333273Y-47100D02*
X-342195D01*
X-350289Y-69500D02*
X-352844Y-66945D01*
Y-61931D01*
X-330195Y-71000D02*
X-332195Y-69000D01*
X-328726Y-71000D02*
X-330195D01*
X-380195Y-48000D02*
X-382076D01*
X-377695Y-61863D02*
Y-41837D01*
X-376295Y-60941D02*
Y-42701D01*
X-374896Y-60361D02*
Y-43564D01*
X-350995Y23892D02*
X-351380Y24277D01*
X-350995Y10763D02*
Y23892D01*
Y10763D02*
X-372095Y-10337D01*
X-347409Y26114D02*
X-348380Y27086D01*
X-350217D01*
X-351380Y25923D01*
X-347409Y23986D02*
Y26114D01*
Y23986D02*
X-347795Y23600D01*
X-368895Y-37563D02*
X-374896Y-43564D01*
X-347795Y9437D02*
Y23600D01*
Y9437D02*
X-368895Y-11663D01*
X-373694Y-65863D02*
X-377695Y-61863D01*
X-368895Y-37563D02*
Y-11663D01*
X-351380Y24277D02*
Y25923D01*
X-372095Y-36237D02*
Y-10337D01*
Y-36237D02*
X-377695Y-41837D01*
X-371732Y-65863D02*
X-373694D01*
X-371295Y-66300D02*
X-371732Y-65863D01*
X-362858Y-64263D02*
X-373032D01*
X-361595Y-63000D02*
Y-57600D01*
Y-63000D02*
X-362858Y-64263D01*
X-373032D02*
X-375896Y-61399D01*
X-369076Y-48882D02*
X-369695Y-49500D01*
Y-58500D02*
Y-49500D01*
X-369076Y-59118D02*
X-369695Y-58500D01*
X-365580Y-59118D02*
X-369076D01*
X-365580Y-48882D02*
X-369076D01*
X-362635Y-56559D02*
X-365580D01*
X-361595Y-57600D02*
X-362635Y-56559D01*
X-324964Y-51449D02*
X-332195Y-58679D01*
X-326363Y-50869D02*
Y-43769D01*
Y-50869D02*
X-333695Y-58200D01*
X-314872Y-54677D02*
X-321209D01*
X-310695Y-50500D02*
X-314872Y-54677D01*
X-332195Y-69000D02*
Y-58679D01*
X-333695Y-73000D02*
Y-58200D01*
X-237163Y-80000D02*
X-241163Y-84000D01*
X-243226Y-80000D02*
X-251163D01*
X-238226Y-75000D02*
X-243226Y-80000D01*
X-233195Y-75000D02*
X-238226D01*
X-370495Y-36900D02*
X-376295Y-42701D01*
X-375396Y-61841D02*
X-376295Y-60941D01*
X-326415Y-33199D02*
X-330562Y-37346D01*
Y-44388D02*
Y-37346D01*
X-324477Y-41882D02*
X-326363Y-43769D01*
X-330562Y-44388D02*
X-333273Y-47100D01*
X-162195Y10500D02*
Y11032D01*
X-175226Y18000D02*
X-177435Y15791D01*
Y9843D02*
Y15791D01*
X-173195Y-28468D02*
Y-25500D01*
X-169954Y-22260D02*
X-173195Y-25500D01*
X-169954Y-22260D02*
Y-18921D01*
X-169663Y-31000D02*
X-173195Y-34532D01*
X-349395Y10100D02*
Y25100D01*
X-249199Y-48000D02*
X-249699D01*
X-321209Y-41882D02*
X-324477D01*
X-320895Y-2000D02*
X-330874Y-11980D01*
X-317873Y3000D02*
X-331454Y-10581D01*
X-270794Y-57040D02*
X-272034Y-55800D01*
X-270794Y-60020D02*
Y-57040D01*
Y-60020D02*
X-271157Y-60383D01*
X-277912D01*
X-279313Y-32802D02*
X-284592Y-38081D01*
Y-49539D02*
Y-38081D01*
X-280195Y-53937D02*
X-284592Y-49539D01*
X-280195Y-55900D02*
Y-53937D01*
X-277795Y-58300D02*
X-280195Y-55900D01*
X-276990Y-58300D02*
X-277795D01*
X-278734Y-34202D02*
X-283193Y-38661D01*
X-278595Y-53558D02*
X-283193Y-48960D01*
Y-38661D01*
X-278154Y-35601D02*
X-281794Y-39241D01*
X-278995Y-45600D02*
Y-40400D01*
X-276995Y-38400D02*
X-278995Y-40400D01*
X-276495Y-48100D02*
X-278995Y-45600D01*
X-274790Y-48100D02*
X-276495D01*
X-365310Y-39632D02*
X-365409Y-39531D01*
X-370495Y-36900D02*
Y-11000D01*
X-349395Y10100D02*
X-370495Y-11000D01*
X-348495Y-56200D02*
X-349695Y-57400D01*
X-361095Y-25454D02*
X-361148Y-25400D01*
X-361095Y-28300D02*
Y-25454D01*
Y-28300D02*
X-365409Y-32615D01*
Y-33468D02*
Y-32615D01*
X-354640Y-27686D02*
X-355754Y-28800D01*
X-354513Y-27686D02*
X-354640D01*
X-352195Y-25367D02*
X-354513Y-27686D01*
X-352195Y-25367D02*
Y-24300D01*
X-353480Y-30486D02*
X-354780Y-31785D01*
X-354060Y-29086D02*
X-355174Y-30200D01*
X-353354Y-30486D02*
X-353480D01*
X-351768Y-28900D02*
X-353354Y-30486D01*
X-353934Y-29086D02*
X-354060D01*
X-352348Y-27500D02*
X-353934Y-29086D01*
X-351437Y-27500D02*
X-352348D01*
X-349337Y-25400D02*
X-351437Y-27500D01*
X-355174Y-30200D02*
X-356095D01*
X-358520Y-32625D01*
Y-33468D02*
Y-32625D01*
X-342795Y-30300D02*
X-344795D01*
X-339495Y-27000D02*
X-342795Y-30300D01*
X-344795D02*
X-345910Y-31415D01*
X-354780Y-33468D02*
Y-31785D01*
X-327873Y-19300D02*
X-329473Y-20900D01*
X-310395Y-7000D02*
X-322795D01*
X-342195Y-47100D02*
X-346545Y-51450D01*
Y-53269D02*
Y-51450D01*
X-346895Y-51800D01*
X-357795Y-25400D02*
X-361148D01*
X-354209Y-21814D02*
X-357795Y-25400D01*
X-352174Y-24300D02*
X-352195D01*
X-351288Y-23414D02*
X-352174Y-24300D01*
X-347495Y-25400D02*
X-349337D01*
X-347772Y-23414D02*
X-351288D01*
X-348495Y-56200D02*
Y-55219D01*
X-346545Y-53269D02*
X-348495Y-55219D01*
X-414561Y1500D02*
X-414820Y1240D01*
X-405695Y-78760D02*
X-414820D01*
X-405695Y-73760D02*
X-414820D01*
X-405695Y-68760D02*
X-414820D01*
X-405695Y-63760D02*
X-414820D01*
X-405695Y-58760D02*
X-414820D01*
X-405695Y-48760D02*
X-414820D01*
X-405695Y-43760D02*
X-414820D01*
X-405695Y-38760D02*
X-414820D01*
X-405695Y31240D02*
X-414820D01*
X-405695Y36240D02*
X-414820D01*
X-405695Y46240D02*
X-414820D01*
X-405695Y51240D02*
X-414820D01*
X-405695Y66240D02*
X-414820D01*
X-405695Y76240D02*
X-414820D01*
D71*
X-231195Y-66100D02*
Y-65000D01*
X-223295Y-74000D02*
X-231195Y-66100D01*
X-176699Y-74000D02*
X-223295D01*
X-272994Y-22000D02*
X-279695D01*
X-270435D02*
X-272994D01*
X-176489Y55000D02*
X-179950Y58461D01*
X-167695Y55000D02*
X-176489D01*
X-164195Y51500D02*
X-167695Y55000D01*
X-198695Y-23000D02*
X-201695Y-20000D01*
X-167195Y24468D02*
X-174695D01*
X-167612Y7500D02*
X-169954Y9843D01*
X-119297Y-22311D02*
X-122986Y-26000D01*
X-117978Y-20992D02*
X-119297Y-22311D01*
X-317103Y-48908D02*
Y-40437D01*
X-243695Y-53000D02*
X-246195D01*
X-240637Y-56058D02*
X-243695Y-53000D01*
X-158345Y-28850D02*
X-164195Y-23000D01*
X-179950Y58461D02*
X-180639D01*
X-163195Y74000D02*
X-172778D01*
X-180639Y66138D01*
X-173195Y59768D02*
X-174446Y61020D01*
X-180639D01*
X-173195Y65831D02*
X-175446Y63579D01*
X-180639D01*
X-198750Y66138D02*
X-199726Y67115D01*
Y73575D01*
X-147045Y-28850D02*
X-158345D01*
X-226195Y-16795D02*
X-228758D01*
X-243695Y-41500D02*
X-245295Y-43100D01*
X-234695Y-41500D02*
X-243695D01*
X-229695Y-46500D02*
X-234695Y-41500D01*
X-247595Y-58100D02*
X-249199D01*
X-245195Y-60500D02*
X-247595Y-58100D01*
X-245195Y-61500D02*
Y-60500D01*
X-243195Y-63500D02*
X-245195Y-61500D01*
X-232695Y-63500D02*
X-243195D01*
X-231195Y-65000D02*
X-232695Y-63500D01*
X-133545Y10350D02*
X-158724D01*
X-131695Y8500D02*
X-133545Y10350D01*
X-158724D02*
X-161574Y7500D01*
X-124124Y8500D02*
X-131695D01*
X-119880Y4256D02*
X-124124Y8500D01*
X-122986Y-26000D02*
X-144195D01*
X-147045Y-28850D01*
X-165128Y-67748D02*
X-170447D01*
X-176699Y-74000D01*
X-177195Y-69500D02*
X-220018D01*
X-165128Y-59874D02*
X-167569D01*
X-177195Y-69500D01*
X-229695Y-59823D02*
Y-46500D01*
X-220018Y-69500D02*
X-229695Y-59823D01*
X-245295Y-43100D02*
X-249199D01*
X-279695Y-22000D02*
X-280695Y-21000D01*
X-291195Y-55000D02*
X-291517Y-54677D01*
X-297980D01*
X-317103Y-48908D02*
X-317754Y-49559D01*
X-321209D01*
X-317103Y-40437D02*
X-318217Y-39323D01*
X-321209D01*
X-181195Y-23000D02*
X-198695D01*
X-177435Y-19240D02*
X-181195Y-23000D01*
X-199195Y11500D02*
X-201695Y9000D01*
X-183695Y11500D02*
X-199195D01*
X-181695Y9500D02*
X-183695Y11500D01*
X-180195Y5000D02*
X-181695Y6500D01*
X-171695Y5000D02*
X-180195D01*
X-170195Y6500D02*
X-171695Y5000D01*
X-181695Y6500D02*
Y9500D01*
X-169954Y6740D02*
X-170195Y6500D01*
X-169954Y6740D02*
Y9843D01*
X-201695Y7032D02*
Y9000D01*
Y-20000D02*
Y-18531D01*
X-177435Y-19240D02*
Y-18921D01*
Y-16740D01*
X-161574Y7500D02*
X-167612D01*
X-211195Y6000D02*
Y8795D01*
X-164195Y-23000D02*
Y-18933D01*
X-169128Y-14000D01*
X-174695D01*
X-164195Y-25000D02*
Y-23000D01*
X-174695Y-14000D02*
X-177435Y-16740D01*
X-241152Y-48000D02*
X-249199D01*
X-238895Y-45742D02*
X-241152Y-48000D01*
X-238895Y-56058D02*
X-240637D01*
D72*
X-270963Y3000D02*
X-276195D01*
X-359195Y-69500D02*
X-360695Y-71000D01*
X-246195Y-53000D02*
X-253695D01*
X-266695Y-68900D02*
Y-47000D01*
X-227345Y-45527D02*
X-233871Y-39000D01*
X-302195Y28000D02*
X-310395D01*
X-258695Y8531D02*
Y11500D01*
X-261695Y14500D01*
Y15500D01*
X-225018Y-76500D02*
X-233545Y-67973D01*
X-169695Y-76500D02*
X-225018D01*
X-233695Y-67000D02*
X-234695D01*
X-233545Y-67150D02*
X-233695Y-67000D01*
X-233545Y-67973D02*
Y-67150D01*
X-227345Y-58850D02*
Y-45527D01*
X-219045Y-67150D02*
X-227345Y-58850D01*
X-179845Y-67150D02*
X-219045D01*
X-253695Y-53000D02*
X-254695Y-52000D01*
Y-40500D01*
X-253195Y-39000D02*
X-254695Y-40500D01*
X-233871Y-39000D02*
X-253195D01*
X-166695Y-76500D02*
X-169695D01*
X-270695Y3269D02*
X-270963Y3000D01*
X-277695Y1500D02*
X-279695D01*
X-276195Y3000D02*
X-277695Y1500D01*
X-320695Y-27000D02*
X-321695Y-26000D01*
X-312954Y-27000D02*
X-320695D01*
X-258695Y2468D02*
X-259226Y3000D01*
X-270435D01*
X-356273Y-69500D02*
X-359195D01*
X-356195D02*
X-356273D01*
X-360695Y-71000D02*
X-363163D01*
X-302037D02*
X-303195D01*
X-311726Y-62468D01*
Y-62000D01*
X-310195Y-59000D02*
X-311695D01*
X-304195Y-53000D02*
X-310195Y-59000D01*
X-304195Y-53000D02*
Y-49500D01*
X-177195Y-64500D02*
X-179845Y-67150D01*
X-177195Y-64500D02*
Y-61000D01*
X-266695Y-47000D02*
X-270595Y-43100D01*
X-274790D01*
D73*
X-249552Y-68900D02*
X-266695D01*
X-401195Y-25103D02*
X-405195Y-21103D01*
X-401195Y-66500D02*
Y-25103D01*
X-398195Y-69500D02*
X-401195Y-66500D01*
X-398199Y-78500D02*
Y-69504D01*
X-398195Y-69500D02*
X-398199Y-69504D01*
X-405195Y-21103D02*
Y-500D01*
X-408195Y2500D01*
X-353417Y40000D02*
X-355417Y38000D01*
X-350695Y40000D02*
X-353417D01*
X-347195Y43500D02*
X-350695Y40000D01*
X-347195Y43500D02*
Y44000D01*
X-280195Y-78000D02*
X-286695D01*
X-291695Y-73000D01*
Y-59500D01*
X-239237Y-69542D02*
Y-68900D01*
X-266695D02*
X-270737D01*
X-270094Y-69543D02*
X-270737Y-68900D01*
D74*
X-263263Y-74568D02*
X-264195Y-75500D01*
X-244263Y-74568D02*
X-263263D01*
X-239237Y-69542D02*
X-244263Y-74568D01*
D75*
X-270094Y-77800D02*
Y-69543D01*
D76*
X-411378Y2750D02*
D03*
D77*
X-394295Y21654D02*
D03*
X-187195Y65500D02*
D03*
X-172195Y33500D02*
D03*
X-164195D02*
D03*
X-309195Y49000D02*
D03*
X-167695Y-31000D02*
D03*
X-169695Y-76500D02*
D03*
X-166695D02*
D03*
X-388195Y-25000D02*
D03*
X-279695Y48000D02*
D03*
X-286695Y1500D02*
D03*
X-276695Y8500D02*
D03*
X-276595Y13200D02*
D03*
Y18300D02*
D03*
X-276295Y23500D02*
D03*
X-276495Y27900D02*
D03*
X-276695Y33000D02*
D03*
X-347195Y-58500D02*
D03*
X-407595Y-25300D02*
D03*
X-409195Y-31260D02*
D03*
X-405695Y-33760D02*
D03*
X-407595Y-28100D02*
D03*
X-405695Y61240D02*
D03*
X-343432Y-25400D02*
D03*
X-405695Y81240D02*
D03*
X-409195Y83740D02*
D03*
Y-81260D02*
D03*
X-405695Y-83740D02*
D03*
Y71240D02*
D03*
X-409195Y78740D02*
D03*
Y73740D02*
D03*
Y68740D02*
D03*
X-405695Y56240D02*
D03*
X-345195Y26500D02*
D03*
X-323695Y13000D02*
D03*
X-323195Y15500D02*
D03*
Y18500D02*
D03*
Y21000D02*
D03*
X-334195Y-21000D02*
D03*
X-334295Y-17600D02*
D03*
X-339495Y-25400D02*
D03*
X-332695Y-23500D02*
D03*
X-361195Y-55000D02*
D03*
X-341795Y-50800D02*
D03*
X-385195Y-59000D02*
D03*
X-380195Y-48000D02*
D03*
X-371295Y-66300D02*
D03*
X-370195Y-62000D02*
D03*
X-355195Y23500D02*
D03*
X-371895Y-47500D02*
D03*
X-162195Y10500D02*
D03*
X-335195Y27000D02*
D03*
X-349395Y25100D02*
D03*
X-375295Y-35200D02*
D03*
X-363106Y-26796D02*
D03*
X-361148Y-25400D02*
D03*
X-352195Y-24300D02*
D03*
X-349337Y-25400D02*
D03*
X-337095Y38000D02*
D03*
Y52800D02*
D03*
Y43100D02*
D03*
Y47900D02*
D03*
X-393695Y0D02*
D03*
X-405695Y-78760D02*
D03*
X-409195Y-76260D02*
D03*
X-405695Y-73760D02*
D03*
X-409195Y-71260D02*
D03*
X-405695Y-68760D02*
D03*
X-409195Y-66260D02*
D03*
X-405695Y-63760D02*
D03*
X-409195Y-61260D02*
D03*
X-405695Y-58760D02*
D03*
X-409195Y-56260D02*
D03*
Y-51260D02*
D03*
X-405695Y-48760D02*
D03*
X-409195Y-46260D02*
D03*
X-405695Y-43760D02*
D03*
X-409195Y-41260D02*
D03*
X-405695Y-38760D02*
D03*
X-409195Y-36260D02*
D03*
Y-21260D02*
D03*
Y8740D02*
D03*
Y13740D02*
D03*
Y28740D02*
D03*
X-405695Y31240D02*
D03*
X-409195Y33740D02*
D03*
X-405695Y36240D02*
D03*
X-409195Y43740D02*
D03*
X-405695Y46240D02*
D03*
X-409195Y48740D02*
D03*
X-405695Y51240D02*
D03*
X-409195Y53740D02*
D03*
Y58740D02*
D03*
Y63740D02*
D03*
X-405695Y66240D02*
D03*
Y76240D02*
D03*
D78*
X-241695Y-67500D02*
D03*
X-173695Y50500D02*
D03*
X-212805Y42000D02*
D03*
X-204695D02*
D03*
X-170695Y24000D02*
D03*
X-169974Y59599D02*
D03*
X-170084Y65821D02*
D03*
X-161695Y-5500D02*
D03*
X-279695Y70000D02*
D03*
Y64500D02*
D03*
X-237805Y-500D02*
D03*
X-215695Y-9000D02*
D03*
X-221195D02*
D03*
X-229084Y-16468D02*
D03*
X-239695Y-33543D02*
D03*
X-161195Y-36500D02*
D03*
X-162195Y3000D02*
D03*
X-261195Y25500D02*
D03*
X-261695Y15500D02*
D03*
X-417695Y-82500D02*
D03*
Y82500D02*
D03*
X-244195Y-53500D02*
D03*
X-297695Y-80500D02*
D03*
Y-74000D02*
D03*
Y-68000D02*
D03*
X-301195Y0D02*
D03*
X-294195Y-9500D02*
D03*
Y-17000D02*
D03*
X-287695Y-12500D02*
D03*
X-280695Y-21000D02*
D03*
X-279695Y1500D02*
D03*
X-262695Y33000D02*
D03*
X-388595Y-29700D02*
D03*
X-374595Y21200D02*
D03*
X-368995Y18100D02*
D03*
X-360195Y-46600D02*
D03*
X-335995Y15400D02*
D03*
Y21500D02*
D03*
X-343495Y13000D02*
D03*
X-341495Y600D02*
D03*
X-203195Y9900D02*
D03*
X-202295Y-21400D02*
D03*
X-385695Y39000D02*
D03*
X-390195Y74000D02*
D03*
X-383695D02*
D03*
X-387195Y78000D02*
D03*
X-393195D02*
D03*
X-383695Y82000D02*
D03*
X-390195D02*
D03*
X-396195D02*
D03*
X-406695Y20500D02*
D03*
X-400195Y2500D02*
D03*
X-404195Y6500D02*
D03*
X-369195Y25000D02*
D03*
X-347195Y44000D02*
D03*
X-350695Y40000D02*
D03*
X-368695Y0D02*
D03*
Y7500D02*
D03*
X-385195Y-74000D02*
D03*
X-327695Y29000D02*
D03*
X-362695Y45000D02*
D03*
X-299695Y-61000D02*
D03*
X-303695Y-58000D02*
D03*
X-344195Y-65500D02*
D03*
X-340195D02*
D03*
X-360695Y-80500D02*
D03*
X-366695D02*
D03*
X-373195D02*
D03*
X-313195Y40500D02*
D03*
X-339195Y-15500D02*
D03*
X-335195Y-4500D02*
D03*
X-315695Y-48000D02*
D03*
X-311695Y-59000D02*
D03*
X-294695Y-35000D02*
D03*
X-359695Y-69000D02*
D03*
X-286695Y-35000D02*
D03*
X-285195Y-61000D02*
D03*
X-234695Y-67000D02*
D03*
X-372695Y-71500D02*
D03*
X-317695Y-62000D02*
D03*
X-381195Y-70000D02*
D03*
X-389695Y30000D02*
D03*
X-361195Y18000D02*
D03*
X-380695Y2000D02*
D03*
Y-10500D02*
D03*
X-362195Y-18000D02*
D03*
X-350195Y-17500D02*
D03*
X-291195Y-55000D02*
D03*
X-285695Y-68500D02*
D03*
X-264195Y-80500D02*
D03*
Y-75500D02*
D03*
X-262195Y-69500D02*
D03*
X-257195D02*
D03*
X-304195Y-49500D02*
D03*
X-170195Y6500D02*
D03*
X-164195Y-25000D02*
D03*
X-217195Y-61000D02*
D03*
Y-52000D02*
D03*
X-177195D02*
D03*
Y-61000D02*
D03*
X-235695Y-54000D02*
D03*
X-337595Y10000D02*
D03*
X-350295Y-10400D02*
D03*
X-359295Y7541D02*
D03*
X-359136Y-10500D02*
D03*
X-350195Y-1400D02*
D03*
D79*
X-321695Y-26000D02*
D03*
X-352695Y-46500D02*
D03*
X-337195Y-53500D02*
D03*
X-350395Y-37400D02*
D03*
M02*
